%TF.GenerationSoftware,KiCad,Pcbnew,9.0.4*%
%TF.CreationDate,2026-01-30T00:23:57-08:00*%
%TF.ProjectId,MouseMinder,4d6f7573-654d-4696-9e64-65722e6b6963,rev?*%
%TF.SameCoordinates,Original*%
%TF.FileFunction,Soldermask,Top*%
%TF.FilePolarity,Negative*%
%FSLAX46Y46*%
G04 Gerber Fmt 4.6, Leading zero omitted, Abs format (unit mm)*
G04 Created by KiCad (PCBNEW 9.0.4) date 2026-01-30 00:23:57*
%MOMM*%
%LPD*%
G01*
G04 APERTURE LIST*
G04 Aperture macros list*
%AMRoundRect*
0 Rectangle with rounded corners*
0 $1 Rounding radius*
0 $2 $3 $4 $5 $6 $7 $8 $9 X,Y pos of 4 corners*
0 Add a 4 corners polygon primitive as box body*
4,1,4,$2,$3,$4,$5,$6,$7,$8,$9,$2,$3,0*
0 Add four circle primitives for the rounded corners*
1,1,$1+$1,$2,$3*
1,1,$1+$1,$4,$5*
1,1,$1+$1,$6,$7*
1,1,$1+$1,$8,$9*
0 Add four rect primitives between the rounded corners*
20,1,$1+$1,$2,$3,$4,$5,0*
20,1,$1+$1,$4,$5,$6,$7,0*
20,1,$1+$1,$6,$7,$8,$9,0*
20,1,$1+$1,$8,$9,$2,$3,0*%
G04 Aperture macros list end*
%ADD10C,8.381819*%
%ADD11RoundRect,0.243750X0.456250X-0.243750X0.456250X0.243750X-0.456250X0.243750X-0.456250X-0.243750X0*%
%ADD12RoundRect,0.250000X0.250000X0.475000X-0.250000X0.475000X-0.250000X-0.475000X0.250000X-0.475000X0*%
%ADD13RoundRect,0.250000X-0.262500X-0.450000X0.262500X-0.450000X0.262500X0.450000X-0.262500X0.450000X0*%
%ADD14R,1.000000X0.900000*%
%ADD15RoundRect,0.250000X0.450000X-0.262500X0.450000X0.262500X-0.450000X0.262500X-0.450000X-0.262500X0*%
%ADD16RoundRect,0.250000X-0.250000X-0.475000X0.250000X-0.475000X0.250000X0.475000X-0.250000X0.475000X0*%
%ADD17C,1.700000*%
%ADD18R,1.700000X1.700000*%
%ADD19RoundRect,0.102000X-0.650000X-1.700000X0.650000X-1.700000X0.650000X1.700000X-0.650000X1.700000X0*%
%ADD20RoundRect,0.150000X-0.512500X-0.150000X0.512500X-0.150000X0.512500X0.150000X-0.512500X0.150000X0*%
%ADD21RoundRect,0.053750X-0.361250X-0.161250X0.361250X-0.161250X0.361250X0.161250X-0.361250X0.161250X0*%
%ADD22RoundRect,0.050000X-0.450000X-0.325000X0.450000X-0.325000X0.450000X0.325000X-0.450000X0.325000X0*%
%ADD23RoundRect,0.243750X-0.243750X-0.456250X0.243750X-0.456250X0.243750X0.456250X-0.243750X0.456250X0*%
%ADD24RoundRect,0.250000X0.262500X0.450000X-0.262500X0.450000X-0.262500X-0.450000X0.262500X-0.450000X0*%
%ADD25RoundRect,0.250000X-0.475000X0.250000X-0.475000X-0.250000X0.475000X-0.250000X0.475000X0.250000X0*%
%ADD26RoundRect,0.102000X-2.250000X-1.500000X2.250000X-1.500000X2.250000X1.500000X-2.250000X1.500000X0*%
%ADD27RoundRect,0.250000X0.750000X0.400000X-0.750000X0.400000X-0.750000X-0.400000X0.750000X-0.400000X0*%
%ADD28RoundRect,0.250000X0.750000X0.750000X-0.750000X0.750000X-0.750000X-0.750000X0.750000X-0.750000X0*%
%ADD29C,2.000000*%
%ADD30RoundRect,0.250000X-0.450000X0.262500X-0.450000X-0.262500X0.450000X-0.262500X0.450000X0.262500X0*%
%ADD31R,5.000000X5.000000*%
%ADD32R,4.000000X4.000000*%
%ADD33RoundRect,0.243750X0.243750X0.456250X-0.243750X0.456250X-0.243750X-0.456250X0.243750X-0.456250X0*%
G04 APERTURE END LIST*
D10*
X4190909Y-9144000D02*
G75*
G02*
X-4190909Y-9144000I-4190909J0D01*
G01*
X-4190909Y-9144000D02*
G75*
G02*
X4190909Y-9144000I4190909J0D01*
G01*
D11*
%TO.C,D4*%
X-12954000Y11000500D03*
X-12954000Y12875500D03*
%TD*%
D12*
%TO.C,C5*%
X-9784000Y2794000D03*
X-11684000Y2794000D03*
%TD*%
D13*
%TO.C,R8*%
X11787500Y-2032000D03*
X13612500Y-2032000D03*
%TD*%
D14*
%TO.C,SW2*%
X-13754000Y-19322000D03*
X-13754000Y-15222000D03*
X-12154000Y-19322000D03*
X-12154000Y-15222000D03*
%TD*%
D15*
%TO.C,R6*%
X-14732000Y4675500D03*
X-14732000Y6500500D03*
%TD*%
D16*
%TO.C,C4*%
X7940000Y15494000D03*
X9840000Y15494000D03*
%TD*%
D14*
%TO.C,SW1*%
X12154000Y-19322000D03*
X12154000Y-15222000D03*
X13754000Y-19322000D03*
X13754000Y-15222000D03*
%TD*%
D17*
%TO.C,J3*%
X-8636000Y18288000D03*
D18*
X-11176000Y18288000D03*
D17*
X-6096000Y18288000D03*
X-3556000Y18288000D03*
X-1016000Y18288000D03*
X1524000Y18288000D03*
X4064000Y18288000D03*
X6604000Y18288000D03*
X9144000Y18288000D03*
X11684000Y18288000D03*
%TD*%
D19*
%TO.C,BZ3*%
X-4096000Y9652000D03*
X4604000Y9652000D03*
%TD*%
D13*
%TO.C,R1*%
X-11684000Y762000D03*
X-9859000Y762000D03*
%TD*%
D20*
%TO.C,U1*%
X-10027500Y6792000D03*
X-10027500Y5842000D03*
X-10027500Y4892000D03*
X-7752500Y4892000D03*
X-7752500Y5842000D03*
X-7752500Y6792000D03*
%TD*%
D21*
%TO.C,Q1*%
X-9123000Y15636000D03*
X-9123000Y14986000D03*
X-9123000Y14336000D03*
X-7133000Y14336000D03*
X-7133000Y14986000D03*
X-7133000Y15636000D03*
D22*
X-8128000Y15461000D03*
X-8128000Y14511000D03*
%TD*%
D18*
%TO.C,J2*%
X1527000Y9652000D03*
D17*
X-1013000Y9652000D03*
%TD*%
D23*
%TO.C,D1*%
X7952500Y13462000D03*
X9827500Y13462000D03*
%TD*%
D24*
%TO.C,R5*%
X-12295500Y-4826000D03*
X-14120500Y-4826000D03*
%TD*%
D16*
%TO.C,C3*%
X-11044000Y12700000D03*
X-9144000Y12700000D03*
%TD*%
D25*
%TO.C,C2*%
X-10922000Y10856000D03*
X-10922000Y8956000D03*
%TD*%
D26*
%TO.C,BZ2*%
X-7348000Y9652000D03*
X7852000Y9652000D03*
%TD*%
D13*
%TO.C,R4*%
X12041500Y-13208000D03*
X13866500Y-13208000D03*
%TD*%
D27*
%TO.C,RV1*%
X10700000Y628000D03*
D28*
X14700000Y1778000D03*
D27*
X10700000Y2928000D03*
%TD*%
D23*
%TO.C,D3*%
X12857000Y5588000D03*
X14732000Y5588000D03*
%TD*%
D29*
%TO.C,BZ1*%
X-2248000Y9652000D03*
X2752000Y9652000D03*
%TD*%
D30*
%TO.C,R7*%
X11430000Y10461000D03*
X11430000Y8636000D03*
%TD*%
D15*
%TO.C,R2*%
X-7903148Y1089441D03*
X-7903148Y2914441D03*
%TD*%
D31*
%TO.C,BT1*%
X12950000Y-9144000D03*
X-12950000Y-9144000D03*
D32*
X0Y-9144000D03*
%TD*%
D21*
%TO.C,Q2*%
X-13187000Y15636000D03*
X-13187000Y14986000D03*
X-13187000Y14336000D03*
X-11197000Y14336000D03*
X-11197000Y14986000D03*
X-11197000Y15636000D03*
D22*
X-12192000Y15461000D03*
X-12192000Y14511000D03*
%TD*%
D25*
%TO.C,C1*%
X-12446000Y6472000D03*
X-12446000Y4572000D03*
%TD*%
D15*
%TO.C,R3*%
X-13716000Y865500D03*
X-13716000Y2690500D03*
%TD*%
D33*
%TO.C,D2*%
X-12095000Y-13462000D03*
X-13970000Y-13462000D03*
%TD*%
M02*
