M48
; DRILL file {KiCad 9.0.4} date 2026-01-30T00:23:54-0800
; FORMAT={-:-/ absolute / inch / decimal}
; #@! TF.CreationDate,2026-01-30T00:23:54-08:00
; #@! TF.GenerationSoftware,Kicad,Pcbnew,9.0.4
; #@! TF.FileFunction,Plated,1,2,PTH
FMAT,2
INCH
; #@! TA.AperFunction,Plated,PTH,ViaDrill
T1C0.0157
; #@! TA.AperFunction,Plated,PTH,ComponentDrill
T2C0.0157
; #@! TA.AperFunction,Plated,PTH,ComponentDrill
T3C0.0354
; #@! TA.AperFunction,Plated,PTH,ComponentDrill
T4C0.0394
%
G90
G05
T1
X-0.605Y-0.19
X-0.605Y-0.53
X-0.5781Y0.1429
X-0.5514Y0.335
X-0.5415Y-0.675
X-0.54Y0.1059
X-0.54Y-0.04
X-0.51Y-0.36
X-0.495Y0.39
X-0.49Y0.305
X-0.4785Y-0.73
X-0.435Y0.265
X-0.4348Y0.5
X-0.43Y0.3526
X-0.42Y0.155
X-0.4093Y0.589
X-0.4Y0.625
X-0.36Y0.6402
X-0.2674Y0.2674
X-0.255Y0.19
X-0.255Y0.08
X-0.24Y0.6186
X-0.235Y0.5614
X-0.18Y0.475
X-0.125Y0.505
X-0.08Y0.505
X-0.04Y0.5
X0.27Y0.53
X0.425Y-0.08
X0.425Y-0.52
X0.45Y0.44
X0.51Y-0.365
T2
X-0.44Y0.72
X-0.34Y0.72
X-0.24Y0.72
X-0.14Y0.72
X-0.04Y0.72
X0.06Y0.72
X0.16Y0.72
X0.26Y0.72
X0.36Y0.72
X0.46Y0.72
T3
X-0.0885Y0.38
X0.1083Y0.38
T4
X-0.0399Y0.38
X0.0601Y0.38
M30
