%TF.GenerationSoftware,KiCad,Pcbnew,9.0.4*%
%TF.CreationDate,2026-01-30T00:23:57-08:00*%
%TF.ProjectId,MouseMinder,4d6f7573-654d-4696-9e64-65722e6b6963,rev?*%
%TF.SameCoordinates,Original*%
%TF.FileFunction,Copper,L1,Top*%
%TF.FilePolarity,Positive*%
%FSLAX46Y46*%
G04 Gerber Fmt 4.6, Leading zero omitted, Abs format (unit mm)*
G04 Created by KiCad (PCBNEW 9.0.4) date 2026-01-30 00:23:57*
%MOMM*%
%LPD*%
G01*
G04 APERTURE LIST*
G04 Aperture macros list*
%AMRoundRect*
0 Rectangle with rounded corners*
0 $1 Rounding radius*
0 $2 $3 $4 $5 $6 $7 $8 $9 X,Y pos of 4 corners*
0 Add a 4 corners polygon primitive as box body*
4,1,4,$2,$3,$4,$5,$6,$7,$8,$9,$2,$3,0*
0 Add four circle primitives for the rounded corners*
1,1,$1+$1,$2,$3*
1,1,$1+$1,$4,$5*
1,1,$1+$1,$6,$7*
1,1,$1+$1,$8,$9*
0 Add four rect primitives between the rounded corners*
20,1,$1+$1,$2,$3,$4,$5,0*
20,1,$1+$1,$4,$5,$6,$7,0*
20,1,$1+$1,$6,$7,$8,$9,0*
20,1,$1+$1,$8,$9,$2,$3,0*%
G04 Aperture macros list end*
%TA.AperFunction,SMDPad,CuDef*%
%ADD10RoundRect,0.243750X0.456250X-0.243750X0.456250X0.243750X-0.456250X0.243750X-0.456250X-0.243750X0*%
%TD*%
%TA.AperFunction,SMDPad,CuDef*%
%ADD11RoundRect,0.250000X0.250000X0.475000X-0.250000X0.475000X-0.250000X-0.475000X0.250000X-0.475000X0*%
%TD*%
%TA.AperFunction,SMDPad,CuDef*%
%ADD12RoundRect,0.250000X-0.262500X-0.450000X0.262500X-0.450000X0.262500X0.450000X-0.262500X0.450000X0*%
%TD*%
%TA.AperFunction,SMDPad,CuDef*%
%ADD13R,1.000000X0.900000*%
%TD*%
%TA.AperFunction,SMDPad,CuDef*%
%ADD14RoundRect,0.250000X0.450000X-0.262500X0.450000X0.262500X-0.450000X0.262500X-0.450000X-0.262500X0*%
%TD*%
%TA.AperFunction,SMDPad,CuDef*%
%ADD15RoundRect,0.250000X-0.250000X-0.475000X0.250000X-0.475000X0.250000X0.475000X-0.250000X0.475000X0*%
%TD*%
%TA.AperFunction,ComponentPad*%
%ADD16C,1.700000*%
%TD*%
%TA.AperFunction,ComponentPad*%
%ADD17R,1.700000X1.700000*%
%TD*%
%TA.AperFunction,SMDPad,CuDef*%
%ADD18R,1.300000X3.400000*%
%TD*%
%TA.AperFunction,SMDPad,CuDef*%
%ADD19RoundRect,0.150000X-0.512500X-0.150000X0.512500X-0.150000X0.512500X0.150000X-0.512500X0.150000X0*%
%TD*%
%TA.AperFunction,SMDPad,CuDef*%
%ADD20RoundRect,0.041250X-0.323750X-0.123750X0.323750X-0.123750X0.323750X0.123750X-0.323750X0.123750X0*%
%TD*%
%TA.AperFunction,SMDPad,CuDef*%
%ADD21R,0.900000X0.650000*%
%TD*%
%TA.AperFunction,SMDPad,CuDef*%
%ADD22RoundRect,0.243750X-0.243750X-0.456250X0.243750X-0.456250X0.243750X0.456250X-0.243750X0.456250X0*%
%TD*%
%TA.AperFunction,SMDPad,CuDef*%
%ADD23RoundRect,0.250000X0.262500X0.450000X-0.262500X0.450000X-0.262500X-0.450000X0.262500X-0.450000X0*%
%TD*%
%TA.AperFunction,SMDPad,CuDef*%
%ADD24RoundRect,0.250000X-0.475000X0.250000X-0.475000X-0.250000X0.475000X-0.250000X0.475000X0.250000X0*%
%TD*%
%TA.AperFunction,SMDPad,CuDef*%
%ADD25R,4.500000X3.000000*%
%TD*%
%TA.AperFunction,SMDPad,CuDef*%
%ADD26RoundRect,0.250000X0.750000X0.400000X-0.750000X0.400000X-0.750000X-0.400000X0.750000X-0.400000X0*%
%TD*%
%TA.AperFunction,SMDPad,CuDef*%
%ADD27RoundRect,0.250000X0.750000X0.750000X-0.750000X0.750000X-0.750000X-0.750000X0.750000X-0.750000X0*%
%TD*%
%TA.AperFunction,ComponentPad*%
%ADD28C,2.000000*%
%TD*%
%TA.AperFunction,SMDPad,CuDef*%
%ADD29RoundRect,0.250000X-0.450000X0.262500X-0.450000X-0.262500X0.450000X-0.262500X0.450000X0.262500X0*%
%TD*%
%TA.AperFunction,SMDPad,CuDef*%
%ADD30R,5.000000X5.000000*%
%TD*%
%TA.AperFunction,SMDPad,CuDef*%
%ADD31R,4.000000X4.000000*%
%TD*%
%TA.AperFunction,SMDPad,CuDef*%
%ADD32RoundRect,0.243750X0.243750X0.456250X-0.243750X0.456250X-0.243750X-0.456250X0.243750X-0.456250X0*%
%TD*%
%TA.AperFunction,ViaPad*%
%ADD33C,0.700000*%
%TD*%
%TA.AperFunction,Conductor*%
%ADD34C,0.254000*%
%TD*%
G04 APERTURE END LIST*
D10*
%TO.P,D4,1,K*%
%TO.N,PZ+*%
X-12954000Y11000500D03*
%TO.P,D4,2,A*%
%TO.N,Net-(D4-A)*%
X-12954000Y12875500D03*
%TD*%
D11*
%TO.P,C5,1*%
%TO.N,LATCHED_POWER*%
X-9784000Y2794000D03*
%TO.P,C5,2*%
%TO.N,GND*%
X-11684000Y2794000D03*
%TD*%
D12*
%TO.P,R8,1*%
%TO.N,NGATE*%
X11787500Y-2032000D03*
%TO.P,R8,2*%
%TO.N,GND*%
X13612500Y-2032000D03*
%TD*%
D13*
%TO.P,SW2,1,1*%
%TO.N,NGATE*%
X-13754000Y-19322000D03*
X-13754000Y-15222000D03*
%TO.P,SW2,2,2*%
%TO.N,+3V0*%
X-12154000Y-19322000D03*
X-12154000Y-15222000D03*
%TD*%
D14*
%TO.P,R6,1*%
%TO.N,+3V0*%
X-14732000Y4675500D03*
%TO.P,R6,2*%
%TO.N,PGATE*%
X-14732000Y6500500D03*
%TD*%
D15*
%TO.P,C4,1*%
%TO.N,PZ+*%
X7940000Y15494000D03*
%TO.P,C4,2*%
%TO.N,CD*%
X9840000Y15494000D03*
%TD*%
D13*
%TO.P,SW1,1,1*%
%TO.N,GND*%
X12154000Y-19322000D03*
X12154000Y-15222000D03*
%TO.P,SW1,2,2*%
%TO.N,Net-(R4-Pad2)*%
X13754000Y-19322000D03*
X13754000Y-15222000D03*
%TD*%
D16*
%TO.P,J3,2,Pin_2*%
%TO.N,LATCHED_POWER*%
X-8636000Y18288000D03*
D17*
%TO.P,J3,1,Pin_1*%
%TO.N,+3V0*%
X-11176000Y18288000D03*
D16*
%TO.P,J3,3,Pin_3*%
%TO.N,DATA*%
X-6096000Y18288000D03*
%TO.P,J3,4,Pin_4*%
%TO.N,TPICLK*%
X-3556000Y18288000D03*
%TO.P,J3,5,Pin_5*%
%TO.N,~{RST}*%
X-1016000Y18288000D03*
%TO.P,J3,6,Pin_6*%
%TO.N,NGATE*%
X1524000Y18288000D03*
%TO.P,J3,7,Pin_7*%
%TO.N,PGATE*%
X4064000Y18288000D03*
%TO.P,J3,8,Pin_8*%
%TO.N,PZ+*%
X6604000Y18288000D03*
%TO.P,J3,9,Pin_9*%
%TO.N,CD*%
X9144000Y18288000D03*
%TO.P,J3,10,Pin_10*%
%TO.N,GND*%
X11684000Y18288000D03*
%TD*%
D18*
%TO.P,BZ3,1,+*%
%TO.N,PZ+*%
X-4096000Y9652000D03*
%TO.P,BZ3,2,-*%
%TO.N,GND*%
X4604000Y9652000D03*
%TD*%
D12*
%TO.P,R1,1*%
%TO.N,LATCHED_POWER*%
X-11684000Y762000D03*
%TO.P,R1,2*%
%TO.N,~{RST}*%
X-9859000Y762000D03*
%TD*%
D19*
%TO.P,U1,1,PB0*%
%TO.N,DATA*%
X-10027500Y6792000D03*
%TO.P,U1,2,GND*%
%TO.N,GND*%
X-10027500Y5842000D03*
%TO.P,U1,3,PB1*%
%TO.N,TPICLK*%
X-10027500Y4892000D03*
%TO.P,U1,4,PB2*%
%TO.N,BUZZER*%
X-7752500Y4892000D03*
%TO.P,U1,5,VCC*%
%TO.N,LATCHED_POWER*%
X-7752500Y5842000D03*
%TO.P,U1,6,~{RESET}/PB3*%
%TO.N,~{RST}*%
X-7752500Y6792000D03*
%TD*%
D20*
%TO.P,Q1,1,SN*%
%TO.N,GND*%
X-9123000Y15636000D03*
%TO.P,Q1,2,GN*%
%TO.N,NGATE*%
X-9123000Y14986000D03*
%TO.P,Q1,3,DP*%
%TO.N,LATCHED_POWER*%
X-9123000Y14336000D03*
%TO.P,Q1,4,SP*%
%TO.N,+3V0*%
X-7133000Y14336000D03*
%TO.P,Q1,5,GP*%
%TO.N,PGATE*%
X-7133000Y14986000D03*
%TO.P,Q1,6,DN*%
X-7133000Y15636000D03*
D21*
%TO.P,Q1,7,DN*%
X-8128000Y15461000D03*
%TO.P,Q1,8,DP*%
%TO.N,LATCHED_POWER*%
X-8128000Y14511000D03*
%TD*%
D17*
%TO.P,J2,1,Pin_1*%
%TO.N,GND*%
X1527000Y9652000D03*
D16*
%TO.P,J2,2,Pin_2*%
%TO.N,PZ+*%
X-1013000Y9652000D03*
%TD*%
D22*
%TO.P,D1,1,K*%
%TO.N,NGATE*%
X7952500Y13462000D03*
%TO.P,D1,2,A*%
%TO.N,CD*%
X9827500Y13462000D03*
%TD*%
D23*
%TO.P,R5,1*%
%TO.N,LATCHED_POWER*%
X-12295500Y-4826000D03*
%TO.P,R5,2*%
%TO.N,Net-(D2-A)*%
X-14120500Y-4826000D03*
%TD*%
D15*
%TO.P,C3,1*%
%TO.N,LATCHED_POWER*%
X-11044000Y12700000D03*
%TO.P,C3,2*%
%TO.N,GND*%
X-9144000Y12700000D03*
%TD*%
D24*
%TO.P,C2,1*%
%TO.N,LATCHED_POWER*%
X-10922000Y10856000D03*
%TO.P,C2,2*%
%TO.N,GND*%
X-10922000Y8956000D03*
%TD*%
D25*
%TO.P,BZ2,1,+*%
%TO.N,PZ+*%
X-7348000Y9652000D03*
%TO.P,BZ2,2,-*%
%TO.N,GND*%
X7852000Y9652000D03*
%TD*%
D12*
%TO.P,R4,1*%
%TO.N,NGATE*%
X12041500Y-13208000D03*
%TO.P,R4,2*%
%TO.N,Net-(R4-Pad2)*%
X13866500Y-13208000D03*
%TD*%
D26*
%TO.P,RV1,1,1*%
%TO.N,NGATE*%
X10700000Y628000D03*
D27*
%TO.P,RV1,2,2*%
%TO.N,GND*%
X14700000Y1778000D03*
D26*
%TO.P,RV1,3,3*%
%TO.N,unconnected-(RV1-Pad3)*%
X10700000Y2928000D03*
%TD*%
D22*
%TO.P,D3,1,K*%
%TO.N,NGATE*%
X12857000Y5588000D03*
%TO.P,D3,2,A*%
%TO.N,GND*%
X14732000Y5588000D03*
%TD*%
D28*
%TO.P,BZ1,1,+*%
%TO.N,PZ+*%
X-2248000Y9652000D03*
%TO.P,BZ1,2,-*%
%TO.N,GND*%
X2752000Y9652000D03*
%TD*%
D29*
%TO.P,R7,1*%
%TO.N,PZ+*%
X11430000Y10461000D03*
%TO.P,R7,2*%
%TO.N,GND*%
X11430000Y8636000D03*
%TD*%
D14*
%TO.P,R2,1*%
%TO.N,LATCHED_POWER*%
X-7903148Y1089441D03*
%TO.P,R2,2*%
%TO.N,BUZZER*%
X-7903148Y2914441D03*
%TD*%
D30*
%TO.P,BT1,1,+*%
%TO.N,+3V0*%
X12950000Y-9144000D03*
X-12950000Y-9144000D03*
D31*
%TO.P,BT1,2,-*%
%TO.N,GND*%
X0Y-9144000D03*
%TD*%
D20*
%TO.P,Q2,1,SN*%
%TO.N,unconnected-(Q2A-SN-Pad1)*%
X-13187000Y15636000D03*
%TO.P,Q2,2,GN*%
%TO.N,unconnected-(Q2A-GN-Pad2)*%
X-13187000Y14986000D03*
%TO.P,Q2,3,DP*%
%TO.N,Net-(D4-A)*%
X-13187000Y14336000D03*
%TO.P,Q2,4,SP*%
%TO.N,LATCHED_POWER*%
X-11197000Y14336000D03*
%TO.P,Q2,5,GP*%
%TO.N,BUZZER*%
X-11197000Y14986000D03*
%TO.P,Q2,6,DN*%
%TO.N,unconnected-(Q2A-DN-Pad6)_1*%
X-11197000Y15636000D03*
D21*
%TO.P,Q2,7,DN*%
%TO.N,unconnected-(Q2A-DN-Pad6)*%
X-12192000Y15461000D03*
%TO.P,Q2,8,DP*%
%TO.N,Net-(D4-A)*%
X-12192000Y14511000D03*
%TD*%
D24*
%TO.P,C1,1*%
%TO.N,NGATE*%
X-12446000Y6472000D03*
%TO.P,C1,2*%
%TO.N,GND*%
X-12446000Y4572000D03*
%TD*%
D14*
%TO.P,R3,1*%
%TO.N,LATCHED_POWER*%
X-13716000Y865500D03*
%TO.P,R3,2*%
%TO.N,NGATE*%
X-13716000Y2690500D03*
%TD*%
D32*
%TO.P,D2,1,K*%
%TO.N,GND*%
X-12095000Y-13462000D03*
%TO.P,D2,2,A*%
%TO.N,Net-(D2-A)*%
X-13970000Y-13462000D03*
%TD*%
D33*
%TO.N,NGATE*%
X-12573000Y9906000D03*
%TO.N,GND*%
X-4572000Y12065000D03*
X-9144000Y16260000D03*
X-10922000Y8956000D03*
X-6477000Y2032000D03*
%TO.N,+3V0*%
X12954000Y-9271000D03*
X-12954000Y-9144000D03*
X-5969000Y14259000D03*
X-14682552Y3630125D03*
X-12154000Y-18542000D03*
%TO.N,~{RST}*%
X-1016000Y12700000D03*
X-6792000Y6792000D03*
%TO.N,TPICLK*%
X-2032000Y12827000D03*
X-10668000Y3937000D03*
%TO.N,PZ+*%
X11430000Y11176000D03*
%TO.N,NGATE*%
X-10160000Y15875000D03*
X10795000Y-13208000D03*
X-13716000Y2690500D03*
X-12446000Y7747000D03*
X-13754000Y-17145000D03*
X10795000Y-2032000D03*
X6858000Y13462000D03*
%TO.N,LATCHED_POWER*%
X-11044000Y12700000D03*
X-14005000Y8509000D03*
X-13716000Y-1016000D03*
%TO.N,Net-(D2-A)*%
X-15367000Y-13462000D03*
X-15367000Y-4826000D03*
%TO.N,PGATE*%
X-6096000Y15713000D03*
%TO.N,DATA*%
X-3175000Y12827000D03*
X-11049000Y6731000D03*
%TO.N,BUZZER*%
X-6477000Y4826000D03*
X-10396521Y14960836D03*
%TD*%
D34*
%TO.N,PGATE*%
X-14732000Y6500500D02*
X-14732000Y16002000D01*
%TO.N,+3V0*%
X-14732000Y3679573D02*
X-14682552Y3630125D01*
X-14732000Y4675500D02*
X-14732000Y3679573D01*
%TO.N,LATCHED_POWER*%
X-14224000Y8728000D02*
X-14005000Y8509000D01*
X-11806000Y11938000D02*
X-13843000Y11938000D01*
X-11044000Y12700000D02*
X-11806000Y11938000D01*
X-14224000Y11557000D02*
X-14224000Y8728000D01*
X-13843000Y11938000D02*
X-14224000Y11557000D01*
X-11032001Y14171001D02*
X-9287999Y14171001D01*
%TO.N,BUZZER*%
X-10421685Y14986000D02*
X-10396521Y14960836D01*
X-11197000Y14986000D02*
X-10421685Y14986000D01*
%TO.N,PGATE*%
X-7605000Y15621000D02*
X-6188000Y15621000D01*
%TO.N,NGATE*%
X-9487999Y14986000D02*
X-10160000Y15658001D01*
%TO.N,PGATE*%
X-7620000Y15636000D02*
X-7605000Y15621000D01*
%TO.N,+3V0*%
X-6046000Y14336000D02*
X-5969000Y14259000D01*
X-7133000Y14336000D02*
X-6046000Y14336000D01*
%TO.N,PGATE*%
X-6188000Y15621000D02*
X-6096000Y15713000D01*
%TO.N,LATCHED_POWER*%
X-9287999Y14171001D02*
X-9123000Y14336000D01*
%TO.N,NGATE*%
X-9123000Y14986000D02*
X-9487999Y14986000D01*
%TO.N,LATCHED_POWER*%
X-11197000Y14336000D02*
X-11032001Y14171001D01*
%TO.N,NGATE*%
X-10160000Y15658001D02*
X-10160000Y15875000D01*
X-12573000Y7874000D02*
X-12446000Y7747000D01*
X-12573000Y9906000D02*
X-12573000Y7874000D01*
%TO.N,PZ+*%
X-7729000Y10033000D02*
X-7348000Y9652000D01*
X-12649407Y11000500D02*
X-11681907Y10033000D01*
X-11681907Y10033000D02*
X-7729000Y10033000D01*
X-12954000Y11000500D02*
X-12649407Y11000500D01*
%TO.N,GND*%
X-8890000Y6317001D02*
X-9365001Y5842000D01*
X-10922000Y8956000D02*
X-9586000Y7620000D01*
X-9123000Y16239000D02*
X-9144000Y16260000D01*
X-10027500Y5842000D02*
X-11176000Y5842000D01*
X-11176000Y5842000D02*
X-12446000Y4572000D01*
X-12446000Y4572000D02*
X-12446000Y3556000D01*
X-12446000Y3556000D02*
X-11684000Y2794000D01*
X-9365001Y5842000D02*
X-10027500Y5842000D01*
X2752000Y9652000D02*
X7852000Y9652000D01*
X-8890000Y7239000D02*
X-8890000Y6317001D01*
X12154000Y-15222000D02*
X12154000Y-19322000D01*
X-9586000Y7620000D02*
X-9271000Y7620000D01*
X-9123000Y15636000D02*
X-9123000Y16239000D01*
X-9271000Y7620000D02*
X-8890000Y7239000D01*
%TO.N,+3V0*%
X12950000Y-9144000D02*
X12950000Y-9267000D01*
X-12950000Y-9144000D02*
X-12954000Y-9144000D01*
X-12154000Y-19322000D02*
X-12154000Y-18542000D01*
X-12154000Y-18542000D02*
X-12154000Y-15222000D01*
X12950000Y-9267000D02*
X12954000Y-9271000D01*
%TO.N,~{RST}*%
X-5588000Y5588000D02*
X-6792000Y6792000D01*
X-7752500Y6792000D02*
X-6792000Y6792000D01*
X-1016000Y18288000D02*
X-1016000Y12700000D01*
X-9859000Y762000D02*
X-8843000Y-254000D01*
X-8843000Y-254000D02*
X-7112000Y-254000D01*
X-7112000Y-254000D02*
X-5588000Y1270000D01*
X-5588000Y1270000D02*
X-5588000Y5588000D01*
%TO.N,TPICLK*%
X-3556000Y18288000D02*
X-2032000Y16764000D01*
X-10027500Y4892000D02*
X-10027500Y4577500D01*
X-10027500Y4577500D02*
X-10668000Y3937000D01*
X-2032000Y16764000D02*
X-2032000Y12827000D01*
%TO.N,PZ+*%
X1273000Y11938000D02*
X-1013000Y9652000D01*
X10668000Y11938000D02*
X1273000Y11938000D01*
X11430000Y11176000D02*
X10668000Y11938000D01*
X7940000Y15494000D02*
X7940000Y16952000D01*
X-1013000Y9652000D02*
X-7348000Y9652000D01*
X7940000Y16952000D02*
X6604000Y18288000D01*
X11430000Y10461000D02*
X11430000Y11176000D01*
%TO.N,NGATE*%
X10700000Y-1937000D02*
X10795000Y-2032000D01*
X6350000Y13462000D02*
X1524000Y18288000D01*
X10795000Y-2032000D02*
X11787500Y-2032000D01*
X12041500Y-13208000D02*
X10795000Y-13208000D01*
X-13754000Y-17145000D02*
X-13754000Y-19322000D01*
X12058000Y628000D02*
X10700000Y628000D01*
X-12446000Y6472000D02*
X-12446000Y7747000D01*
X-13754000Y-15222000D02*
X-13754000Y-17145000D01*
X12857000Y1427000D02*
X12058000Y628000D01*
X7952500Y13462000D02*
X6350000Y13462000D01*
X6858000Y13462000D02*
X7952500Y13462000D01*
X10700000Y628000D02*
X10700000Y-1937000D01*
X12857000Y5588000D02*
X12857000Y1427000D01*
%TO.N,LATCHED_POWER*%
X-9784000Y2794000D02*
X-11684000Y894000D01*
X-11684000Y894000D02*
X-11684000Y762000D01*
X-13716000Y-1016000D02*
X-13716000Y865500D01*
X-13716000Y865500D02*
X-11787500Y865500D01*
X-11197000Y12853000D02*
X-11044000Y12700000D01*
X-8890000Y3688000D02*
X-8890000Y5461000D01*
X-12295500Y-4826000D02*
X-12295500Y-2516500D01*
X-10943000Y12801000D02*
X-11044000Y12700000D01*
X-12295500Y-2516500D02*
X-11684000Y-1905000D01*
X-11197000Y14336000D02*
X-11197000Y12853000D01*
X-11044000Y12700000D02*
X-11044000Y10978000D01*
X-9784000Y2794000D02*
X-8890000Y3688000D01*
X-9377000Y14336000D02*
X-8557000Y14336000D01*
X-8890000Y5461000D02*
X-8509000Y5842000D01*
X-9784000Y2794000D02*
X-8109500Y1119500D01*
X-8109500Y1119500D02*
X-7874000Y1119500D01*
X-11684000Y-1905000D02*
X-11684000Y762000D01*
X-8557000Y14336000D02*
X-8382000Y14511000D01*
X-11787500Y865500D02*
X-11684000Y762000D01*
X-11044000Y10978000D02*
X-10922000Y10856000D01*
X-8509000Y5842000D02*
X-7752500Y5842000D01*
%TO.N,Net-(D2-A)*%
X-13970000Y-13462000D02*
X-15367000Y-13462000D01*
X-15367000Y-4826000D02*
X-14120500Y-4826000D01*
%TO.N,CD*%
X9144000Y18288000D02*
X9840000Y17592000D01*
X9840000Y13474500D02*
X9827500Y13462000D01*
X9840000Y17592000D02*
X9840000Y15494000D01*
X9840000Y15494000D02*
X9840000Y13474500D01*
%TO.N,PGATE*%
X-8128000Y16891000D02*
X-8128000Y15461000D01*
X-7133000Y15636000D02*
X-7133000Y14986000D01*
X-7133000Y15636000D02*
X-7620000Y15636000D01*
X-8255000Y17018000D02*
X-8128000Y16891000D01*
X-14732000Y16002000D02*
X-13970000Y16764000D01*
X-13970000Y16764000D02*
X-10160000Y16764000D01*
X-9906000Y17018000D02*
X-8255000Y17018000D01*
X-7953000Y15636000D02*
X-8128000Y15461000D01*
X-10160000Y16764000D02*
X-9906000Y17018000D01*
X-7620000Y15636000D02*
X-7953000Y15636000D01*
%TO.N,Net-(D4-A)*%
X-13187000Y13108500D02*
X-12954000Y12875500D01*
X-12113000Y14336000D02*
X-11938000Y14511000D01*
X-12933000Y12896500D02*
X-12954000Y12875500D01*
X-12367000Y14336000D02*
X-12192000Y14511000D01*
X-13187000Y14336000D02*
X-13187000Y13108500D01*
X-13187000Y14336000D02*
X-12367000Y14336000D01*
%TO.N,DATA*%
X-10988000Y6792000D02*
X-11049000Y6731000D01*
X-6096000Y18288000D02*
X-3175000Y15367000D01*
X-3175000Y15367000D02*
X-3175000Y12827000D01*
X-10027500Y6792000D02*
X-10988000Y6792000D01*
%TO.N,Net-(R4-Pad2)*%
X13866500Y-13208000D02*
X13866500Y-19209500D01*
X13866500Y-19209500D02*
X13754000Y-19322000D01*
%TO.N,BUZZER*%
X-7874000Y2944500D02*
X-7874000Y4770500D01*
X-7752500Y4892000D02*
X-6543000Y4892000D01*
X-6543000Y4892000D02*
X-6477000Y4826000D01*
X-7874000Y4770500D02*
X-7752500Y4892000D01*
%TD*%
%TA.AperFunction,Conductor*%
%TO.N,GND*%
G36*
X-6991801Y4390047D02*
G01*
X-6990097Y4390301D01*
X-6956187Y4380516D01*
X-6955708Y4380299D01*
X-6789164Y4303505D01*
X-6779207Y4300690D01*
X-6770815Y4296905D01*
X-6759803Y4291260D01*
X-6710328Y4262696D01*
X-6556584Y4221500D01*
X-6556581Y4221500D01*
X-6397419Y4221500D01*
X-6397416Y4221500D01*
X-6282108Y4252397D01*
X-6243671Y4262696D01*
X-6155499Y4313602D01*
X-6087599Y4330073D01*
X-6021572Y4307221D01*
X-5978382Y4252299D01*
X-5969500Y4206214D01*
X-5969500Y1479384D01*
X-5989185Y1412345D01*
X-6005818Y1391703D01*
X-6739835Y657687D01*
X-6801157Y624203D01*
X-6870849Y629187D01*
X-6926782Y671059D01*
X-6951199Y736523D01*
X-6950804Y758625D01*
X-6948648Y778669D01*
X-6948648Y1400192D01*
X-6948649Y1400198D01*
X-6955108Y1460285D01*
X-7005803Y1596202D01*
X-7005804Y1596205D01*
X-7005806Y1596208D01*
X-7053067Y1659342D01*
X-7092743Y1712345D01*
X-7150591Y1755648D01*
X-7208881Y1799283D01*
X-7344806Y1849981D01*
X-7404893Y1856441D01*
X-8255555Y1856440D01*
X-8285001Y1865086D01*
X-8314982Y1871608D01*
X-8319995Y1875360D01*
X-8322594Y1876124D01*
X-8343236Y1892759D01*
X-8386237Y1935760D01*
X-8419722Y1997083D01*
X-8414738Y2066775D01*
X-8372866Y2122708D01*
X-8307402Y2147125D01*
X-8298556Y2147441D01*
X-7404896Y2147441D01*
X-7404890Y2147442D01*
X-7344803Y2153901D01*
X-7208886Y2204596D01*
X-7208878Y2204601D01*
X-7092743Y2291536D01*
X-7005808Y2407671D01*
X-7005807Y2407673D01*
X-7005806Y2407674D01*
X-6955108Y2543599D01*
X-6955107Y2543600D01*
X-6955107Y2543603D01*
X-6948648Y2603669D01*
X-6948648Y3225192D01*
X-6948649Y3225198D01*
X-6955108Y3285285D01*
X-7005803Y3421202D01*
X-7005804Y3421205D01*
X-7005806Y3421208D01*
X-7037232Y3463189D01*
X-7092743Y3537345D01*
X-7151728Y3581499D01*
X-7208881Y3624283D01*
X-7344806Y3674981D01*
X-7359716Y3676584D01*
X-7381756Y3678954D01*
X-7446307Y3705692D01*
X-7486155Y3763085D01*
X-7492500Y3802243D01*
X-7492500Y4213500D01*
X-7472815Y4280539D01*
X-7420011Y4326294D01*
X-7368500Y4337500D01*
X-7208161Y4337500D01*
X-7113446Y4352501D01*
X-7113444Y4352501D01*
X-7063463Y4377968D01*
X-7061052Y4378420D01*
X-7059208Y4380034D01*
X-7026909Y4384832D01*
X-6994794Y4390863D01*
X-6991801Y4390047D01*
G37*
%TD.AperFunction*%
%TA.AperFunction,Conductor*%
G36*
X-11352781Y6188699D02*
G01*
X-11338878Y6190569D01*
X-11305106Y6180317D01*
X-11300270Y6178055D01*
X-11282328Y6167696D01*
X-11272489Y6165059D01*
X-11262592Y6160430D01*
X-11227079Y6129085D01*
X-11224112Y6131828D01*
X-11187295Y6092000D01*
X-10151500Y6092000D01*
X-10084461Y6072315D01*
X-10038706Y6019511D01*
X-10027500Y5968000D01*
X-10027500Y5716000D01*
X-10047185Y5648961D01*
X-10099989Y5603206D01*
X-10151500Y5592000D01*
X-11187295Y5592000D01*
X-11187295Y5591998D01*
X-11187100Y5589513D01*
X-11141281Y5431801D01*
X-11057685Y5290447D01*
X-11057678Y5290438D01*
X-10975034Y5207794D01*
X-10941549Y5146471D01*
X-10940242Y5100717D01*
X-10944500Y5073834D01*
X-10944500Y5073833D01*
X-10944500Y4710160D01*
X-10929499Y4615447D01*
X-10926483Y4606166D01*
X-10929318Y4605244D01*
X-10926083Y4586547D01*
X-10919789Y4553045D01*
X-10920138Y4552183D01*
X-10919980Y4551267D01*
X-10933239Y4519896D01*
X-10946059Y4488302D01*
X-10946939Y4487481D01*
X-10947182Y4486909D01*
X-10951249Y4483469D01*
X-10973185Y4463046D01*
X-10977837Y4459864D01*
X-10979267Y4459110D01*
X-10980627Y4458332D01*
X-10995326Y4449261D01*
X-10999679Y4444931D01*
X-11009063Y4438516D01*
X-11011535Y4437712D01*
X-11017050Y4433491D01*
X-11039172Y4420720D01*
X-11101574Y4358317D01*
X-11162895Y4324834D01*
X-11189254Y4322000D01*
X-12322000Y4322000D01*
X-12389039Y4341685D01*
X-12434794Y4394489D01*
X-12446000Y4446000D01*
X-12446000Y4698000D01*
X-12426315Y4765039D01*
X-12373511Y4810794D01*
X-12322000Y4822000D01*
X-11221001Y4822000D01*
X-11221001Y4871986D01*
X-11231494Y4974697D01*
X-11286641Y5141119D01*
X-11286643Y5141124D01*
X-11378684Y5290345D01*
X-11502654Y5414315D01*
X-11651875Y5506356D01*
X-11651882Y5506359D01*
X-11738081Y5534922D01*
X-11795526Y5574694D01*
X-11822350Y5639210D01*
X-11810035Y5707985D01*
X-11762493Y5759186D01*
X-11742416Y5768808D01*
X-11726736Y5774656D01*
X-11726730Y5774660D01*
X-11610595Y5861595D01*
X-11523660Y5977730D01*
X-11523655Y5977738D01*
X-11473827Y6111332D01*
X-11465419Y6122563D01*
X-11461344Y6135988D01*
X-11444897Y6149978D01*
X-11431956Y6167266D01*
X-11418809Y6172168D01*
X-11408125Y6181258D01*
X-11386725Y6184135D01*
X-11366491Y6191682D01*
X-11352781Y6188699D01*
G37*
%TD.AperFunction*%
%TA.AperFunction,Conductor*%
G36*
X3399837Y11536815D02*
G01*
X3445592Y11484011D01*
X3456087Y11419243D01*
X3454000Y11399841D01*
X3454000Y11171770D01*
X3434315Y11104731D01*
X3381511Y11058976D01*
X3312353Y11049032D01*
X3291682Y11053839D01*
X3103247Y11115065D01*
X3103248Y11115065D01*
X2870052Y11152000D01*
X2633948Y11152000D01*
X2400752Y11115065D01*
X2176197Y11042102D01*
X2124016Y11015515D01*
X2067721Y11002000D01*
X1777000Y11002000D01*
X1777000Y10085012D01*
X1719993Y10117925D01*
X1592826Y10152000D01*
X1461174Y10152000D01*
X1334007Y10117925D01*
X1277000Y10085012D01*
X1277000Y11002000D01*
X1175885Y11002000D01*
X1108846Y11021685D01*
X1063091Y11074489D01*
X1053147Y11143647D01*
X1082172Y11207203D01*
X1088204Y11213681D01*
X1394704Y11520181D01*
X1456027Y11553666D01*
X1482385Y11556500D01*
X3332798Y11556500D01*
X3399837Y11536815D01*
G37*
%TD.AperFunction*%
%TA.AperFunction,Conductor*%
G36*
X-8566461Y16616815D02*
G01*
X-8520706Y16564011D01*
X-8509500Y16512500D01*
X-8509500Y16409255D01*
X-8529185Y16342216D01*
X-8581989Y16296461D01*
X-8651147Y16286517D01*
X-8663884Y16289035D01*
X-8669899Y16290555D01*
X-8756872Y16300999D01*
X-8958000Y16300999D01*
X-8958000Y15760000D01*
X-8960550Y15751314D01*
X-8959262Y15742353D01*
X-8970240Y15718312D01*
X-8977685Y15692961D01*
X-8984525Y15687033D01*
X-8988287Y15678797D01*
X-9010521Y15664507D01*
X-9030489Y15647206D01*
X-9041003Y15644918D01*
X-9047065Y15641023D01*
X-9082000Y15636000D01*
X-9164000Y15636000D01*
X-9231039Y15655685D01*
X-9276794Y15708489D01*
X-9288000Y15760000D01*
X-9288000Y16300999D01*
X-9489121Y16300999D01*
X-9576104Y16290555D01*
X-9576106Y16290554D01*
X-9604112Y16279509D01*
X-9619205Y16278145D01*
X-9633048Y16271972D01*
X-9653296Y16275066D01*
X-9673698Y16273224D01*
X-9688220Y16280404D01*
X-9702116Y16282528D01*
X-9725106Y16298642D01*
X-9731637Y16301871D01*
X-9734538Y16304430D01*
X-9788828Y16358720D01*
X-9809820Y16370840D01*
X-9819115Y16379039D01*
X-9831400Y16398532D01*
X-9847300Y16415208D01*
X-9849675Y16427531D01*
X-9856367Y16438150D01*
X-9856162Y16461188D01*
X-9860524Y16483814D01*
X-9855859Y16495466D01*
X-9855748Y16508017D01*
X-9843119Y16527290D01*
X-9834556Y16548680D01*
X-9824767Y16559709D01*
X-9784297Y16600180D01*
X-9722975Y16633666D01*
X-9696615Y16636500D01*
X-8633500Y16636500D01*
X-8566461Y16616815D01*
G37*
%TD.AperFunction*%
%TA.AperFunction,Conductor*%
G36*
X16198539Y20045815D02*
G01*
X16244294Y19993011D01*
X16255500Y19941500D01*
X16255500Y3082523D01*
X16235815Y3015484D01*
X16183011Y2969729D01*
X16113853Y2959785D01*
X16050297Y2988810D01*
X16043819Y2994842D01*
X15918345Y3120315D01*
X15769124Y3212356D01*
X15769119Y3212358D01*
X15602697Y3267505D01*
X15602690Y3267506D01*
X15499980Y3277999D01*
X14950000Y3277999D01*
X14950000Y278000D01*
X15499971Y278000D01*
X15499987Y278001D01*
X15602697Y288494D01*
X15769119Y343641D01*
X15769124Y343643D01*
X15918345Y435684D01*
X16043819Y561158D01*
X16105142Y594643D01*
X16174834Y589659D01*
X16230767Y547787D01*
X16255184Y482323D01*
X16255500Y473477D01*
X16255500Y-19941500D01*
X16235815Y-20008539D01*
X16183011Y-20054294D01*
X16131500Y-20065500D01*
X14595962Y-20065500D01*
X14528923Y-20045815D01*
X14483168Y-19993011D01*
X14473224Y-19923853D01*
X14492857Y-19872613D01*
X14493734Y-19871301D01*
X14508500Y-19797067D01*
X14508499Y-18846934D01*
X14493734Y-18772699D01*
X14471116Y-18738849D01*
X14437484Y-18688515D01*
X14371773Y-18644609D01*
X14353301Y-18632266D01*
X14353299Y-18632265D01*
X14353294Y-18632263D01*
X14347803Y-18631171D01*
X14285894Y-18598783D01*
X14251322Y-18538066D01*
X14248000Y-18509555D01*
X14248000Y-16034443D01*
X14267685Y-15967404D01*
X14320489Y-15921649D01*
X14347811Y-15912825D01*
X14353301Y-15911734D01*
X14437484Y-15855484D01*
X14493734Y-15771301D01*
X14508500Y-15697067D01*
X14508499Y-14746934D01*
X14493734Y-14672699D01*
X14445155Y-14599996D01*
X14437484Y-14588515D01*
X14387019Y-14554796D01*
X14353301Y-14532266D01*
X14353299Y-14532265D01*
X14353294Y-14532263D01*
X14347803Y-14531171D01*
X14319681Y-14516458D01*
X14290797Y-14503268D01*
X14288938Y-14500375D01*
X14285894Y-14498783D01*
X14270188Y-14471200D01*
X14253023Y-14444490D01*
X14252361Y-14439892D01*
X14251322Y-14438066D01*
X14248000Y-14409555D01*
X14248000Y-14238159D01*
X14267685Y-14171120D01*
X14320489Y-14125365D01*
X14328667Y-14121977D01*
X14373264Y-14105343D01*
X14373263Y-14105343D01*
X14373267Y-14105342D01*
X14489404Y-14018404D01*
X14576342Y-13902267D01*
X14627040Y-13766342D01*
X14629800Y-13740664D01*
X14633499Y-13706271D01*
X14633499Y-13706264D01*
X14633500Y-13706255D01*
X14633499Y-12709746D01*
X14627040Y-12649658D01*
X14615347Y-12618307D01*
X14576344Y-12513738D01*
X14576343Y-12513737D01*
X14576342Y-12513733D01*
X14532707Y-12455443D01*
X14489404Y-12397595D01*
X14395223Y-12327094D01*
X14373267Y-12310658D01*
X14237342Y-12259960D01*
X14237338Y-12259959D01*
X14177263Y-12253500D01*
X13555748Y-12253500D01*
X13555742Y-12253501D01*
X13495655Y-12259960D01*
X13359738Y-12310655D01*
X13359730Y-12310660D01*
X13243595Y-12397595D01*
X13161324Y-12507500D01*
X13156658Y-12513733D01*
X13105960Y-12649658D01*
X13105959Y-12649662D01*
X13099500Y-12709728D01*
X13099500Y-13706251D01*
X13099501Y-13706257D01*
X13105960Y-13766344D01*
X13156655Y-13902261D01*
X13156656Y-13902264D01*
X13156658Y-13902267D01*
X13175599Y-13927569D01*
X13243595Y-14018404D01*
X13359733Y-14105342D01*
X13359735Y-14105343D01*
X13404333Y-14121977D01*
X13422059Y-14135246D01*
X13442203Y-14144446D01*
X13449484Y-14155776D01*
X13460267Y-14163848D01*
X13468005Y-14184596D01*
X13479977Y-14203224D01*
X13483128Y-14225140D01*
X13484684Y-14229312D01*
X13485000Y-14238159D01*
X13485000Y-14393500D01*
X13465315Y-14460539D01*
X13412511Y-14506294D01*
X13361001Y-14517500D01*
X13228935Y-14517500D01*
X13191872Y-14524872D01*
X13182950Y-14526646D01*
X13113360Y-14520418D01*
X13059496Y-14479340D01*
X13011190Y-14414812D01*
X13011187Y-14414809D01*
X12896093Y-14328649D01*
X12896086Y-14328645D01*
X12761379Y-14278403D01*
X12761372Y-14278401D01*
X12701844Y-14272000D01*
X12698200Y-14272000D01*
X12631161Y-14252315D01*
X12585406Y-14199511D01*
X12575462Y-14130353D01*
X12604487Y-14066797D01*
X12623890Y-14048732D01*
X12627366Y-14046130D01*
X12664404Y-14018404D01*
X12751342Y-13902267D01*
X12802040Y-13766342D01*
X12804800Y-13740664D01*
X12808499Y-13706271D01*
X12808499Y-13706264D01*
X12808500Y-13706255D01*
X12808499Y-12709746D01*
X12802040Y-12649658D01*
X12790347Y-12618307D01*
X12751344Y-12513738D01*
X12751343Y-12513737D01*
X12751342Y-12513733D01*
X12707707Y-12455443D01*
X12664404Y-12397595D01*
X12570223Y-12327094D01*
X12548267Y-12310658D01*
X12412342Y-12259960D01*
X12412338Y-12259959D01*
X12352263Y-12253500D01*
X11730748Y-12253500D01*
X11730742Y-12253501D01*
X11670655Y-12259960D01*
X11534738Y-12310655D01*
X11534730Y-12310660D01*
X11418595Y-12397595D01*
X11331660Y-12513730D01*
X11331655Y-12513738D01*
X11295191Y-12611502D01*
X11290658Y-12617556D01*
X11289228Y-12624982D01*
X11270013Y-12645136D01*
X11253320Y-12667436D01*
X11246232Y-12670079D01*
X11241015Y-12675552D01*
X11213950Y-12682119D01*
X11187855Y-12691852D01*
X11178769Y-12690656D01*
X11173116Y-12692028D01*
X11138460Y-12685350D01*
X11050518Y-12654918D01*
X11029076Y-12645128D01*
X11028331Y-12644698D01*
X11028332Y-12644698D01*
X11028328Y-12644696D01*
X11028321Y-12644694D01*
X11000012Y-12637108D01*
X10991558Y-12634516D01*
X10960786Y-12623867D01*
X10944139Y-12618726D01*
X10944132Y-12618724D01*
X10942627Y-12618314D01*
X10942617Y-12618311D01*
X10942600Y-12618307D01*
X10925744Y-12614315D01*
X10918662Y-12613478D01*
X10918753Y-12612705D01*
X10899235Y-12610105D01*
X10884366Y-12606121D01*
X10874584Y-12603500D01*
X10715416Y-12603500D01*
X10635245Y-12624982D01*
X10561670Y-12644696D01*
X10561669Y-12644697D01*
X10423831Y-12724277D01*
X10423826Y-12724281D01*
X10311281Y-12836826D01*
X10311277Y-12836831D01*
X10231697Y-12974669D01*
X10231696Y-12974670D01*
X10211098Y-13051544D01*
X10190500Y-13128416D01*
X10190500Y-13287584D01*
X10215911Y-13382418D01*
X10231696Y-13441329D01*
X10231697Y-13441330D01*
X10311277Y-13579168D01*
X10311279Y-13579171D01*
X10311280Y-13579172D01*
X10423828Y-13691720D01*
X10423829Y-13691721D01*
X10423831Y-13691722D01*
X10492750Y-13731512D01*
X10561672Y-13771304D01*
X10715416Y-13812500D01*
X10715419Y-13812500D01*
X10874582Y-13812500D01*
X10874584Y-13812500D01*
X10939844Y-13795013D01*
X10960790Y-13792130D01*
X10995736Y-13780036D01*
X11028328Y-13771304D01*
X11029073Y-13770873D01*
X11050521Y-13761078D01*
X11138459Y-13730647D01*
X11208250Y-13727327D01*
X11268757Y-13762265D01*
X11295190Y-13804495D01*
X11305887Y-13833173D01*
X11331658Y-13902267D01*
X11350599Y-13927569D01*
X11418594Y-14018402D01*
X11418595Y-14018402D01*
X11418596Y-14018404D01*
X11511193Y-14087720D01*
X11553064Y-14143654D01*
X11558049Y-14213345D01*
X11524565Y-14274669D01*
X11480217Y-14303170D01*
X11411911Y-14328646D01*
X11411906Y-14328649D01*
X11296812Y-14414809D01*
X11296809Y-14414812D01*
X11210649Y-14529906D01*
X11210645Y-14529913D01*
X11160403Y-14664620D01*
X11160401Y-14664627D01*
X11154000Y-14724155D01*
X11154000Y-14972000D01*
X12030000Y-14972000D01*
X12097039Y-14991685D01*
X12142794Y-15044489D01*
X12154000Y-15096000D01*
X12154000Y-15222000D01*
X12280000Y-15222000D01*
X12347039Y-15241685D01*
X12392794Y-15294489D01*
X12404000Y-15346000D01*
X12404000Y-16172000D01*
X12701828Y-16172000D01*
X12701844Y-16171999D01*
X12761372Y-16165598D01*
X12761379Y-16165596D01*
X12896086Y-16115354D01*
X12896093Y-16115350D01*
X13011187Y-16029190D01*
X13011188Y-16029189D01*
X13059494Y-15964661D01*
X13066018Y-15959776D01*
X13069821Y-15952567D01*
X13093578Y-15939145D01*
X13115427Y-15922789D01*
X13125123Y-15921323D01*
X13130654Y-15918199D01*
X13147604Y-15917925D01*
X13165818Y-15915172D01*
X13174459Y-15915664D01*
X13228933Y-15926500D01*
X13364539Y-15926499D01*
X13368057Y-15926700D01*
X13397767Y-15937294D01*
X13428039Y-15946183D01*
X13430430Y-15948942D01*
X13433867Y-15950168D01*
X13453132Y-15975142D01*
X13473794Y-15998987D01*
X13474684Y-16003080D01*
X13476543Y-16005490D01*
X13477416Y-16015639D01*
X13485000Y-16050499D01*
X13485000Y-18493500D01*
X13465315Y-18560539D01*
X13412511Y-18606294D01*
X13361001Y-18617500D01*
X13228935Y-18617500D01*
X13191872Y-18624872D01*
X13182950Y-18626646D01*
X13113360Y-18620418D01*
X13059496Y-18579340D01*
X13011190Y-18514812D01*
X13011187Y-18514809D01*
X12896093Y-18428649D01*
X12896086Y-18428645D01*
X12761379Y-18378403D01*
X12761372Y-18378401D01*
X12701844Y-18372000D01*
X12404000Y-18372000D01*
X12404000Y-19198000D01*
X12384315Y-19265039D01*
X12331511Y-19310794D01*
X12280000Y-19322000D01*
X12154000Y-19322000D01*
X12154000Y-19448000D01*
X12134315Y-19515039D01*
X12081511Y-19560794D01*
X12030000Y-19572000D01*
X11154000Y-19572000D01*
X11154000Y-19819844D01*
X11160401Y-19879372D01*
X11160402Y-19879376D01*
X11167411Y-19898168D01*
X11172394Y-19967860D01*
X11138908Y-20029183D01*
X11077584Y-20062667D01*
X11051228Y-20065500D01*
X-11312038Y-20065500D01*
X-11379077Y-20045815D01*
X-11424832Y-19993011D01*
X-11434776Y-19923853D01*
X-11415142Y-19872613D01*
X-11414266Y-19871301D01*
X-11414265Y-19871300D01*
X-11414265Y-19871299D01*
X-11414264Y-19871296D01*
X-11399500Y-19797071D01*
X-11399500Y-18846937D01*
X-11399639Y-18846237D01*
X-11399877Y-18845041D01*
X-11399877Y-18845040D01*
X-11404031Y-18824155D01*
X11154000Y-18824155D01*
X11154000Y-19072000D01*
X11904000Y-19072000D01*
X11904000Y-18372000D01*
X11606155Y-18372000D01*
X11546627Y-18378401D01*
X11546620Y-18378403D01*
X11411913Y-18428645D01*
X11411906Y-18428649D01*
X11296812Y-18514809D01*
X11296809Y-18514812D01*
X11210649Y-18629906D01*
X11210645Y-18629913D01*
X11160403Y-18764620D01*
X11160401Y-18764627D01*
X11154000Y-18824155D01*
X-11404031Y-18824155D01*
X-11414266Y-18772699D01*
X-11414266Y-18772698D01*
X-11470515Y-18688515D01*
X-11494393Y-18672561D01*
X-11495433Y-18671315D01*
X-11496969Y-18670792D01*
X-11517751Y-18644609D01*
X-11539197Y-18618948D01*
X-11539723Y-18616929D01*
X-11540408Y-18616067D01*
X-11541772Y-18609073D01*
X-11548884Y-18581805D01*
X-11549500Y-18575648D01*
X-11549500Y-18462416D01*
X-11566984Y-18397163D01*
X-11569869Y-18376210D01*
X-11571326Y-18372000D01*
X-11580521Y-18345426D01*
X-11580520Y-18345425D01*
X-11581970Y-18341234D01*
X-11590696Y-18308672D01*
X-11597043Y-18297677D01*
X-11600918Y-18286481D01*
X-11765682Y-17810347D01*
X-11772500Y-17769797D01*
X-11772500Y-16050499D01*
X-11752815Y-15983460D01*
X-11700011Y-15937705D01*
X-11648500Y-15926499D01*
X-11628936Y-15926499D01*
X-11628934Y-15926499D01*
X-11554699Y-15911734D01*
X-11526765Y-15893068D01*
X-11470515Y-15855484D01*
X-11427164Y-15790604D01*
X-11414266Y-15771301D01*
X-11414265Y-15771299D01*
X-11414264Y-15771296D01*
X-11404030Y-15719844D01*
X11154000Y-15719844D01*
X11160401Y-15779372D01*
X11160403Y-15779379D01*
X11210645Y-15914086D01*
X11210649Y-15914093D01*
X11296809Y-16029187D01*
X11296812Y-16029190D01*
X11411906Y-16115350D01*
X11411913Y-16115354D01*
X11546620Y-16165596D01*
X11546627Y-16165598D01*
X11606155Y-16171999D01*
X11606172Y-16172000D01*
X11904000Y-16172000D01*
X11904000Y-15472000D01*
X11154000Y-15472000D01*
X11154000Y-15719844D01*
X-11404030Y-15719844D01*
X-11399500Y-15697071D01*
X-11399500Y-14746936D01*
X-11414266Y-14672698D01*
X-11418940Y-14661416D01*
X-11417912Y-14660990D01*
X-11435105Y-14606074D01*
X-11416618Y-14538695D01*
X-11391812Y-14510842D01*
X-11391917Y-14510738D01*
X-11390116Y-14508937D01*
X-11388033Y-14506598D01*
X-11386809Y-14505630D01*
X-11263870Y-14382691D01*
X-11172596Y-14234714D01*
X-11172594Y-14234709D01*
X-11117907Y-14069673D01*
X-11107500Y-13967815D01*
X-11107500Y-13712000D01*
X-11971000Y-13712000D01*
X-12038039Y-13692315D01*
X-12083794Y-13639511D01*
X-12095000Y-13588000D01*
X-12095000Y-13462000D01*
X-12221000Y-13462000D01*
X-12288039Y-13442315D01*
X-12333794Y-13389511D01*
X-12345000Y-13338000D01*
X-12345000Y-13212000D01*
X-11845000Y-13212000D01*
X-11107500Y-13212000D01*
X-11107500Y-12956184D01*
X-11117907Y-12854326D01*
X-11172594Y-12689290D01*
X-11172596Y-12689285D01*
X-11263870Y-12541308D01*
X-11386808Y-12418370D01*
X-11534785Y-12327096D01*
X-11534790Y-12327094D01*
X-11699826Y-12272407D01*
X-11801684Y-12262000D01*
X-11845000Y-12262000D01*
X-11845000Y-13212000D01*
X-12345000Y-13212000D01*
X-12345000Y-12262000D01*
X-12388315Y-12262000D01*
X-12490173Y-12272407D01*
X-12655209Y-12327094D01*
X-12655214Y-12327096D01*
X-12803191Y-12418370D01*
X-12926129Y-12541308D01*
X-13017403Y-12689285D01*
X-13017406Y-12689292D01*
X-13045442Y-12773900D01*
X-13085214Y-12831345D01*
X-13149730Y-12858169D01*
X-13218506Y-12845854D01*
X-13269706Y-12798312D01*
X-13279328Y-12778235D01*
X-13284445Y-12764514D01*
X-13284449Y-12764508D01*
X-13370311Y-12649811D01*
X-13485008Y-12563949D01*
X-13485011Y-12563947D01*
X-13619245Y-12513881D01*
X-13619244Y-12513881D01*
X-13619248Y-12513880D01*
X-13619250Y-12513880D01*
X-13678591Y-12507500D01*
X-13678599Y-12507500D01*
X-13678600Y-12507500D01*
X-14261406Y-12507500D01*
X-14261412Y-12507501D01*
X-14320750Y-12513879D01*
X-14454988Y-12563947D01*
X-14454991Y-12563949D01*
X-14569689Y-12649811D01*
X-14655550Y-12764508D01*
X-14655552Y-12764511D01*
X-14705619Y-12898747D01*
X-14706963Y-12904434D01*
X-14741533Y-12965152D01*
X-14803442Y-12997541D01*
X-14868191Y-12993107D01*
X-15111480Y-12908918D01*
X-15122676Y-12905043D01*
X-15133672Y-12898696D01*
X-15166223Y-12889973D01*
X-15170403Y-12888527D01*
X-15170419Y-12888523D01*
X-15201218Y-12877866D01*
X-15217853Y-12872727D01*
X-15219383Y-12872310D01*
X-15236253Y-12868315D01*
X-15243339Y-12867478D01*
X-15243247Y-12866705D01*
X-15262762Y-12864105D01*
X-15287414Y-12857500D01*
X-15287416Y-12857500D01*
X-15446584Y-12857500D01*
X-15561892Y-12888397D01*
X-15600329Y-12898696D01*
X-15600330Y-12898697D01*
X-15738168Y-12978277D01*
X-15738171Y-12978279D01*
X-15738172Y-12978280D01*
X-15850720Y-13090828D01*
X-15930304Y-13228672D01*
X-15971500Y-13382416D01*
X-15971500Y-13541584D01*
X-15930304Y-13695328D01*
X-15850720Y-13833172D01*
X-15738172Y-13945720D01*
X-15600328Y-14025304D01*
X-15446584Y-14066500D01*
X-15446581Y-14066500D01*
X-15287417Y-14066500D01*
X-15287416Y-14066500D01*
X-15257587Y-14058507D01*
X-15229649Y-14051021D01*
X-15229650Y-14051021D01*
X-15222156Y-14049013D01*
X-15201209Y-14046130D01*
X-15166259Y-14034035D01*
X-15133672Y-14025304D01*
X-15132927Y-14024874D01*
X-15111478Y-14015078D01*
X-14868189Y-13930889D01*
X-14798402Y-13927569D01*
X-14737895Y-13962507D01*
X-14706965Y-14019559D01*
X-14705620Y-14025246D01*
X-14705620Y-14025250D01*
X-14655551Y-14159491D01*
X-14569689Y-14274189D01*
X-14454991Y-14360051D01*
X-14451347Y-14361410D01*
X-14448231Y-14363741D01*
X-14447206Y-14364302D01*
X-14447286Y-14364449D01*
X-14395413Y-14403275D01*
X-14370990Y-14468737D01*
X-14385835Y-14537011D01*
X-14425780Y-14580695D01*
X-14437484Y-14588515D01*
X-14445155Y-14599996D01*
X-14493734Y-14672699D01*
X-14508500Y-14746933D01*
X-14508499Y-15697066D01*
X-14493734Y-15771301D01*
X-14437484Y-15855484D01*
X-14353301Y-15911734D01*
X-14279067Y-15926500D01*
X-14259502Y-15926499D01*
X-14192465Y-15946181D01*
X-14146708Y-15998983D01*
X-14135500Y-16050499D01*
X-14135500Y-16372798D01*
X-14142318Y-16413348D01*
X-14310952Y-16900670D01*
X-14317304Y-16911672D01*
X-14326035Y-16944258D01*
X-14338130Y-16979209D01*
X-14343258Y-16995805D01*
X-14343263Y-16995826D01*
X-14343264Y-16995827D01*
X-14343672Y-16997324D01*
X-14347684Y-17014258D01*
X-14348523Y-17021348D01*
X-14349299Y-17021256D01*
X-14351896Y-17040771D01*
X-14358500Y-17065416D01*
X-14358500Y-17224584D01*
X-14341013Y-17289844D01*
X-14338130Y-17310790D01*
X-14326036Y-17345737D01*
X-14317304Y-17378328D01*
X-14316877Y-17379066D01*
X-14307077Y-17400522D01*
X-14179293Y-17769798D01*
X-14142318Y-17876650D01*
X-14135500Y-17917200D01*
X-14135500Y-18493500D01*
X-14155185Y-18560539D01*
X-14207989Y-18606294D01*
X-14259495Y-18617500D01*
X-14279062Y-18617500D01*
X-14353301Y-18632266D01*
X-14437484Y-18688515D01*
X-14450898Y-18708591D01*
X-14493734Y-18772699D01*
X-14508500Y-18846933D01*
X-14508499Y-19797066D01*
X-14493734Y-19871301D01*
X-14492857Y-19872612D01*
X-14491827Y-19875903D01*
X-14489060Y-19882584D01*
X-14489658Y-19882831D01*
X-14471982Y-19939289D01*
X-14490468Y-20006669D01*
X-14542448Y-20053358D01*
X-14595962Y-20065500D01*
X-16131500Y-20065500D01*
X-16198539Y-20045815D01*
X-16244294Y-19993011D01*
X-16255500Y-19941500D01*
X-16255500Y-6618933D01*
X-15704500Y-6618933D01*
X-15704499Y-11669066D01*
X-15689734Y-11743301D01*
X-15633484Y-11827484D01*
X-15549301Y-11883734D01*
X-15475067Y-11898500D01*
X-10424934Y-11898499D01*
X-10350699Y-11883734D01*
X-10322765Y-11865068D01*
X-10266515Y-11827484D01*
X-10232796Y-11777019D01*
X-10210266Y-11743301D01*
X-10210265Y-11743299D01*
X-10210264Y-11743296D01*
X-10195500Y-11669071D01*
X-10195500Y-11669068D01*
X-10195500Y-11191827D01*
X-2500000Y-11191827D01*
X-2499999Y-11191844D01*
X-2493598Y-11251372D01*
X-2493596Y-11251379D01*
X-2443354Y-11386086D01*
X-2443350Y-11386093D01*
X-2357190Y-11501187D01*
X-2357187Y-11501190D01*
X-2242093Y-11587350D01*
X-2242086Y-11587354D01*
X-2107379Y-11637596D01*
X-2107372Y-11637598D01*
X-2047844Y-11643999D01*
X-2047828Y-11644000D01*
X-250000Y-11644000D01*
X250000Y-11644000D01*
X2047828Y-11644000D01*
X2047844Y-11643999D01*
X2107372Y-11637598D01*
X2107379Y-11637596D01*
X2242086Y-11587354D01*
X2242093Y-11587350D01*
X2357187Y-11501190D01*
X2357190Y-11501187D01*
X2443350Y-11386093D01*
X2443354Y-11386086D01*
X2493596Y-11251379D01*
X2493598Y-11251372D01*
X2499999Y-11191844D01*
X2500000Y-11191827D01*
X2500000Y-9394000D01*
X250000Y-9394000D01*
X250000Y-11644000D01*
X-250000Y-11644000D01*
X-250000Y-9394000D01*
X-2500000Y-9394000D01*
X-2500000Y-11191827D01*
X-10195500Y-11191827D01*
X-10195501Y-7096172D01*
X-2500000Y-7096172D01*
X-2500000Y-8894000D01*
X-250000Y-8894000D01*
X250000Y-8894000D01*
X2500000Y-8894000D01*
X2500000Y-7096172D01*
X2499999Y-7096155D01*
X2493598Y-7036627D01*
X2493596Y-7036620D01*
X2443354Y-6901913D01*
X2443350Y-6901906D01*
X2357190Y-6786812D01*
X2257398Y-6712107D01*
X2242089Y-6700647D01*
X2242086Y-6700645D01*
X2107379Y-6650403D01*
X2107372Y-6650401D01*
X2047844Y-6644000D01*
X250000Y-6644000D01*
X250000Y-8894000D01*
X-250000Y-8894000D01*
X-250000Y-6644000D01*
X-2047844Y-6644000D01*
X-2107372Y-6650401D01*
X-2107379Y-6650403D01*
X-2242086Y-6700645D01*
X-2242093Y-6700649D01*
X-2357187Y-6786809D01*
X-2357190Y-6786812D01*
X-2443350Y-6901906D01*
X-2443354Y-6901913D01*
X-2493596Y-7036620D01*
X-2493598Y-7036627D01*
X-2499999Y-7096155D01*
X-2500000Y-7096172D01*
X-10195501Y-7096172D01*
X-10195501Y-6618934D01*
X-10195502Y-6618928D01*
X10195500Y-6618928D01*
X10195500Y-11669063D01*
X10210266Y-11743301D01*
X10266515Y-11827484D01*
X10300234Y-11850014D01*
X10350699Y-11883734D01*
X10350702Y-11883734D01*
X10350703Y-11883735D01*
X10375666Y-11888700D01*
X10424933Y-11898500D01*
X15475066Y-11898499D01*
X15549301Y-11883734D01*
X15633484Y-11827484D01*
X15689734Y-11743301D01*
X15704500Y-11669067D01*
X15704499Y-6618934D01*
X15689734Y-6544699D01*
X15671068Y-6516765D01*
X15633484Y-6460515D01*
X15583019Y-6426796D01*
X15549301Y-6404266D01*
X15549299Y-6404265D01*
X15549296Y-6404264D01*
X15475069Y-6389500D01*
X10424936Y-6389500D01*
X10350698Y-6404266D01*
X10266515Y-6460515D01*
X10210266Y-6544699D01*
X10210264Y-6544703D01*
X10195500Y-6618928D01*
X-10195502Y-6618928D01*
X-10210266Y-6544699D01*
X-10210265Y-6544699D01*
X-10210266Y-6544698D01*
X-10266515Y-6460515D01*
X-10350699Y-6404266D01*
X-10350703Y-6404264D01*
X-10424930Y-6389500D01*
X-15475063Y-6389500D01*
X-15549301Y-6404266D01*
X-15633484Y-6460515D01*
X-15656014Y-6494234D01*
X-15689734Y-6544699D01*
X-15704500Y-6618933D01*
X-16255500Y-6618933D01*
X-16255500Y-4746416D01*
X-15971500Y-4746416D01*
X-15971500Y-4905584D01*
X-15930304Y-5059328D01*
X-15850720Y-5197172D01*
X-15738172Y-5309720D01*
X-15600328Y-5389304D01*
X-15446584Y-5430500D01*
X-15446581Y-5430500D01*
X-15287417Y-5430500D01*
X-15287416Y-5430500D01*
X-15257546Y-5422496D01*
X-15229649Y-5415021D01*
X-15229650Y-5415021D01*
X-15222156Y-5413013D01*
X-15201209Y-5410130D01*
X-15166259Y-5398035D01*
X-15133672Y-5389304D01*
X-15132927Y-5388874D01*
X-15111474Y-5379077D01*
X-15023540Y-5348648D01*
X-14953749Y-5345327D01*
X-14893242Y-5380265D01*
X-14866810Y-5422491D01*
X-14830342Y-5520267D01*
X-14743404Y-5636404D01*
X-14627267Y-5723342D01*
X-14491342Y-5774040D01*
X-14431255Y-5780500D01*
X-13809746Y-5780499D01*
X-13749658Y-5774040D01*
X-13613733Y-5723342D01*
X-13555443Y-5679707D01*
X-13497595Y-5636404D01*
X-13439747Y-5559126D01*
X-13410658Y-5520267D01*
X-13359960Y-5384342D01*
X-13359810Y-5382951D01*
X-13353500Y-5324271D01*
X-13353500Y-4327748D01*
X-13353501Y-4327742D01*
X-13359960Y-4267655D01*
X-13410655Y-4131738D01*
X-13410660Y-4131730D01*
X-13497595Y-4015595D01*
X-13613730Y-3928660D01*
X-13613732Y-3928659D01*
X-13613731Y-3928659D01*
X-13613733Y-3928658D01*
X-13749658Y-3877960D01*
X-13749659Y-3877959D01*
X-13749661Y-3877959D01*
X-13809736Y-3871500D01*
X-14431251Y-3871500D01*
X-14431257Y-3871501D01*
X-14491344Y-3877960D01*
X-14627261Y-3928655D01*
X-14627264Y-3928656D01*
X-14627267Y-3928658D01*
X-14666126Y-3957747D01*
X-14743404Y-4015595D01*
X-14786707Y-4073443D01*
X-14830342Y-4131733D01*
X-14866809Y-4229505D01*
X-14871340Y-4235557D01*
X-14872771Y-4242983D01*
X-14891988Y-4263139D01*
X-14908679Y-4285435D01*
X-14915764Y-4288077D01*
X-14920984Y-4293552D01*
X-14948049Y-4300119D01*
X-14974143Y-4309852D01*
X-14983229Y-4308656D01*
X-14988883Y-4310028D01*
X-15023540Y-4303350D01*
X-15111481Y-4272918D01*
X-15132913Y-4263133D01*
X-15133663Y-4262699D01*
X-15133671Y-4262696D01*
X-15161970Y-4255113D01*
X-15170419Y-4252523D01*
X-15201218Y-4241866D01*
X-15217853Y-4236727D01*
X-15219383Y-4236310D01*
X-15236253Y-4232315D01*
X-15243339Y-4231478D01*
X-15243247Y-4230705D01*
X-15262762Y-4228105D01*
X-15287414Y-4221500D01*
X-15287416Y-4221500D01*
X-15446584Y-4221500D01*
X-15561892Y-4252397D01*
X-15600329Y-4262696D01*
X-15600330Y-4262697D01*
X-15738168Y-4342277D01*
X-15738171Y-4342279D01*
X-15738172Y-4342280D01*
X-15850720Y-4454828D01*
X-15930304Y-4592672D01*
X-15971500Y-4746416D01*
X-16255500Y-4746416D01*
X-16255500Y6811255D01*
X-15686500Y6811255D01*
X-15686499Y6189746D01*
X-15680040Y6129658D01*
X-15680039Y6129655D01*
X-15660119Y6076247D01*
X-15629342Y5993733D01*
X-15589897Y5941040D01*
X-15542404Y5877595D01*
X-15468463Y5822245D01*
X-15426267Y5790658D01*
X-15290342Y5739960D01*
X-15290338Y5739959D01*
X-15230262Y5733500D01*
X-15230255Y5733500D01*
X-14233748Y5733500D01*
X-14233742Y5733501D01*
X-14173655Y5739960D01*
X-14037738Y5790655D01*
X-14037730Y5790660D01*
X-13921595Y5877595D01*
X-13834660Y5993730D01*
X-13834659Y5993732D01*
X-13834658Y5993733D01*
X-13783960Y6129658D01*
X-13783959Y6129659D01*
X-13783959Y6129662D01*
X-13777500Y6189728D01*
X-13777500Y6811251D01*
X-13777501Y6811257D01*
X-13783960Y6871344D01*
X-13834655Y7007261D01*
X-13834656Y7007264D01*
X-13834658Y7007267D01*
X-13894956Y7087817D01*
X-13921595Y7123404D01*
X-14000845Y7182728D01*
X-14037733Y7210342D01*
X-14173658Y7261040D01*
X-14190495Y7262850D01*
X-14237048Y7267856D01*
X-14236943Y7268823D01*
X-14298984Y7290681D01*
X-14341871Y7345840D01*
X-14350500Y7391289D01*
X-14350500Y7814152D01*
X-14330815Y7881191D01*
X-14278011Y7926946D01*
X-14208853Y7936890D01*
X-14194407Y7933927D01*
X-14168286Y7926928D01*
X-14084584Y7904500D01*
X-14084583Y7904500D01*
X-13925419Y7904500D01*
X-13925416Y7904500D01*
X-13833169Y7929217D01*
X-13771670Y7945696D01*
X-13771669Y7945697D01*
X-13633831Y8025277D01*
X-13633826Y8025281D01*
X-13521281Y8137826D01*
X-13521277Y8137831D01*
X-13441697Y8275669D01*
X-13441696Y8275670D01*
X-13419462Y8358649D01*
X-13400500Y8429416D01*
X-13400500Y8588584D01*
X-13441696Y8742328D01*
X-13441696Y8742329D01*
X-13441697Y8742330D01*
X-13521277Y8880168D01*
X-13521281Y8880173D01*
X-13547882Y8906774D01*
X-13552022Y8911119D01*
X-13667304Y9038139D01*
X-13810321Y9195718D01*
X-13840800Y9258588D01*
X-13842500Y9279053D01*
X-13842500Y10210256D01*
X-13822815Y10277295D01*
X-13770011Y10323050D01*
X-13700853Y10332994D01*
X-13659076Y10319090D01*
X-13651491Y10314948D01*
X-13517254Y10264881D01*
X-13517255Y10264881D01*
X-13517251Y10264880D01*
X-13517250Y10264880D01*
X-13457909Y10258500D01*
X-13265972Y10258500D01*
X-13198933Y10238815D01*
X-13153178Y10186011D01*
X-13143234Y10116853D01*
X-13146195Y10102411D01*
X-13177500Y9985584D01*
X-13177500Y9826416D01*
X-13169507Y9796587D01*
X-13163792Y9775257D01*
X-13160013Y9761156D01*
X-13157130Y9740209D01*
X-13145035Y9705258D01*
X-13137597Y9677498D01*
X-13136304Y9672672D01*
X-13135875Y9671929D01*
X-13126079Y9650479D01*
X-13083696Y9528000D01*
X-12961318Y9174348D01*
X-12954500Y9133798D01*
X-12954500Y8474042D01*
X-12957447Y8450174D01*
X-12957268Y8450148D01*
X-12958163Y8444123D01*
X-12958164Y8444122D01*
X-13044322Y7864421D01*
X-13044321Y7864417D01*
X-13044322Y7864417D01*
X-13044640Y7858735D01*
X-13045803Y7858799D01*
X-13048669Y7833416D01*
X-13050500Y7826584D01*
X-13050500Y7667417D01*
X-13050499Y7667413D01*
X-13036791Y7616253D01*
X-13033013Y7602156D01*
X-13030130Y7581209D01*
X-13018035Y7546258D01*
X-13009304Y7513672D01*
X-13008875Y7512929D01*
X-12999081Y7491483D01*
X-12958939Y7375482D01*
X-12955619Y7305696D01*
X-12990557Y7245189D01*
X-13032785Y7218755D01*
X-13165267Y7169342D01*
X-13281404Y7082404D01*
X-13368342Y6966267D01*
X-13419040Y6830342D01*
X-13421090Y6811271D01*
X-13425499Y6770271D01*
X-13425499Y6770264D01*
X-13425500Y6770255D01*
X-13425499Y6173746D01*
X-13419040Y6113658D01*
X-13419039Y6113655D01*
X-13374310Y5993732D01*
X-13368342Y5977733D01*
X-13340874Y5941040D01*
X-13281404Y5861595D01*
X-13228837Y5822245D01*
X-13165267Y5774658D01*
X-13165264Y5774657D01*
X-13165263Y5774656D01*
X-13149584Y5768808D01*
X-13093652Y5726935D01*
X-13069238Y5661470D01*
X-13084092Y5593197D01*
X-13133499Y5543794D01*
X-13153919Y5534922D01*
X-13240117Y5506359D01*
X-13240124Y5506356D01*
X-13389345Y5414315D01*
X-13513315Y5290345D01*
X-13605576Y5140767D01*
X-13657524Y5094043D01*
X-13726487Y5082820D01*
X-13790569Y5110664D01*
X-13827296Y5162529D01*
X-13834656Y5182263D01*
X-13834657Y5182264D01*
X-13834658Y5182267D01*
X-13909857Y5282723D01*
X-13921595Y5298404D01*
X-14017972Y5370549D01*
X-14037733Y5385342D01*
X-14173658Y5436040D01*
X-14233745Y5442500D01*
X-15230254Y5442499D01*
X-15290342Y5436040D01*
X-15426267Y5385342D01*
X-15542404Y5298404D01*
X-15629342Y5182267D01*
X-15680040Y5046342D01*
X-15682361Y5024750D01*
X-15686499Y4986271D01*
X-15686499Y4986264D01*
X-15686500Y4986255D01*
X-15686499Y4364746D01*
X-15680040Y4304658D01*
X-15680039Y4304655D01*
X-15645952Y4213264D01*
X-15629342Y4168733D01*
X-15617910Y4153462D01*
X-15542404Y4052595D01*
X-15475984Y4002875D01*
X-15426267Y3965658D01*
X-15426264Y3965657D01*
X-15426263Y3965656D01*
X-15346987Y3936087D01*
X-15320275Y3916090D01*
X-15293037Y3896793D01*
X-15292405Y3895226D01*
X-15291054Y3894215D01*
X-15279395Y3862955D01*
X-15266912Y3831991D01*
X-15267080Y3829935D01*
X-15266638Y3828750D01*
X-15268506Y3796733D01*
X-15269348Y3792305D01*
X-15273339Y3777355D01*
X-15275233Y3769807D01*
X-15275398Y3769105D01*
X-15277156Y3761053D01*
X-15277182Y3751121D01*
X-15279335Y3739807D01*
X-15280490Y3737552D01*
X-15281377Y3730883D01*
X-15287052Y3709709D01*
X-15287052Y3550541D01*
X-15245856Y3396797D01*
X-15216946Y3346724D01*
X-15166274Y3258956D01*
X-15166270Y3258951D01*
X-15053725Y3146406D01*
X-15053720Y3146402D01*
X-14915882Y3066822D01*
X-14915881Y3066821D01*
X-14762405Y3025697D01*
X-14702745Y2989331D01*
X-14672216Y2926484D01*
X-14670499Y2905932D01*
X-14670499Y2379746D01*
X-14664040Y2319658D01*
X-14664039Y2319655D01*
X-14621126Y2204601D01*
X-14613342Y2183733D01*
X-14602739Y2169569D01*
X-14526404Y2067595D01*
X-14467498Y2023500D01*
X-14410267Y1980658D01*
X-14274342Y1929960D01*
X-14274338Y1929959D01*
X-14214262Y1923500D01*
X-14214255Y1923500D01*
X-13217748Y1923500D01*
X-13217742Y1923501D01*
X-13157655Y1929960D01*
X-13021738Y1980655D01*
X-13021730Y1980660D01*
X-12905594Y2067596D01*
X-12864335Y2122713D01*
X-12808402Y2164585D01*
X-12738710Y2169569D01*
X-12677387Y2136084D01*
X-12647362Y2087407D01*
X-12618358Y1999880D01*
X-12618356Y1999875D01*
X-12526315Y1850654D01*
X-12402345Y1726684D01*
X-12373522Y1708906D01*
X-12326798Y1656958D01*
X-12315575Y1587995D01*
X-12339350Y1529060D01*
X-12393842Y1456267D01*
X-12441809Y1327662D01*
X-12455077Y1309939D01*
X-12464276Y1289797D01*
X-12475607Y1282514D01*
X-12483679Y1271733D01*
X-12504424Y1263995D01*
X-12523054Y1252023D01*
X-12544972Y1248871D01*
X-12549143Y1247316D01*
X-12557989Y1247000D01*
X-12685841Y1247000D01*
X-12752880Y1266685D01*
X-12798635Y1319489D01*
X-12802022Y1327665D01*
X-12818657Y1372263D01*
X-12818658Y1372267D01*
X-12860395Y1428022D01*
X-12905595Y1488404D01*
X-12964502Y1532500D01*
X-13021733Y1575342D01*
X-13157658Y1626040D01*
X-13217745Y1632500D01*
X-14214254Y1632499D01*
X-14274342Y1626040D01*
X-14410267Y1575342D01*
X-14526404Y1488404D01*
X-14613342Y1372267D01*
X-14664040Y1236342D01*
X-14664854Y1228768D01*
X-14670499Y1176271D01*
X-14670499Y1176264D01*
X-14670500Y1176255D01*
X-14670499Y554746D01*
X-14664040Y494658D01*
X-14664039Y494655D01*
X-14633028Y411511D01*
X-14613342Y358733D01*
X-14586175Y322442D01*
X-14526404Y242595D01*
X-14469912Y200307D01*
X-14410267Y155658D01*
X-14274342Y104960D01*
X-14274338Y104959D01*
X-14210952Y98144D01*
X-14211056Y97176D01*
X-14209518Y96634D01*
X-14203853Y97449D01*
X-14176926Y85151D01*
X-14149016Y75319D01*
X-14145503Y70801D01*
X-14140297Y68424D01*
X-14124294Y43523D01*
X-14106129Y20160D01*
X-14104807Y13201D01*
X-14102523Y9646D01*
X-14097500Y-25289D01*
X-14097500Y-243798D01*
X-14104318Y-284348D01*
X-14108413Y-296183D01*
X-14216834Y-609501D01*
X-14269078Y-760476D01*
X-14278874Y-781928D01*
X-14279304Y-782672D01*
X-14286892Y-810993D01*
X-14289477Y-819427D01*
X-14300130Y-850209D01*
X-14305258Y-866805D01*
X-14305263Y-866826D01*
X-14305264Y-866827D01*
X-14305671Y-868319D01*
X-14309684Y-885258D01*
X-14310523Y-892348D01*
X-14311299Y-892256D01*
X-14313896Y-911771D01*
X-14320500Y-936416D01*
X-14320500Y-1095584D01*
X-14279304Y-1249328D01*
X-14199720Y-1387172D01*
X-14087172Y-1499720D01*
X-13949328Y-1579304D01*
X-13795584Y-1620500D01*
X-13795581Y-1620500D01*
X-13636419Y-1620500D01*
X-13636416Y-1620500D01*
X-13482672Y-1579304D01*
X-13344828Y-1499720D01*
X-13232280Y-1387172D01*
X-13232279Y-1387171D01*
X-13232277Y-1387168D01*
X-13152697Y-1249330D01*
X-13152696Y-1249329D01*
X-13124717Y-1144909D01*
X-13111500Y-1095584D01*
X-13111500Y-936416D01*
X-13111500Y-936415D01*
X-13111500Y-936412D01*
X-13126975Y-878656D01*
X-13126976Y-878657D01*
X-13128984Y-871163D01*
X-13131869Y-850210D01*
X-13143966Y-815250D01*
X-13145111Y-810973D01*
X-13145111Y-810972D01*
X-13152695Y-782673D01*
X-13152697Y-782668D01*
X-13153131Y-781917D01*
X-13162918Y-760481D01*
X-13327682Y-284347D01*
X-13328324Y-280525D01*
X-13329477Y-278732D01*
X-13334500Y-243797D01*
X-13334500Y-25288D01*
X-13314815Y41751D01*
X-13262011Y87506D01*
X-13220986Y97580D01*
X-13221047Y98146D01*
X-13157655Y104960D01*
X-13021738Y155655D01*
X-13021730Y155660D01*
X-12905595Y242595D01*
X-12818660Y358730D01*
X-12818657Y358736D01*
X-12818185Y360000D01*
X-12802022Y403335D01*
X-12788753Y421059D01*
X-12779554Y441203D01*
X-12768221Y448485D01*
X-12760150Y459268D01*
X-12739404Y467005D01*
X-12720776Y478977D01*
X-12698856Y482128D01*
X-12694686Y483684D01*
X-12685841Y484000D01*
X-12574999Y484000D01*
X-12507960Y464315D01*
X-12462205Y411511D01*
X-12450999Y360000D01*
X-12450999Y263746D01*
X-12444540Y203658D01*
X-12444539Y203655D01*
X-12396672Y75319D01*
X-12393842Y67733D01*
X-12306904Y-48404D01*
X-12190767Y-135342D01*
X-12190764Y-135343D01*
X-12146167Y-151977D01*
X-12090233Y-193848D01*
X-12065816Y-259312D01*
X-12065500Y-268159D01*
X-12065500Y-1695615D01*
X-12085185Y-1762654D01*
X-12101819Y-1783296D01*
X-12529747Y-2211224D01*
X-12600776Y-2282253D01*
X-12651001Y-2369246D01*
X-12677000Y-2466275D01*
X-12677000Y-2466277D01*
X-12677000Y-3795840D01*
X-12696685Y-3862879D01*
X-12749489Y-3908634D01*
X-12757663Y-3912021D01*
X-12802259Y-3928655D01*
X-12802267Y-3928658D01*
X-12841126Y-3957747D01*
X-12918404Y-4015595D01*
X-12961707Y-4073443D01*
X-13005342Y-4131733D01*
X-13056040Y-4267658D01*
X-13057951Y-4285435D01*
X-13062499Y-4327728D01*
X-13062499Y-4327735D01*
X-13062500Y-4327745D01*
X-13062499Y-5324254D01*
X-13056040Y-5384342D01*
X-13005342Y-5520267D01*
X-12918404Y-5636404D01*
X-12802267Y-5723342D01*
X-12666342Y-5774040D01*
X-12606255Y-5780500D01*
X-11984746Y-5780499D01*
X-11924658Y-5774040D01*
X-11788733Y-5723342D01*
X-11730443Y-5679707D01*
X-11672595Y-5636404D01*
X-11614747Y-5559126D01*
X-11585658Y-5520267D01*
X-11534960Y-5384342D01*
X-11534810Y-5382951D01*
X-11528500Y-5324271D01*
X-11528500Y-4327748D01*
X-11528501Y-4327742D01*
X-11534960Y-4267655D01*
X-11585655Y-4131738D01*
X-11585660Y-4131730D01*
X-11672595Y-4015595D01*
X-11788730Y-3928660D01*
X-11788732Y-3928658D01*
X-11833337Y-3912021D01*
X-11889269Y-3870148D01*
X-11913684Y-3804683D01*
X-11914000Y-3795840D01*
X-11914000Y-2725885D01*
X-11894315Y-2658846D01*
X-11877681Y-2638204D01*
X-11378726Y-2139249D01*
X-11378724Y-2139247D01*
X-11328498Y-2052253D01*
X-11302499Y-1955225D01*
X-11302499Y-1854775D01*
X-11302499Y-1847180D01*
X-11302500Y-1847162D01*
X-11302500Y-268159D01*
X-11282815Y-201120D01*
X-11230011Y-155365D01*
X-11221833Y-151977D01*
X-11177235Y-135343D01*
X-11177233Y-135342D01*
X-11061095Y-48404D01*
X-10974160Y67730D01*
X-10974159Y67732D01*
X-10974158Y67733D01*
X-10923460Y203658D01*
X-10923459Y203659D01*
X-10923459Y203662D01*
X-10917000Y263728D01*
X-10917000Y1070114D01*
X-10908355Y1099551D01*
X-10901832Y1129542D01*
X-10898077Y1134557D01*
X-10897315Y1137153D01*
X-10880680Y1157796D01*
X-10837679Y1200796D01*
X-10776356Y1234281D01*
X-10706664Y1229295D01*
X-10650731Y1187423D01*
X-10626315Y1121959D01*
X-10625999Y1113137D01*
X-10625999Y263746D01*
X-10619540Y203658D01*
X-10619539Y203655D01*
X-10571672Y75319D01*
X-10568842Y67733D01*
X-10481904Y-48404D01*
X-10365767Y-135342D01*
X-10229842Y-186040D01*
X-10169755Y-192500D01*
X-9548246Y-192499D01*
X-9513122Y-188723D01*
X-9444365Y-201129D01*
X-9412195Y-224326D01*
X-9148276Y-488247D01*
X-9077247Y-559276D01*
X-8990254Y-609501D01*
X-8893225Y-635500D01*
X-8893222Y-635500D01*
X-7061778Y-635500D01*
X-7061775Y-635500D01*
X-6964746Y-609501D01*
X-6877753Y-559276D01*
X-6806724Y-488247D01*
X-6806723Y-488246D01*
X-6114815Y203662D01*
X-5282725Y1035751D01*
X-5282723Y1035754D01*
X-5259331Y1076271D01*
X9445500Y1076271D01*
X9445500Y179748D01*
X9445501Y179742D01*
X9451960Y119655D01*
X9502655Y-16261D01*
X9502656Y-16264D01*
X9502658Y-16267D01*
X9509411Y-25288D01*
X9589595Y-132404D01*
X9647443Y-175707D01*
X9705733Y-219342D01*
X9841658Y-270040D01*
X9901745Y-276500D01*
X10194501Y-276499D01*
X10261539Y-296183D01*
X10307294Y-348987D01*
X10318500Y-400499D01*
X10318500Y-1286967D01*
X10316149Y-1310998D01*
X10199403Y-1901992D01*
X10199402Y-1901997D01*
X10199403Y-1902828D01*
X10199086Y-1905233D01*
X10198814Y-1908026D01*
X10198720Y-1908016D01*
X10195179Y-1934952D01*
X10190500Y-1952416D01*
X10190500Y-2111584D01*
X10217199Y-2211224D01*
X10231696Y-2265329D01*
X10231697Y-2265330D01*
X10311277Y-2403168D01*
X10311279Y-2403171D01*
X10311280Y-2403172D01*
X10423828Y-2515720D01*
X10423829Y-2515721D01*
X10423831Y-2515722D01*
X10492750Y-2555512D01*
X10561672Y-2595304D01*
X10715416Y-2636500D01*
X10715419Y-2636500D01*
X10874581Y-2636500D01*
X10874584Y-2636500D01*
X10919885Y-2624361D01*
X10989733Y-2626024D01*
X11047596Y-2665186D01*
X11068159Y-2700800D01*
X11077515Y-2725885D01*
X11077658Y-2726267D01*
X11106747Y-2765126D01*
X11164595Y-2842404D01*
X11222443Y-2885707D01*
X11280733Y-2929342D01*
X11416658Y-2980040D01*
X11476745Y-2986500D01*
X12098254Y-2986499D01*
X12158342Y-2980040D01*
X12294267Y-2929342D01*
X12410404Y-2842404D01*
X12455417Y-2782271D01*
X12511348Y-2740401D01*
X12581040Y-2735415D01*
X12642363Y-2768899D01*
X12660994Y-2795503D01*
X12661851Y-2794975D01*
X12757684Y-2950345D01*
X12881654Y-3074315D01*
X13030875Y-3166356D01*
X13030880Y-3166358D01*
X13197302Y-3221505D01*
X13197309Y-3221506D01*
X13300019Y-3231999D01*
X13862500Y-3231999D01*
X13924972Y-3231999D01*
X13924986Y-3231998D01*
X14027697Y-3221505D01*
X14194119Y-3166358D01*
X14194124Y-3166356D01*
X14343345Y-3074315D01*
X14467315Y-2950345D01*
X14559356Y-2801124D01*
X14559358Y-2801119D01*
X14614505Y-2634697D01*
X14614506Y-2634690D01*
X14624999Y-2531986D01*
X14625000Y-2531973D01*
X14625000Y-2282000D01*
X13862500Y-2282000D01*
X13862500Y-3231999D01*
X13300019Y-3231999D01*
X13362499Y-3231998D01*
X13362500Y-3231998D01*
X13362500Y-1782000D01*
X13862500Y-1782000D01*
X14624999Y-1782000D01*
X14624999Y-1532028D01*
X14624998Y-1532013D01*
X14614505Y-1429302D01*
X14559358Y-1262880D01*
X14559356Y-1262875D01*
X14467315Y-1113654D01*
X14343345Y-989684D01*
X14194124Y-897643D01*
X14194119Y-897641D01*
X14027697Y-842494D01*
X14027690Y-842493D01*
X13924986Y-832000D01*
X13862500Y-832000D01*
X13862500Y-1782000D01*
X13362500Y-1782000D01*
X13362500Y-832000D01*
X13362499Y-831999D01*
X13300028Y-832000D01*
X13300011Y-832001D01*
X13197302Y-842494D01*
X13030880Y-897641D01*
X13030875Y-897643D01*
X12881654Y-989684D01*
X12757684Y-1113654D01*
X12661851Y-1269025D01*
X12659984Y-1267873D01*
X12620868Y-1312277D01*
X12553670Y-1331413D01*
X12486793Y-1311180D01*
X12455416Y-1281726D01*
X12410404Y-1221595D01*
X12327808Y-1159766D01*
X12294267Y-1134658D01*
X12158342Y-1083960D01*
X12158338Y-1083959D01*
X12098263Y-1077500D01*
X11476748Y-1077500D01*
X11476742Y-1077501D01*
X11416655Y-1083960D01*
X11280738Y-1134655D01*
X11280729Y-1134660D01*
X11279803Y-1135354D01*
X11278720Y-1135757D01*
X11272949Y-1138909D01*
X11272495Y-1138078D01*
X11214337Y-1159766D01*
X11146065Y-1144909D01*
X11096663Y-1095500D01*
X11081500Y-1036081D01*
X11081500Y-400499D01*
X11101185Y-333460D01*
X11153989Y-287705D01*
X11205500Y-276499D01*
X11498251Y-276499D01*
X11498254Y-276499D01*
X11558342Y-270040D01*
X11694267Y-219342D01*
X11810404Y-132404D01*
X11897342Y-16267D01*
X11948040Y119658D01*
X11949771Y135756D01*
X11976509Y200307D01*
X12033902Y240155D01*
X12073060Y246500D01*
X12108222Y246500D01*
X12108225Y246500D01*
X12205254Y272499D01*
X12292247Y322724D01*
X12363276Y393753D01*
X12992081Y1022558D01*
X13053404Y1056043D01*
X13123096Y1051059D01*
X13179029Y1009187D01*
X13203120Y947480D01*
X13210494Y875302D01*
X13265641Y708880D01*
X13265643Y708875D01*
X13357684Y559654D01*
X13481654Y435684D01*
X13630875Y343643D01*
X13630880Y343641D01*
X13797302Y288494D01*
X13797309Y288493D01*
X13900013Y278000D01*
X14450000Y278000D01*
X14450000Y3277999D01*
X13900028Y3277999D01*
X13900013Y3277998D01*
X13797302Y3267505D01*
X13630880Y3212358D01*
X13630875Y3212356D01*
X13481654Y3120315D01*
X13450181Y3088842D01*
X13388858Y3055357D01*
X13319166Y3060341D01*
X13263233Y3102213D01*
X13238816Y3167677D01*
X13238500Y3176523D01*
X13238500Y4565253D01*
X13258185Y4632292D01*
X13310989Y4678047D01*
X13319164Y4681434D01*
X13341987Y4689947D01*
X13341991Y4689949D01*
X13352746Y4698000D01*
X13456689Y4775811D01*
X13542551Y4890509D01*
X13547669Y4904230D01*
X13589540Y4960164D01*
X13655004Y4984581D01*
X13723277Y4969730D01*
X13772683Y4920324D01*
X13781557Y4899901D01*
X13809594Y4815290D01*
X13809596Y4815285D01*
X13900870Y4667308D01*
X14023808Y4544370D01*
X14171785Y4453096D01*
X14171790Y4453094D01*
X14336826Y4398407D01*
X14438684Y4388000D01*
X14482000Y4388000D01*
X14982000Y4388000D01*
X15025315Y4388000D01*
X15127173Y4398407D01*
X15292209Y4453094D01*
X15292214Y4453096D01*
X15440191Y4544370D01*
X15563129Y4667308D01*
X15654403Y4815285D01*
X15654405Y4815290D01*
X15709092Y4980326D01*
X15719499Y5082184D01*
X15719500Y5082197D01*
X15719500Y5338000D01*
X14982000Y5338000D01*
X14982000Y4388000D01*
X14482000Y4388000D01*
X14482000Y5838000D01*
X14982000Y5838000D01*
X15719500Y5838000D01*
X15719500Y6093802D01*
X15719499Y6093815D01*
X15709092Y6195673D01*
X15654405Y6360709D01*
X15654403Y6360714D01*
X15563129Y6508691D01*
X15440191Y6631629D01*
X15292214Y6722903D01*
X15292209Y6722905D01*
X15127173Y6777592D01*
X15025315Y6787999D01*
X15025303Y6788000D01*
X14982000Y6788000D01*
X14982000Y5838000D01*
X14482000Y5838000D01*
X14482000Y6788000D01*
X14438697Y6788000D01*
X14438684Y6787999D01*
X14336826Y6777592D01*
X14171790Y6722905D01*
X14171785Y6722903D01*
X14023808Y6631629D01*
X13900870Y6508691D01*
X13809596Y6360714D01*
X13809594Y6360709D01*
X13781557Y6276098D01*
X13741784Y6218653D01*
X13677268Y6191830D01*
X13608493Y6204145D01*
X13557293Y6251688D01*
X13547668Y6271771D01*
X13542551Y6285491D01*
X13456689Y6400189D01*
X13341991Y6486051D01*
X13207750Y6536120D01*
X13148409Y6542500D01*
X12565592Y6542499D01*
X12519339Y6537527D01*
X12506249Y6536120D01*
X12372011Y6486052D01*
X12372010Y6486051D01*
X12372009Y6486051D01*
X12257311Y6400189D01*
X12190301Y6310674D01*
X12171449Y6285491D01*
X12171447Y6285488D01*
X12121381Y6151255D01*
X12121380Y6151251D01*
X12121380Y6151250D01*
X12115000Y6091909D01*
X12115000Y6091900D01*
X12115000Y5084093D01*
X12115001Y5084087D01*
X12121379Y5024749D01*
X12171447Y4890511D01*
X12171449Y4890508D01*
X12257311Y4775811D01*
X12372008Y4689949D01*
X12372012Y4689947D01*
X12394836Y4681434D01*
X12450768Y4639562D01*
X12475184Y4574097D01*
X12475500Y4565253D01*
X12475500Y1636385D01*
X12455815Y1569346D01*
X12439181Y1548704D01*
X12105874Y1215397D01*
X12044551Y1181912D01*
X11974859Y1186896D01*
X11918926Y1228768D01*
X11902013Y1259743D01*
X11897342Y1272267D01*
X11810404Y1388404D01*
X11694267Y1475342D01*
X11558342Y1526040D01*
X11498255Y1532500D01*
X9901746Y1532499D01*
X9841658Y1526040D01*
X9841655Y1526039D01*
X9710790Y1477228D01*
X9705733Y1475342D01*
X9647443Y1431707D01*
X9589595Y1388404D01*
X9531747Y1311126D01*
X9502658Y1272267D01*
X9451960Y1136342D01*
X9451959Y1136338D01*
X9451959Y1136337D01*
X9445500Y1076271D01*
X-5259331Y1076271D01*
X-5232499Y1122745D01*
X-5218157Y1176271D01*
X-5206500Y1219775D01*
X-5206500Y3376271D01*
X9445500Y3376271D01*
X9445500Y2479748D01*
X9445501Y2479742D01*
X9451960Y2419655D01*
X9502655Y2283738D01*
X9502660Y2283730D01*
X9589595Y2167595D01*
X9696717Y2087407D01*
X9705733Y2080658D01*
X9841658Y2029960D01*
X9841659Y2029959D01*
X9841661Y2029959D01*
X9901737Y2023500D01*
X9901745Y2023500D01*
X11498251Y2023500D01*
X11498257Y2023501D01*
X11558344Y2029960D01*
X11694261Y2080655D01*
X11694264Y2080656D01*
X11694267Y2080658D01*
X11750447Y2122713D01*
X11810404Y2167595D01*
X11853707Y2225443D01*
X11897342Y2283733D01*
X11948040Y2419658D01*
X11950248Y2440199D01*
X11954499Y2479728D01*
X11954499Y2479735D01*
X11954500Y2479745D01*
X11954499Y3376254D01*
X11948040Y3436342D01*
X11897342Y3572267D01*
X11810404Y3688404D01*
X11694267Y3775342D01*
X11558342Y3826040D01*
X11498255Y3832500D01*
X9901746Y3832499D01*
X9841658Y3826040D01*
X9841655Y3826039D01*
X9763084Y3796733D01*
X9705733Y3775342D01*
X9667192Y3746491D01*
X9589595Y3688404D01*
X9566421Y3657446D01*
X9502658Y3572267D01*
X9451960Y3436342D01*
X9451959Y3436338D01*
X9451959Y3436337D01*
X9445500Y3376271D01*
X-5206500Y3376271D01*
X-5206500Y5638225D01*
X-5232499Y5735254D01*
X-5282724Y5822247D01*
X-5353753Y5893276D01*
X-5976207Y6515730D01*
X-6000060Y6549224D01*
X-6206352Y6973834D01*
X-6225408Y7013057D01*
X-6228696Y7025328D01*
X-6245559Y7054537D01*
X-6247499Y7058529D01*
X-6261725Y7087809D01*
X-6269886Y7103262D01*
X-6270651Y7104601D01*
X-6279736Y7119324D01*
X-6284148Y7124918D01*
X-6283536Y7125400D01*
X-6295505Y7141046D01*
X-6308278Y7163168D01*
X-6308280Y7163172D01*
X-6420828Y7275720D01*
X-6425633Y7278494D01*
X-6514035Y7329533D01*
X-6558672Y7355304D01*
X-6712416Y7396500D01*
X-6871584Y7396500D01*
X-6936844Y7379013D01*
X-6957790Y7376130D01*
X-6992736Y7364036D01*
X-7025328Y7355304D01*
X-7026073Y7354873D01*
X-7047520Y7345078D01*
X-7065833Y7338741D01*
X-7125778Y7333452D01*
X-7208161Y7346500D01*
X-7208166Y7346500D01*
X-8296834Y7346500D01*
X-8296839Y7346500D01*
X-8391552Y7331499D01*
X-8391553Y7331498D01*
X-8391555Y7331498D01*
X-8505723Y7273326D01*
X-8596326Y7182723D01*
X-8654498Y7068555D01*
X-8654498Y7068553D01*
X-8654499Y7068552D01*
X-8669500Y6973839D01*
X-8669500Y6610160D01*
X-8654499Y6515447D01*
X-8654498Y6515445D01*
X-8596326Y6401277D01*
X-8596321Y6401272D01*
X-8590587Y6393378D01*
X-8592849Y6391734D01*
X-8566661Y6343773D01*
X-8571645Y6274081D01*
X-8613517Y6218148D01*
X-8630005Y6207722D01*
X-8642304Y6201238D01*
X-8656254Y6197501D01*
X-8728250Y6155934D01*
X-8730349Y6154828D01*
X-8762341Y6148358D01*
X-8794071Y6140661D01*
X-8796408Y6141470D01*
X-8798832Y6140980D01*
X-8829235Y6152831D01*
X-8860098Y6163513D01*
X-8861627Y6165458D01*
X-8863931Y6166356D01*
X-8883107Y6192772D01*
X-8903288Y6218434D01*
X-8904689Y6222502D01*
X-8904977Y6222898D01*
X-8905006Y6223422D01*
X-8907248Y6229927D01*
X-8913718Y6252197D01*
X-8997314Y6393552D01*
X-8997321Y6393561D01*
X-9079964Y6476204D01*
X-9113449Y6537527D01*
X-9114757Y6583279D01*
X-9110500Y6610162D01*
X-9110500Y6973839D01*
X-9125500Y7068552D01*
X-9144138Y7105130D01*
X-9183674Y7182723D01*
X-9183676Y7182725D01*
X-9183678Y7182728D01*
X-9274271Y7273321D01*
X-9274273Y7273322D01*
X-9274277Y7273326D01*
X-9388445Y7331498D01*
X-9388446Y7331498D01*
X-9388448Y7331499D01*
X-9388447Y7331499D01*
X-9483161Y7346500D01*
X-9483166Y7346500D01*
X-10571834Y7346500D01*
X-10571839Y7346500D01*
X-10666552Y7331499D01*
X-10666553Y7331498D01*
X-10666555Y7331498D01*
X-10714861Y7306884D01*
X-10739432Y7302269D01*
X-10762903Y7293643D01*
X-10778157Y7294996D01*
X-10783530Y7293987D01*
X-10798095Y7296329D01*
X-10799557Y7296654D01*
X-10906278Y7323169D01*
X-10911812Y7324480D01*
X-10912318Y7324594D01*
X-10918029Y7325813D01*
X-10930731Y7325847D01*
X-10943867Y7328771D01*
X-10945247Y7329533D01*
X-10949024Y7330036D01*
X-10961773Y7333452D01*
X-10969416Y7335500D01*
X-11128584Y7335500D01*
X-11282328Y7294304D01*
X-11420172Y7214720D01*
X-11501391Y7133500D01*
X-11562710Y7100018D01*
X-11632402Y7105002D01*
X-11663378Y7121916D01*
X-11688934Y7141046D01*
X-11726733Y7169342D01*
X-11859212Y7218754D01*
X-11865265Y7223286D01*
X-11872691Y7224717D01*
X-11892847Y7243934D01*
X-11915143Y7260625D01*
X-11917785Y7267710D01*
X-11923260Y7272930D01*
X-11929827Y7299995D01*
X-11939560Y7326089D01*
X-11938364Y7335175D01*
X-11939736Y7340829D01*
X-11933058Y7375486D01*
X-11892918Y7491481D01*
X-11883133Y7512913D01*
X-11882699Y7513663D01*
X-11882696Y7513671D01*
X-11875113Y7541970D01*
X-11872523Y7550419D01*
X-11861866Y7581218D01*
X-11856727Y7597853D01*
X-11856310Y7599383D01*
X-11852315Y7616253D01*
X-11851478Y7623339D01*
X-11850705Y7623247D01*
X-11848105Y7642762D01*
X-11841500Y7667414D01*
X-11841500Y7826585D01*
X-11851554Y7864108D01*
X-11849891Y7933958D01*
X-11810727Y7991820D01*
X-11746498Y8019323D01*
X-11692775Y8013906D01*
X-11549697Y7966494D01*
X-11549690Y7966493D01*
X-11446986Y7956000D01*
X-11172000Y7956000D01*
X-11172000Y8832000D01*
X-11152315Y8899039D01*
X-11099511Y8944794D01*
X-11048000Y8956000D01*
X-10796000Y8956000D01*
X-10728961Y8936315D01*
X-10683206Y8883511D01*
X-10672000Y8832000D01*
X-10672000Y7956000D01*
X-10397029Y7956000D01*
X-10397012Y7956001D01*
X-10294302Y7966494D01*
X-10127880Y8021641D01*
X-10127871Y8021645D01*
X-10009486Y8094666D01*
X-9942094Y8113106D01*
X-9875430Y8092183D01*
X-9841288Y8058018D01*
X-9781484Y7968515D01*
X-9747332Y7945696D01*
X-9697301Y7912266D01*
X-9697299Y7912265D01*
X-9697296Y7912264D01*
X-9623071Y7897500D01*
X-5081949Y7897500D01*
X-5014910Y7877815D01*
X-4978847Y7842392D01*
X-4937949Y7781184D01*
X-4929483Y7768515D01*
X-4908506Y7754499D01*
X-4845301Y7712266D01*
X-4845299Y7712265D01*
X-4845296Y7712264D01*
X-4771069Y7697500D01*
X-4771067Y7697500D01*
X-3420936Y7697500D01*
X-3346698Y7712266D01*
X-3262515Y7768515D01*
X-3206266Y7852699D01*
X-3206264Y7852703D01*
X-3191500Y7926928D01*
X-3191500Y8543481D01*
X-3171815Y8610520D01*
X-3119011Y8656275D01*
X-3049853Y8666219D01*
X-2994616Y8643800D01*
X-2905503Y8579057D01*
X-2905501Y8579056D01*
X-2729561Y8489409D01*
X-2729558Y8489408D01*
X-2541763Y8428389D01*
X-2346736Y8397500D01*
X-2346731Y8397500D01*
X-2149264Y8397500D01*
X-1954236Y8428389D01*
X-1766441Y8489408D01*
X-1590500Y8579055D01*
X-1547223Y8610497D01*
X-1481417Y8633975D01*
X-1436022Y8628108D01*
X-1271640Y8574697D01*
X-1178253Y8559906D01*
X-1099926Y8547500D01*
X-1099925Y8547500D01*
X-926075Y8547500D01*
X-926074Y8547500D01*
X-847747Y8559906D01*
X-754360Y8574697D01*
X-754357Y8574697D01*
X-589021Y8628418D01*
X-434115Y8707347D01*
X-353869Y8765649D01*
X-293467Y8809535D01*
X-293465Y8809537D01*
X-293464Y8809537D01*
X-170537Y8932464D01*
X-170537Y8932465D01*
X-170535Y8932467D01*
X-84272Y9051197D01*
X-68347Y9073115D01*
X-57485Y9094434D01*
X-9510Y9145230D01*
X58311Y9162025D01*
X124446Y9139487D01*
X167897Y9084772D01*
X177000Y9038139D01*
X177000Y8754155D01*
X183401Y8694627D01*
X183403Y8694620D01*
X233645Y8559913D01*
X233649Y8559906D01*
X319809Y8444812D01*
X319812Y8444809D01*
X434906Y8358649D01*
X434913Y8358645D01*
X569620Y8308403D01*
X569627Y8308401D01*
X629155Y8302000D01*
X1277000Y8302000D01*
X1277000Y9218988D01*
X1334007Y9186075D01*
X1461174Y9152000D01*
X1592826Y9152000D01*
X1719993Y9186075D01*
X1777000Y9218988D01*
X1777000Y8302000D01*
X2067721Y8302000D01*
X2124016Y8288485D01*
X2176197Y8261897D01*
X2400752Y8188934D01*
X2400751Y8188934D01*
X2633948Y8152000D01*
X2870052Y8152000D01*
X3103248Y8188934D01*
X3291682Y8250160D01*
X3361523Y8252155D01*
X3421356Y8216075D01*
X3452184Y8153374D01*
X3454000Y8132229D01*
X3454000Y7904155D01*
X3460401Y7844627D01*
X3460403Y7844620D01*
X3510645Y7709913D01*
X3510649Y7709906D01*
X3596809Y7594812D01*
X3596812Y7594809D01*
X3711906Y7508649D01*
X3711913Y7508645D01*
X3846620Y7458403D01*
X3846627Y7458401D01*
X3906155Y7452000D01*
X4354000Y7452000D01*
X4854000Y7452000D01*
X5301844Y7452000D01*
X5361372Y7458401D01*
X5361379Y7458403D01*
X5496086Y7508645D01*
X5496093Y7508649D01*
X5611185Y7594808D01*
X5611191Y7594814D01*
X5616802Y7602309D01*
X5672734Y7644181D01*
X5716070Y7652000D01*
X7602000Y7652000D01*
X7602000Y9402000D01*
X4854000Y9402000D01*
X4854000Y7452000D01*
X4354000Y7452000D01*
X4354000Y9528000D01*
X4373685Y9595039D01*
X4426489Y9640794D01*
X4478000Y9652000D01*
X4604000Y9652000D01*
X4604000Y9778000D01*
X4623685Y9845039D01*
X4676489Y9890794D01*
X4728000Y9902000D01*
X7728000Y9902000D01*
X7795039Y9882315D01*
X7840794Y9829511D01*
X7852000Y9778000D01*
X7852000Y9652000D01*
X7978000Y9652000D01*
X8045039Y9632315D01*
X8090794Y9579511D01*
X8102000Y9528000D01*
X8102000Y7652000D01*
X10149844Y7652000D01*
X10209372Y7658401D01*
X10209379Y7658403D01*
X10344086Y7708645D01*
X10344093Y7708649D01*
X10405340Y7754499D01*
X10470804Y7778917D01*
X10539077Y7764066D01*
X10544748Y7760772D01*
X10660875Y7689143D01*
X10660880Y7689141D01*
X10827302Y7633994D01*
X10827309Y7633993D01*
X10930013Y7623500D01*
X11180000Y7623500D01*
X11680000Y7623500D01*
X11929970Y7623500D01*
X11929987Y7623501D01*
X12032697Y7633994D01*
X12199119Y7689141D01*
X12199124Y7689143D01*
X12348345Y7781184D01*
X12472315Y7905154D01*
X12564356Y8054375D01*
X12564358Y8054380D01*
X12619505Y8220802D01*
X12619506Y8220809D01*
X12629999Y8323513D01*
X12630000Y8323526D01*
X12630000Y8386000D01*
X11680000Y8386000D01*
X11680000Y7623500D01*
X11180000Y7623500D01*
X11180000Y8512000D01*
X11199685Y8579039D01*
X11252489Y8624794D01*
X11304000Y8636000D01*
X11430000Y8636000D01*
X11430000Y8762000D01*
X11449685Y8829039D01*
X11502489Y8874794D01*
X11554000Y8886000D01*
X12629999Y8886000D01*
X12629999Y8948471D01*
X12629998Y8948486D01*
X12619505Y9051197D01*
X12564358Y9217619D01*
X12564356Y9217624D01*
X12472315Y9366845D01*
X12348345Y9490815D01*
X12192975Y9586649D01*
X12194129Y9588521D01*
X12149744Y9627595D01*
X12130586Y9694787D01*
X12150795Y9761670D01*
X12180273Y9793083D01*
X12240404Y9838095D01*
X12288241Y9902000D01*
X12327342Y9954233D01*
X12378040Y10090158D01*
X12380248Y10110699D01*
X12384499Y10150228D01*
X12384499Y10150235D01*
X12384500Y10150245D01*
X12384499Y10771754D01*
X12378040Y10831842D01*
X12327342Y10967767D01*
X12240404Y11083904D01*
X12124267Y11170842D01*
X12109657Y11176291D01*
X12053725Y11218158D01*
X12033216Y11260375D01*
X11993304Y11409328D01*
X11913720Y11547172D01*
X11801172Y11659720D01*
X11742662Y11693500D01*
X11725812Y11706273D01*
X11692548Y11722433D01*
X11663328Y11739304D01*
X11662494Y11739527D01*
X11640407Y11747764D01*
X11187226Y11967936D01*
X11153735Y11991786D01*
X10902247Y12243276D01*
X10898395Y12245500D01*
X10815254Y12293501D01*
X10718225Y12319500D01*
X10344385Y12319500D01*
X10277346Y12339185D01*
X10231591Y12391989D01*
X10221647Y12461147D01*
X10250672Y12524703D01*
X10301051Y12559682D01*
X10312490Y12563948D01*
X10312491Y12563949D01*
X10427189Y12649811D01*
X10513051Y12764509D01*
X10553507Y12872975D01*
X10563118Y12898744D01*
X10563120Y12898750D01*
X10569500Y12958091D01*
X10569499Y13965908D01*
X10563120Y14025250D01*
X10513051Y14159491D01*
X10427189Y14274189D01*
X10312687Y14359904D01*
X10270817Y14415837D01*
X10265833Y14485528D01*
X10299318Y14546851D01*
X10327570Y14568001D01*
X10334266Y14571657D01*
X10450404Y14658595D01*
X10513376Y14742718D01*
X10537342Y14774733D01*
X10588040Y14910658D01*
X10590248Y14931199D01*
X10594499Y14970728D01*
X10594499Y14970735D01*
X10594500Y14970745D01*
X10594499Y16017254D01*
X10588040Y16077342D01*
X10537342Y16213267D01*
X10450404Y16329404D01*
X10334267Y16416342D01*
X10325046Y16419781D01*
X10302167Y16428315D01*
X10246233Y16470186D01*
X10221816Y16535651D01*
X10221500Y16544497D01*
X10221500Y17172728D01*
X10922282Y17172728D01*
X10922282Y17172727D01*
X10976439Y17133380D01*
X11165782Y17036904D01*
X11367870Y16971242D01*
X11577754Y16938000D01*
X11790246Y16938000D01*
X12000127Y16971242D01*
X12000130Y16971242D01*
X12202217Y17036904D01*
X12391550Y17133375D01*
X12445716Y17172728D01*
X11684001Y17934446D01*
X11684000Y17934446D01*
X10922282Y17172728D01*
X10221500Y17172728D01*
X10221500Y17531836D01*
X10221500Y17541771D01*
X10221501Y17541775D01*
X10221501Y17642225D01*
X10216665Y17660269D01*
X10216141Y17674216D01*
X10221427Y17695097D01*
X10221940Y17716634D01*
X10229833Y17728297D01*
X10233290Y17741949D01*
X10249027Y17756657D01*
X10261102Y17774498D01*
X10274048Y17780042D01*
X10284336Y17789657D01*
X10305526Y17793522D01*
X10325330Y17802003D01*
X10339216Y17799667D01*
X10353071Y17802195D01*
X10372990Y17793988D01*
X10394232Y17790417D01*
X10404650Y17780945D01*
X10417674Y17775581D01*
X10429994Y17757908D01*
X10445933Y17743420D01*
X10450537Y17735176D01*
X10529378Y17580443D01*
X10529380Y17580440D01*
X10568727Y17526282D01*
X10568728Y17526282D01*
X11330446Y18288000D01*
X11290664Y18327782D01*
X11484000Y18327782D01*
X11484000Y18248218D01*
X11514448Y18174709D01*
X11570709Y18118448D01*
X11644218Y18088000D01*
X11723782Y18088000D01*
X11797291Y18118448D01*
X11853552Y18174709D01*
X11884000Y18248218D01*
X11884000Y18288001D01*
X12037554Y18288001D01*
X12037554Y18287999D01*
X12799269Y17526282D01*
X12799270Y17526282D01*
X12838624Y17580449D01*
X12935095Y17769782D01*
X13000757Y17971869D01*
X13000757Y17971872D01*
X13034000Y18181753D01*
X13034000Y18394246D01*
X13000757Y18604127D01*
X13000757Y18604130D01*
X12935095Y18806217D01*
X12838622Y18995554D01*
X12799270Y19049716D01*
X12799270Y19049717D01*
X12037554Y18288001D01*
X11884000Y18288001D01*
X11884000Y18327782D01*
X11853552Y18401291D01*
X11797291Y18457552D01*
X11723782Y18488000D01*
X11644218Y18488000D01*
X11570709Y18457552D01*
X11514448Y18401291D01*
X11484000Y18327782D01*
X11290664Y18327782D01*
X10568728Y19049716D01*
X10529375Y18995550D01*
X10432904Y18806217D01*
X10402864Y18713761D01*
X10363427Y18656086D01*
X10299068Y18628887D01*
X10230222Y18640801D01*
X10178746Y18688045D01*
X10169804Y18707626D01*
X10169446Y18707478D01*
X10167582Y18711975D01*
X10167581Y18711975D01*
X10167580Y18711981D01*
X10088653Y18866884D01*
X9986465Y19007533D01*
X9863533Y19130465D01*
X9722884Y19232653D01*
X9567981Y19311580D01*
X9402638Y19365303D01*
X9230926Y19392500D01*
X9057074Y19392500D01*
X8885362Y19365303D01*
X8885359Y19365302D01*
X8885357Y19365302D01*
X8720021Y19311581D01*
X8720019Y19311580D01*
X8565116Y19232653D01*
X8424467Y19130465D01*
X8301535Y19007533D01*
X8199347Y18866884D01*
X8120418Y18711978D01*
X8066697Y18546642D01*
X8066697Y18546639D01*
X8039500Y18374925D01*
X8039500Y18201074D01*
X8066697Y18029360D01*
X8066697Y18029357D01*
X8120418Y17864021D01*
X8199347Y17709115D01*
X8209532Y17695097D01*
X8301535Y17568467D01*
X8301537Y17568465D01*
X8301537Y17568464D01*
X8424464Y17445537D01*
X8565115Y17343347D01*
X8720021Y17264418D01*
X8885358Y17210697D01*
X9022731Y17188939D01*
X9057074Y17183500D01*
X9057075Y17183500D01*
X9230926Y17183500D01*
X9315103Y17196832D01*
X9384396Y17187877D01*
X9437848Y17142881D01*
X9458487Y17076129D01*
X9458500Y17074359D01*
X9458500Y16544497D01*
X9438815Y16477458D01*
X9386011Y16431703D01*
X9377833Y16428315D01*
X9345735Y16416343D01*
X9345733Y16416342D01*
X9229595Y16329404D01*
X9186603Y16271972D01*
X9142658Y16213267D01*
X9091960Y16077342D01*
X9091959Y16077338D01*
X9091959Y16077337D01*
X9085500Y16017271D01*
X9085500Y14970748D01*
X9085501Y14970742D01*
X9091960Y14910655D01*
X9142655Y14774738D01*
X9142660Y14774730D01*
X9229595Y14658595D01*
X9352832Y14566344D01*
X9350679Y14563469D01*
X9387999Y14526126D01*
X9402828Y14457848D01*
X9378389Y14392391D01*
X9348658Y14366636D01*
X9349609Y14365366D01*
X9342509Y14360051D01*
X9227811Y14274189D01*
X9156866Y14179418D01*
X9141949Y14159491D01*
X9141947Y14159488D01*
X9091881Y14025255D01*
X9091880Y14025251D01*
X9091880Y14025250D01*
X9085500Y13965909D01*
X9085500Y13965900D01*
X9085500Y12958093D01*
X9085501Y12958087D01*
X9091879Y12898749D01*
X9141947Y12764511D01*
X9141949Y12764508D01*
X9227811Y12649811D01*
X9342508Y12563949D01*
X9342509Y12563948D01*
X9353949Y12559682D01*
X9409882Y12517810D01*
X9434299Y12452346D01*
X9419447Y12384073D01*
X9370042Y12334668D01*
X9310615Y12319500D01*
X8469385Y12319500D01*
X8402346Y12339185D01*
X8356591Y12391989D01*
X8346647Y12461147D01*
X8375672Y12524703D01*
X8426051Y12559682D01*
X8437490Y12563948D01*
X8437491Y12563949D01*
X8552189Y12649811D01*
X8638051Y12764509D01*
X8678507Y12872975D01*
X8688118Y12898744D01*
X8688120Y12898750D01*
X8694500Y12958091D01*
X8694499Y13965908D01*
X8688120Y14025250D01*
X8638051Y14159491D01*
X8552189Y14274189D01*
X8437491Y14360051D01*
X8437490Y14360051D01*
X8430391Y14365366D01*
X8431920Y14367409D01*
X8392023Y14407302D01*
X8377167Y14475575D01*
X8401581Y14541040D01*
X8428593Y14564439D01*
X8427168Y14566344D01*
X8550404Y14658595D01*
X8613376Y14742718D01*
X8637342Y14774733D01*
X8688040Y14910658D01*
X8690248Y14931199D01*
X8694499Y14970728D01*
X8694499Y14970735D01*
X8694500Y14970745D01*
X8694499Y16017254D01*
X8688040Y16077342D01*
X8637342Y16213267D01*
X8550404Y16329404D01*
X8434267Y16416342D01*
X8425046Y16419781D01*
X8402167Y16428315D01*
X8346233Y16470186D01*
X8321816Y16535651D01*
X8321500Y16544497D01*
X8321500Y17002222D01*
X8321500Y17002225D01*
X8295501Y17099254D01*
X8245276Y17186247D01*
X8174247Y17257276D01*
X8174245Y17257276D01*
X8164042Y17267480D01*
X8164037Y17267484D01*
X7666575Y17764945D01*
X7633092Y17826266D01*
X7636326Y17890938D01*
X7671088Y17997925D01*
X7681303Y18029361D01*
X7708500Y18201074D01*
X7708500Y18374925D01*
X7695413Y18457552D01*
X7681303Y18546638D01*
X7627580Y18711981D01*
X7548653Y18866884D01*
X7446465Y19007533D01*
X7323533Y19130465D01*
X7182884Y19232653D01*
X7027981Y19311580D01*
X6862638Y19365303D01*
X6690926Y19392500D01*
X6517074Y19392500D01*
X6345362Y19365303D01*
X6345359Y19365302D01*
X6345357Y19365302D01*
X6180021Y19311581D01*
X6180019Y19311580D01*
X6025116Y19232653D01*
X5884467Y19130465D01*
X5761535Y19007533D01*
X5659347Y18866884D01*
X5580418Y18711978D01*
X5526697Y18546642D01*
X5526697Y18546639D01*
X5499500Y18374925D01*
X5499500Y18201074D01*
X5526697Y18029360D01*
X5526697Y18029357D01*
X5580418Y17864021D01*
X5659347Y17709115D01*
X5669532Y17695097D01*
X5761535Y17568467D01*
X5761537Y17568465D01*
X5761537Y17568464D01*
X5884464Y17445537D01*
X6025115Y17343347D01*
X6180021Y17264418D01*
X6345358Y17210697D01*
X6482731Y17188939D01*
X6517074Y17183500D01*
X6517075Y17183500D01*
X6690925Y17183500D01*
X6690926Y17183500D01*
X6822452Y17204332D01*
X6862639Y17210697D01*
X6862642Y17210697D01*
X7001056Y17255671D01*
X7070897Y17257666D01*
X7127055Y17225421D01*
X7522181Y16830296D01*
X7536884Y16803368D01*
X7553477Y16777550D01*
X7554368Y16771349D01*
X7555666Y16768973D01*
X7558500Y16742615D01*
X7558500Y16544497D01*
X7538815Y16477458D01*
X7486011Y16431703D01*
X7477833Y16428315D01*
X7445735Y16416343D01*
X7445733Y16416342D01*
X7329595Y16329404D01*
X7286603Y16271972D01*
X7242658Y16213267D01*
X7191960Y16077342D01*
X7191959Y16077338D01*
X7191959Y16077337D01*
X7185500Y16017271D01*
X7185500Y14970748D01*
X7185501Y14970742D01*
X7191960Y14910655D01*
X7242655Y14774738D01*
X7242660Y14774730D01*
X7329595Y14658595D01*
X7445733Y14571657D01*
X7452430Y14568001D01*
X7501835Y14518594D01*
X7516685Y14450321D01*
X7492266Y14384857D01*
X7467314Y14359905D01*
X7352811Y14274189D01*
X7281866Y14179418D01*
X7266949Y14159491D01*
X7266948Y14159490D01*
X7244883Y14100330D01*
X7243053Y14097885D01*
X7242691Y14094855D01*
X7222251Y14070099D01*
X7203011Y14044397D01*
X7200150Y14043330D01*
X7198207Y14040976D01*
X7167625Y14031198D01*
X7137547Y14019980D01*
X7133687Y14020348D01*
X7131656Y14019699D01*
X7096611Y14023888D01*
X7091330Y14025303D01*
X7091328Y14025304D01*
X7062994Y14032895D01*
X7054572Y14035476D01*
X7023790Y14046130D01*
X7007194Y14051258D01*
X7005683Y14051670D01*
X6988742Y14055684D01*
X6988739Y14055684D01*
X6981651Y14056523D01*
X6981742Y14057299D01*
X6962229Y14059895D01*
X6937584Y14066500D01*
X6778416Y14066500D01*
X6624672Y14025304D01*
X6518539Y13964028D01*
X6517860Y13963636D01*
X6449960Y13947163D01*
X6383933Y13970016D01*
X6368185Y13983336D01*
X2586575Y17764946D01*
X2553092Y17826267D01*
X2556326Y17890938D01*
X2592979Y18003743D01*
X2601303Y18029361D01*
X2628500Y18201074D01*
X2628500Y18374925D01*
X2959500Y18374925D01*
X2959500Y18201074D01*
X2986697Y18029360D01*
X2986697Y18029357D01*
X3040418Y17864021D01*
X3119347Y17709115D01*
X3129532Y17695097D01*
X3221535Y17568467D01*
X3221537Y17568465D01*
X3221537Y17568464D01*
X3344464Y17445537D01*
X3485115Y17343347D01*
X3640021Y17264418D01*
X3805358Y17210697D01*
X3942731Y17188939D01*
X3977074Y17183500D01*
X3977075Y17183500D01*
X4150925Y17183500D01*
X4150926Y17183500D01*
X4282452Y17204332D01*
X4322639Y17210697D01*
X4322642Y17210697D01*
X4487978Y17264418D01*
X4642884Y17343347D01*
X4684387Y17373501D01*
X4783533Y17445535D01*
X4906465Y17568467D01*
X5008653Y17709116D01*
X5087580Y17864019D01*
X5096328Y17890942D01*
X5141302Y18029357D01*
X5141302Y18029360D01*
X5141303Y18029362D01*
X5168500Y18201074D01*
X5168500Y18374926D01*
X5141303Y18546638D01*
X5087580Y18711981D01*
X5008653Y18866884D01*
X4906465Y19007533D01*
X4783533Y19130465D01*
X4642884Y19232653D01*
X4487981Y19311580D01*
X4322638Y19365303D01*
X4150926Y19392500D01*
X3977074Y19392500D01*
X3805362Y19365303D01*
X3805359Y19365302D01*
X3805357Y19365302D01*
X3640021Y19311581D01*
X3640019Y19311580D01*
X3485116Y19232653D01*
X3344467Y19130465D01*
X3221535Y19007533D01*
X3119347Y18866884D01*
X3040418Y18711978D01*
X2986697Y18546642D01*
X2986697Y18546639D01*
X2959500Y18374925D01*
X2628500Y18374925D01*
X2615413Y18457552D01*
X2601303Y18546638D01*
X2547580Y18711981D01*
X2468653Y18866884D01*
X2366465Y19007533D01*
X2243533Y19130465D01*
X2102884Y19232653D01*
X1947981Y19311580D01*
X1782638Y19365303D01*
X1610926Y19392500D01*
X1437074Y19392500D01*
X1265362Y19365303D01*
X1265359Y19365302D01*
X1265357Y19365302D01*
X1100021Y19311581D01*
X1100019Y19311580D01*
X945116Y19232653D01*
X804467Y19130465D01*
X681535Y19007533D01*
X579347Y18866884D01*
X500418Y18711978D01*
X446697Y18546642D01*
X446697Y18546639D01*
X419500Y18374925D01*
X419500Y18201074D01*
X446697Y18029360D01*
X446697Y18029357D01*
X500418Y17864021D01*
X579347Y17709115D01*
X589532Y17695097D01*
X681535Y17568467D01*
X681537Y17568465D01*
X681537Y17568464D01*
X804464Y17445537D01*
X945115Y17343347D01*
X1100021Y17264418D01*
X1265358Y17210697D01*
X1402731Y17188939D01*
X1437074Y17183500D01*
X1437075Y17183500D01*
X1610925Y17183500D01*
X1610926Y17183500D01*
X1742452Y17204332D01*
X1782639Y17210697D01*
X1782642Y17210697D01*
X1921055Y17255671D01*
X1990896Y17257666D01*
X2047054Y17225421D01*
X6115750Y13156726D01*
X6115753Y13156724D01*
X6202747Y13106498D01*
X6299775Y13080499D01*
X6333247Y13080499D01*
X6400286Y13060814D01*
X6420928Y13044180D01*
X6486826Y12978281D01*
X6486831Y12978277D01*
X6624669Y12898697D01*
X6624670Y12898696D01*
X6686169Y12882217D01*
X6778416Y12857500D01*
X6778419Y12857500D01*
X6937583Y12857500D01*
X6937584Y12857500D01*
X6950959Y12861084D01*
X6995340Y12872975D01*
X6995340Y12872976D01*
X7002838Y12874985D01*
X7023788Y12877869D01*
X7058741Y12889964D01*
X7063022Y12891111D01*
X7091328Y12898696D01*
X7091330Y12898697D01*
X7096607Y12900111D01*
X7166457Y12898448D01*
X7224319Y12859286D01*
X7244883Y12823670D01*
X7266948Y12764509D01*
X7266949Y12764508D01*
X7352811Y12649811D01*
X7467508Y12563949D01*
X7467509Y12563948D01*
X7478949Y12559682D01*
X7534882Y12517810D01*
X7559299Y12452346D01*
X7544447Y12384073D01*
X7495042Y12334668D01*
X7435615Y12319500D01*
X1222775Y12319500D01*
X1125746Y12293501D01*
X1042605Y12245500D01*
X1038753Y12243276D01*
X1038751Y12243274D01*
X1038749Y12243273D01*
X776212Y11980735D01*
X-489946Y10714575D01*
X-551267Y10681092D01*
X-615938Y10684326D01*
X-740946Y10724944D01*
X-754361Y10729303D01*
X-840218Y10742901D01*
X-926074Y10756500D01*
X-1099926Y10756500D01*
X-1271638Y10729303D01*
X-1436024Y10675890D01*
X-1505861Y10673896D01*
X-1547224Y10693503D01*
X-1559817Y10702652D01*
X-1590499Y10724944D01*
X-1766439Y10814591D01*
X-1891637Y10855270D01*
X-1954236Y10875610D01*
X-2149264Y10906500D01*
X-2149269Y10906500D01*
X-2346731Y10906500D01*
X-2346736Y10906500D01*
X-2541763Y10875610D01*
X-2729561Y10814591D01*
X-2905501Y10724944D01*
X-2948776Y10693503D01*
X-2994615Y10660200D01*
X-3060421Y10636720D01*
X-3128475Y10652546D01*
X-3177170Y10702652D01*
X-3191500Y10760518D01*
X-3191500Y11377063D01*
X-3206266Y11451301D01*
X-3262515Y11535484D01*
X-3296234Y11558014D01*
X-3346699Y11591734D01*
X-3346702Y11591734D01*
X-3346703Y11591735D01*
X-3371666Y11596700D01*
X-3420933Y11606500D01*
X-4771066Y11606499D01*
X-4845301Y11591734D01*
X-4929484Y11535484D01*
X-4978848Y11461606D01*
X-5032457Y11416803D01*
X-5081943Y11406499D01*
X-8355120Y11406499D01*
X-8422159Y11426184D01*
X-8467914Y11478988D01*
X-8477858Y11548146D01*
X-8448833Y11611702D01*
X-8430564Y11627242D01*
X-8431323Y11628202D01*
X-8425655Y11632683D01*
X-8301684Y11756654D01*
X-8209643Y11905875D01*
X-8209641Y11905880D01*
X-8154494Y12072302D01*
X-8154493Y12072309D01*
X-8144000Y12175013D01*
X-8144000Y12450000D01*
X-9020000Y12450000D01*
X-9087039Y12469685D01*
X-9132794Y12522489D01*
X-9144000Y12574000D01*
X-9144000Y12826000D01*
X-9124315Y12893039D01*
X-9071511Y12938794D01*
X-9020000Y12950000D01*
X-8144001Y12950000D01*
X-8144001Y13224986D01*
X-8154494Y13327697D01*
X-8209641Y13494119D01*
X-8209643Y13494124D01*
X-8301684Y13643345D01*
X-8378158Y13719819D01*
X-8411643Y13781142D01*
X-8406659Y13850834D01*
X-8364787Y13906767D01*
X-8299323Y13931184D01*
X-8290477Y13931500D01*
X-7652934Y13931500D01*
X-7652930Y13931501D01*
X-7622541Y13937545D01*
X-7552949Y13931315D01*
X-7548270Y13929362D01*
X-7525640Y13919370D01*
X-7525635Y13919369D01*
X-7500908Y13916500D01*
X-7500906Y13916500D01*
X-6765091Y13916500D01*
X-6740363Y13919369D01*
X-6731539Y13921770D01*
X-6661683Y13920373D01*
X-6644725Y13913614D01*
X-6286173Y13739112D01*
X-6286160Y13739107D01*
X-6282046Y13737874D01*
X-6255656Y13726484D01*
X-6234496Y13714268D01*
X-6202330Y13695697D01*
X-6202329Y13695696D01*
X-6188005Y13691858D01*
X-6048584Y13654500D01*
X-6048581Y13654500D01*
X-5889419Y13654500D01*
X-5889416Y13654500D01*
X-5790529Y13680997D01*
X-5735670Y13695696D01*
X-5735669Y13695697D01*
X-5597831Y13775277D01*
X-5597826Y13775281D01*
X-5485281Y13887826D01*
X-5485277Y13887831D01*
X-5405697Y14025669D01*
X-5405696Y14025670D01*
X-5369840Y14159488D01*
X-5364500Y14179416D01*
X-5364500Y14338584D01*
X-5405696Y14492328D01*
X-5405696Y14492329D01*
X-5405697Y14492330D01*
X-5485277Y14630168D01*
X-5485281Y14630173D01*
X-5597826Y14742718D01*
X-5597831Y14742722D01*
X-5685548Y14793365D01*
X-5735672Y14822304D01*
X-5889416Y14863500D01*
X-5988896Y14863500D01*
X-6026936Y14874670D01*
X-6041170Y14865523D01*
X-6044004Y14864727D01*
X-6048582Y14863500D01*
X-6048584Y14863500D01*
X-6072200Y14857171D01*
X-6083102Y14855602D01*
X-6085855Y14854324D01*
X-6092273Y14854282D01*
X-6101305Y14852982D01*
X-6105700Y14852877D01*
X-6362380Y14795345D01*
X-6432102Y14799891D01*
X-6488297Y14841409D01*
X-6513126Y14906719D01*
X-6513500Y14916343D01*
X-6513500Y15023974D01*
X-6493815Y15091013D01*
X-6441011Y15136768D01*
X-6371853Y15146712D01*
X-6364947Y15145519D01*
X-6227158Y15117684D01*
X-6227133Y15117679D01*
X-6227061Y15117665D01*
X-6225748Y15117661D01*
X-6209245Y15116511D01*
X-6201533Y15115452D01*
X-6175584Y15108500D01*
X-6150867Y15108500D01*
X-6076105Y15108500D01*
X-6038064Y15097329D01*
X-6023831Y15106477D01*
X-6020990Y15107275D01*
X-6016418Y15108500D01*
X-6016416Y15108500D01*
X-5910919Y15136768D01*
X-5862670Y15149696D01*
X-5862669Y15149697D01*
X-5724831Y15229277D01*
X-5724826Y15229281D01*
X-5612281Y15341826D01*
X-5612277Y15341831D01*
X-5532697Y15479669D01*
X-5532696Y15479670D01*
X-5500120Y15601247D01*
X-5491500Y15633416D01*
X-5491500Y15792584D01*
X-5528263Y15929784D01*
X-5532696Y15946329D01*
X-5532697Y15946330D01*
X-5612277Y16084168D01*
X-5612281Y16084173D01*
X-5724826Y16196718D01*
X-5724831Y16196722D01*
X-5855169Y16271972D01*
X-5862672Y16276304D01*
X-6016416Y16317500D01*
X-6175584Y16317500D01*
X-6329328Y16276304D01*
X-6389105Y16241791D01*
X-6416122Y16230217D01*
X-6420104Y16229047D01*
X-6633176Y16117494D01*
X-6724570Y16069645D01*
X-6782084Y16055500D01*
X-7500906Y16055500D01*
X-7525635Y16052631D01*
X-7548261Y16042639D01*
X-7568397Y16040002D01*
X-7587296Y16032566D01*
X-7614173Y16034005D01*
X-7617538Y16033565D01*
X-7622527Y16034451D01*
X-7646691Y16039258D01*
X-7708600Y16071641D01*
X-7743176Y16132356D01*
X-7746500Y16160875D01*
X-7746500Y16941222D01*
X-7746500Y16941225D01*
X-7772499Y17038254D01*
X-7822724Y17125247D01*
X-7893753Y17196276D01*
X-7945018Y17247541D01*
X-7978503Y17308864D01*
X-7973519Y17378556D01*
X-7931647Y17434489D01*
X-7930227Y17435536D01*
X-7916475Y17445527D01*
X-7916464Y17445537D01*
X-7793537Y17568464D01*
X-7793537Y17568465D01*
X-7793535Y17568467D01*
X-7701532Y17695097D01*
X-7691347Y17709115D01*
X-7612418Y17864021D01*
X-7558697Y18029357D01*
X-7558697Y18029360D01*
X-7531500Y18201074D01*
X-7531500Y18374925D01*
X-7531500Y18374926D01*
X-7200500Y18374926D01*
X-7200500Y18201074D01*
X-7173303Y18029362D01*
X-7173302Y18029360D01*
X-7173302Y18029357D01*
X-7128328Y17890942D01*
X-7119580Y17864019D01*
X-7040653Y17709116D01*
X-6938465Y17568467D01*
X-6815533Y17445535D01*
X-6723345Y17378556D01*
X-6674884Y17343347D01*
X-6519978Y17264418D01*
X-6354641Y17210697D01*
X-6225854Y17190299D01*
X-6182926Y17183500D01*
X-6182925Y17183500D01*
X-6009075Y17183500D01*
X-6009074Y17183500D01*
X-5928411Y17196276D01*
X-5837360Y17210697D01*
X-5837357Y17210697D01*
X-5698943Y17255671D01*
X-5629102Y17257666D01*
X-5572944Y17225421D01*
X-3592819Y15245296D01*
X-3559334Y15183973D01*
X-3556500Y15157615D01*
X-3556500Y13599200D01*
X-3563318Y13558651D01*
X-3731951Y13071330D01*
X-3738304Y13060328D01*
X-3747036Y13027737D01*
X-3759130Y12992790D01*
X-3764258Y12976194D01*
X-3764670Y12974683D01*
X-3768600Y12958093D01*
X-3768684Y12957740D01*
X-3769523Y12950651D01*
X-3770299Y12950742D01*
X-3772895Y12931229D01*
X-3779500Y12906584D01*
X-3779500Y12747416D01*
X-3738304Y12593672D01*
X-3732773Y12584092D01*
X-3658722Y12455831D01*
X-3658718Y12455826D01*
X-3546173Y12343281D01*
X-3546168Y12343277D01*
X-3408330Y12263697D01*
X-3408329Y12263696D01*
X-3369892Y12253397D01*
X-3254584Y12222500D01*
X-3254581Y12222500D01*
X-3095419Y12222500D01*
X-3095416Y12222500D01*
X-3003169Y12247217D01*
X-2941670Y12263696D01*
X-2941669Y12263697D01*
X-2803831Y12343277D01*
X-2803826Y12343281D01*
X-2691181Y12455927D01*
X-2629858Y12489412D01*
X-2560166Y12484428D01*
X-2515819Y12455927D01*
X-2403173Y12343281D01*
X-2403168Y12343277D01*
X-2265330Y12263697D01*
X-2265329Y12263696D01*
X-2226892Y12253397D01*
X-2111584Y12222500D01*
X-2111581Y12222500D01*
X-1952419Y12222500D01*
X-1952416Y12222500D01*
X-1860169Y12247217D01*
X-1798670Y12263696D01*
X-1798669Y12263697D01*
X-1653790Y12347343D01*
X-1652567Y12345225D01*
X-1598919Y12365951D01*
X-1530478Y12351896D01*
X-1500951Y12330059D01*
X-1387173Y12216281D01*
X-1387168Y12216277D01*
X-1249330Y12136697D01*
X-1249329Y12136696D01*
X-1210892Y12126397D01*
X-1095584Y12095500D01*
X-1095581Y12095500D01*
X-936419Y12095500D01*
X-936416Y12095500D01*
X-844169Y12120217D01*
X-782670Y12136696D01*
X-782669Y12136697D01*
X-644831Y12216277D01*
X-644826Y12216281D01*
X-532281Y12328826D01*
X-532277Y12328831D01*
X-452697Y12466669D01*
X-452696Y12466670D01*
X-426631Y12563948D01*
X-411500Y12620416D01*
X-411500Y12779584D01*
X-411500Y12779585D01*
X-426976Y12837344D01*
X-426975Y12837344D01*
X-428985Y12844846D01*
X-431869Y12865790D01*
X-443966Y12900749D01*
X-452696Y12933328D01*
X-453128Y12934077D01*
X-462918Y12955518D01*
X-623396Y13419265D01*
X-627682Y13431651D01*
X-634500Y13472201D01*
X-634500Y17166787D01*
X-614815Y17233826D01*
X-566795Y17277272D01*
X-437115Y17343347D01*
X-341338Y17412934D01*
X-296467Y17445535D01*
X-296465Y17445537D01*
X-296464Y17445537D01*
X-173537Y17568464D01*
X-173537Y17568465D01*
X-173535Y17568467D01*
X-81532Y17695097D01*
X-71347Y17709115D01*
X7581Y17864021D01*
X61302Y18029357D01*
X61302Y18029360D01*
X61303Y18029362D01*
X88500Y18201074D01*
X88500Y18374926D01*
X61303Y18546638D01*
X7580Y18711981D01*
X-71347Y18866884D01*
X-173535Y19007533D01*
X-296467Y19130465D01*
X-437116Y19232653D01*
X-592019Y19311580D01*
X-592021Y19311581D01*
X-757358Y19365302D01*
X-757359Y19365302D01*
X-757362Y19365303D01*
X-929074Y19392500D01*
X-1102926Y19392500D01*
X-1274638Y19365303D01*
X-1274641Y19365302D01*
X-1274642Y19365302D01*
X-1409500Y19321484D01*
X-1439981Y19311580D01*
X-1594884Y19232653D01*
X-1735533Y19130465D01*
X-1858465Y19007533D01*
X-1960653Y18866884D01*
X-2039580Y18711981D01*
X-2093303Y18546638D01*
X-2120500Y18374926D01*
X-2120500Y18201074D01*
X-2093303Y18029362D01*
X-2093302Y18029360D01*
X-2093302Y18029357D01*
X-2048328Y17890942D01*
X-2039580Y17864019D01*
X-1960653Y17709116D01*
X-1858465Y17568467D01*
X-1735533Y17445535D01*
X-1643345Y17378556D01*
X-1594884Y17343347D01*
X-1465205Y17277272D01*
X-1414409Y17229297D01*
X-1397500Y17166787D01*
X-1397500Y13584752D01*
X-1401706Y13570425D01*
X-1400997Y13555512D01*
X-1411351Y13537579D01*
X-1417185Y13517713D01*
X-1428467Y13507936D01*
X-1435935Y13495004D01*
X-1454342Y13485515D01*
X-1469989Y13471958D01*
X-1484767Y13469833D01*
X-1498039Y13462992D01*
X-1518650Y13464961D01*
X-1539147Y13462014D01*
X-1552729Y13468217D01*
X-1567592Y13469637D01*
X-1583866Y13482436D01*
X-1602703Y13491039D01*
X-1611691Y13504320D01*
X-1622511Y13512830D01*
X-1638682Y13544202D01*
X-1643682Y13558651D01*
X-1650500Y13599201D01*
X-1650500Y16814222D01*
X-1650500Y16814225D01*
X-1676499Y16911254D01*
X-1726724Y16998247D01*
X-1797753Y17069276D01*
X-1804818Y17076341D01*
X-1804824Y17076346D01*
X-2493421Y17764943D01*
X-2526906Y17826266D01*
X-2523671Y17890942D01*
X-2478697Y18029357D01*
X-2478697Y18029360D01*
X-2451500Y18201074D01*
X-2451500Y18374925D01*
X-2478697Y18546639D01*
X-2478697Y18546642D01*
X-2532418Y18711978D01*
X-2611347Y18866884D01*
X-2713535Y19007533D01*
X-2836467Y19130465D01*
X-2977116Y19232653D01*
X-3132019Y19311580D01*
X-3132021Y19311581D01*
X-3297358Y19365302D01*
X-3297359Y19365302D01*
X-3297362Y19365303D01*
X-3469074Y19392500D01*
X-3642926Y19392500D01*
X-3814638Y19365303D01*
X-3814641Y19365302D01*
X-3814642Y19365302D01*
X-3949500Y19321484D01*
X-3979981Y19311580D01*
X-4134884Y19232653D01*
X-4275533Y19130465D01*
X-4398465Y19007533D01*
X-4500653Y18866884D01*
X-4579580Y18711981D01*
X-4633303Y18546638D01*
X-4660500Y18374926D01*
X-4660500Y18201074D01*
X-4633303Y18029362D01*
X-4633302Y18029360D01*
X-4633302Y18029357D01*
X-4588328Y17890942D01*
X-4579580Y17864019D01*
X-4500653Y17709116D01*
X-4398465Y17568467D01*
X-4275533Y17445535D01*
X-4183345Y17378556D01*
X-4134884Y17343347D01*
X-3979978Y17264418D01*
X-3814641Y17210697D01*
X-3685854Y17190299D01*
X-3642926Y17183500D01*
X-3642925Y17183500D01*
X-3469075Y17183500D01*
X-3469074Y17183500D01*
X-3388411Y17196276D01*
X-3297360Y17210697D01*
X-3297357Y17210697D01*
X-3158942Y17255671D01*
X-3089100Y17257666D01*
X-3032943Y17225421D01*
X-2718777Y16911254D01*
X-2449819Y16642296D01*
X-2416334Y16580973D01*
X-2413500Y16554615D01*
X-2413500Y13599200D01*
X-2416050Y13590514D01*
X-2414762Y13581552D01*
X-2420318Y13558651D01*
X-2486318Y13367922D01*
X-2526842Y13311007D01*
X-2591705Y13285035D01*
X-2660313Y13298254D01*
X-2710883Y13346467D01*
X-2720681Y13367922D01*
X-2738449Y13419267D01*
X-2786682Y13558652D01*
X-2793500Y13599201D01*
X-2793500Y15309162D01*
X-2793499Y15309180D01*
X-2793499Y15417222D01*
X-2793498Y15417222D01*
X-2810231Y15479669D01*
X-2819498Y15514253D01*
X-2869724Y15601247D01*
X-5033421Y17764944D01*
X-5066906Y17826267D01*
X-5063671Y17890943D01*
X-5018697Y18029357D01*
X-5018697Y18029360D01*
X-4991500Y18201074D01*
X-4991500Y18374925D01*
X-5018697Y18546639D01*
X-5018697Y18546642D01*
X-5072418Y18711978D01*
X-5151347Y18866884D01*
X-5253535Y19007533D01*
X-5376467Y19130465D01*
X-5517116Y19232653D01*
X-5672019Y19311580D01*
X-5672021Y19311581D01*
X-5837358Y19365302D01*
X-5837359Y19365302D01*
X-5837362Y19365303D01*
X-6009074Y19392500D01*
X-6182926Y19392500D01*
X-6354638Y19365303D01*
X-6354641Y19365302D01*
X-6354642Y19365302D01*
X-6489500Y19321484D01*
X-6519981Y19311580D01*
X-6674884Y19232653D01*
X-6815533Y19130465D01*
X-6938465Y19007533D01*
X-7040653Y18866884D01*
X-7119580Y18711981D01*
X-7173303Y18546638D01*
X-7200500Y18374926D01*
X-7531500Y18374926D01*
X-7558697Y18546639D01*
X-7558697Y18546642D01*
X-7612418Y18711978D01*
X-7691347Y18866884D01*
X-7793535Y19007533D01*
X-7916467Y19130465D01*
X-8057116Y19232653D01*
X-8212019Y19311580D01*
X-8212021Y19311581D01*
X-8377358Y19365302D01*
X-8377359Y19365302D01*
X-8377362Y19365303D01*
X-8549074Y19392500D01*
X-8722926Y19392500D01*
X-8894638Y19365303D01*
X-8894641Y19365302D01*
X-8894642Y19365302D01*
X-9029500Y19321484D01*
X-9059981Y19311580D01*
X-9214884Y19232653D01*
X-9355533Y19130465D01*
X-9478465Y19007533D01*
X-9580653Y18866884D01*
X-9659580Y18711981D01*
X-9713303Y18546638D01*
X-9740500Y18374926D01*
X-9740500Y18201074D01*
X-9713303Y18029362D01*
X-9713302Y18029360D01*
X-9713302Y18029357D01*
X-9668328Y17890942D01*
X-9659580Y17864019D01*
X-9580653Y17709116D01*
X-9532054Y17642225D01*
X-9498749Y17596386D01*
X-9475269Y17530580D01*
X-9491094Y17462526D01*
X-9541200Y17413831D01*
X-9599067Y17399500D01*
X-9947500Y17399500D01*
X-10014539Y17419185D01*
X-10060294Y17471989D01*
X-10071500Y17523500D01*
X-10071500Y19163063D01*
X-10086266Y19237301D01*
X-10142515Y19321484D01*
X-10176234Y19344014D01*
X-10226699Y19377734D01*
X-10226702Y19377734D01*
X-10226703Y19377735D01*
X-10251666Y19382700D01*
X-10300933Y19392500D01*
X-12051066Y19392499D01*
X-12125301Y19377734D01*
X-12209484Y19321484D01*
X-12265734Y19237301D01*
X-12280500Y19163067D01*
X-12280499Y17412934D01*
X-12265734Y17338699D01*
X-12265526Y17338388D01*
X-12265283Y17337612D01*
X-12261060Y17327416D01*
X-12261972Y17327037D01*
X-12244650Y17271712D01*
X-12263135Y17204332D01*
X-12315115Y17157642D01*
X-12368630Y17145500D01*
X-13912163Y17145500D01*
X-13912179Y17145501D01*
X-13919775Y17145501D01*
X-14020225Y17145501D01*
X-14117253Y17119502D01*
X-14204247Y17069276D01*
X-14966247Y16307276D01*
X-15037276Y16236247D01*
X-15087501Y16149254D01*
X-15113500Y16052225D01*
X-15113500Y16052222D01*
X-15113500Y7391288D01*
X-15133185Y7324249D01*
X-15185989Y7278494D01*
X-15227012Y7268419D01*
X-15226952Y7267854D01*
X-15230254Y7267499D01*
X-15290342Y7261040D01*
X-15426267Y7210342D01*
X-15542404Y7123404D01*
X-15629342Y7007267D01*
X-15680040Y6871342D01*
X-15682800Y6845664D01*
X-15686499Y6811271D01*
X-15686499Y6811264D01*
X-15686500Y6811255D01*
X-16255500Y6811255D01*
X-16255500Y19403270D01*
X10922282Y19403270D01*
X10922282Y19403269D01*
X11684000Y18641554D01*
X12445717Y19403270D01*
X12391554Y19442622D01*
X12202217Y19539095D01*
X12000129Y19604757D01*
X11790246Y19638000D01*
X11577754Y19638000D01*
X11367872Y19604757D01*
X11367869Y19604757D01*
X11165782Y19539095D01*
X10976449Y19442624D01*
X10922282Y19403270D01*
X-16255500Y19403270D01*
X-16255500Y19941500D01*
X-16235815Y20008539D01*
X-16183011Y20054294D01*
X-16131500Y20065500D01*
X16131500Y20065500D01*
X16198539Y20045815D01*
G37*
%TD.AperFunction*%
%TD*%
%TA.AperFunction,Conductor*%
%TO.N,+3V0*%
G36*
X-14604446Y4319973D02*
G01*
X-14601963Y4316303D01*
X-14395351Y3833486D01*
X-14395246Y3824532D01*
X-14399581Y3819172D01*
X-14678501Y3631845D01*
X-14687275Y3630078D01*
X-15013628Y3695945D01*
X-15021059Y3700941D01*
X-15022782Y3709729D01*
X-15022617Y3710431D01*
X-14861318Y4314717D01*
X-14855874Y4321827D01*
X-14850014Y4323400D01*
X-14612719Y4323400D01*
X-14604446Y4319973D01*
G37*
%TD.AperFunction*%
%TD*%
%TA.AperFunction,Conductor*%
%TO.N,LATCHED_POWER*%
G36*
X-11325225Y12887823D02*
G01*
X-11323865Y12887045D01*
X-11045259Y12702013D01*
X-11041987Y12698741D01*
X-10899218Y12483773D01*
X-10856954Y12420134D01*
X-10855231Y12411346D01*
X-10860227Y12403915D01*
X-10861575Y12403143D01*
X-11436924Y12123618D01*
X-11445860Y12123086D01*
X-11450307Y12125870D01*
X-11618129Y12293692D01*
X-11621556Y12301965D01*
X-11620380Y12307078D01*
X-11340862Y12882412D01*
X-11334164Y12888356D01*
X-11325225Y12887823D01*
G37*
%TD.AperFunction*%
%TD*%
%TA.AperFunction,Conductor*%
%TO.N,LATCHED_POWER*%
G36*
X-14093909Y9122037D02*
G01*
X-14093518Y9121627D01*
X-13723085Y8713476D01*
X-13720063Y8705047D01*
X-13723886Y8696949D01*
X-13725216Y8695907D01*
X-14003043Y8509313D01*
X-14007311Y8507546D01*
X-14334381Y8443441D01*
X-14343158Y8445213D01*
X-14348113Y8452673D01*
X-14348331Y8454876D01*
X-14350953Y9113717D01*
X-14347559Y9122004D01*
X-14339300Y9125464D01*
X-14102182Y9125464D01*
X-14093909Y9122037D01*
G37*
%TD.AperFunction*%
%TD*%
%TA.AperFunction,Conductor*%
%TO.N,BUZZER*%
G36*
X-10468227Y15299480D02*
G01*
X-10462530Y15292570D01*
X-10462252Y15291473D01*
X-10426154Y15112615D01*
X-10395988Y14963151D01*
X-10395988Y14958522D01*
X-10462058Y14631157D01*
X-10467054Y14623728D01*
X-10475842Y14622005D01*
X-10477743Y14622560D01*
X-10585494Y14664185D01*
X-11082313Y14856109D01*
X-11088795Y14862286D01*
X-11089796Y14867022D01*
X-11089796Y15104342D01*
X-11086369Y15112615D01*
X-11081517Y15115531D01*
X-10477140Y15300338D01*
X-10468227Y15299480D01*
G37*
%TD.AperFunction*%
%TD*%
%TA.AperFunction,Conductor*%
%TO.N,PGATE*%
G36*
X-6284602Y15995307D02*
G01*
X-6118507Y15748000D01*
X-6097721Y15717052D01*
X-6095953Y15708276D01*
X-6161967Y15381192D01*
X-6166962Y15373764D01*
X-6175748Y15372041D01*
X-6770068Y15492104D01*
X-6777499Y15497101D01*
X-6779451Y15503572D01*
X-6779451Y15740919D01*
X-6776024Y15749192D01*
X-6773178Y15751284D01*
X-6299742Y15999149D01*
X-6290823Y15999951D01*
X-6284602Y15995307D01*
G37*
%TD.AperFunction*%
%TD*%
%TA.AperFunction,Conductor*%
%TO.N,NGATE*%
G36*
X-9819532Y15939238D02*
G01*
X-9814574Y15931780D01*
X-9814554Y15931676D01*
X-9714554Y15397086D01*
X-9716402Y15388327D01*
X-9717777Y15386670D01*
X-9885588Y15218859D01*
X-9893860Y15215433D01*
X-9901210Y15218030D01*
X-9906974Y15222684D01*
X-9962783Y15267745D01*
X-9965562Y15270994D01*
X-9973776Y15285220D01*
X-10072137Y15383581D01*
X-10191070Y15452248D01*
X-10192546Y15453261D01*
X-10346156Y15577289D01*
X-10350440Y15585152D01*
X-10348552Y15592865D01*
X-10163408Y15871639D01*
X-10155977Y15876635D01*
X-10155917Y15876647D01*
X-9828310Y15941006D01*
X-9819532Y15939238D01*
G37*
%TD.AperFunction*%
%TD*%
%TA.AperFunction,Conductor*%
%TO.N,+3V0*%
G36*
X-6040123Y14598125D02*
G01*
X-6034969Y14590802D01*
X-6034920Y14590575D01*
X-5968965Y14263783D01*
X-5970687Y14254998D01*
X-6157773Y13976438D01*
X-6165230Y13971481D01*
X-6172605Y13972442D01*
X-6359412Y14063358D01*
X-6652084Y14205798D01*
X-6658023Y14212498D01*
X-6658664Y14216317D01*
X-6658664Y14453631D01*
X-6655237Y14461904D01*
X-6649523Y14465048D01*
X-6048945Y14599660D01*
X-6040123Y14598125D01*
G37*
%TD.AperFunction*%
%TD*%
%TA.AperFunction,Conductor*%
%TO.N,NGATE*%
G36*
X-12444277Y8412526D02*
G01*
X-12442576Y8410370D01*
X-12160855Y7951020D01*
X-12159451Y7942176D01*
X-12164305Y7935190D01*
X-12441949Y7748720D01*
X-12450723Y7746953D01*
X-12778384Y7813084D01*
X-12785814Y7818079D01*
X-12787641Y7826272D01*
X-12701483Y8405973D01*
X-12696877Y8413652D01*
X-12689910Y8415953D01*
X-12452550Y8415953D01*
X-12444277Y8412526D01*
G37*
%TD.AperFunction*%
%TD*%
%TA.AperFunction,Conductor*%
%TO.N,NGATE*%
G36*
X-12242843Y9840365D02*
G01*
X-12235412Y9835369D01*
X-12233689Y9826581D01*
X-12234098Y9825080D01*
X-12443275Y9220599D01*
X-12449219Y9213901D01*
X-12454332Y9212725D01*
X-12691668Y9212725D01*
X-12699941Y9216152D01*
X-12702725Y9220599D01*
X-12911898Y9825070D01*
X-12911365Y9834009D01*
X-12904667Y9839953D01*
X-12903156Y9840365D01*
X-12575315Y9906532D01*
X-12570685Y9906532D01*
X-12242843Y9840365D01*
G37*
%TD.AperFunction*%
%TD*%
%TA.AperFunction,Conductor*%
%TO.N,GND*%
G36*
X-10341979Y8555584D02*
G01*
X-10521584Y8375979D01*
X-11116450Y8664986D01*
X-10922707Y8956707D01*
X-10630986Y9150450D01*
X-10341979Y8555584D01*
G37*
%TD.AperFunction*%
%TD*%
%TA.AperFunction,Conductor*%
%TO.N,GND*%
G36*
X-8800725Y16191718D02*
G01*
X-8996000Y15636000D01*
X-9250000Y15636000D01*
X-9435014Y16065550D01*
X-9144000Y16261000D01*
X-8800725Y16191718D01*
G37*
%TD.AperFunction*%
%TD*%
%TA.AperFunction,Conductor*%
%TO.N,+3V0*%
G36*
X-11823842Y-18607634D02*
G01*
X-11816412Y-18612630D01*
X-11814689Y-18621418D01*
X-11815101Y-18622929D01*
X-12024275Y-19227401D01*
X-12030219Y-19234099D01*
X-12035332Y-19235275D01*
X-12272668Y-19235275D01*
X-12280941Y-19231848D01*
X-12283725Y-19227401D01*
X-12492898Y-18622929D01*
X-12492365Y-18613990D01*
X-12485667Y-18608046D01*
X-12484159Y-18607634D01*
X-12156314Y-18541467D01*
X-12151686Y-18541467D01*
X-11823842Y-18607634D01*
G37*
%TD.AperFunction*%
%TD*%
%TA.AperFunction,Conductor*%
%TO.N,+3V0*%
G36*
X-12027059Y-17852152D02*
G01*
X-12024275Y-17856598D01*
X-11815101Y-18461071D01*
X-11815634Y-18470009D01*
X-11822332Y-18475953D01*
X-11823843Y-18476365D01*
X-12151685Y-18542532D01*
X-12156315Y-18542532D01*
X-12484156Y-18476365D01*
X-12491587Y-18471369D01*
X-12493310Y-18462581D01*
X-12492898Y-18461070D01*
X-12283725Y-17856599D01*
X-12277781Y-17849901D01*
X-12272668Y-17848725D01*
X-12035332Y-17848725D01*
X-12027059Y-17852152D01*
G37*
%TD.AperFunction*%
%TD*%
%TA.AperFunction,Conductor*%
%TO.N,~{RST}*%
G36*
X-6495915Y6975772D02*
G01*
X-6495140Y6974417D01*
X-6215618Y6399076D01*
X-6215086Y6390139D01*
X-6217868Y6385694D01*
X-6385693Y6217869D01*
X-6393965Y6214443D01*
X-6399074Y6215618D01*
X-6974412Y6495137D01*
X-6980356Y6501835D01*
X-6979823Y6510774D01*
X-6979045Y6512134D01*
X-6794013Y6790740D01*
X-6790740Y6794013D01*
X-6512134Y6979045D01*
X-6503346Y6980768D01*
X-6495915Y6975772D01*
G37*
%TD.AperFunction*%
%TD*%
%TA.AperFunction,Conductor*%
%TO.N,~{RST}*%
G36*
X-6863990Y7130365D02*
G01*
X-6858046Y7123667D01*
X-6857634Y7122156D01*
X-6791467Y6794315D01*
X-6791467Y6789685D01*
X-6857634Y6461843D01*
X-6862630Y6454412D01*
X-6871418Y6452689D01*
X-6872923Y6453099D01*
X-7477401Y6662275D01*
X-7484099Y6668219D01*
X-7485275Y6673332D01*
X-7485275Y6910667D01*
X-7481848Y6918940D01*
X-7477401Y6921724D01*
X-6872929Y7130898D01*
X-6863990Y7130365D01*
G37*
%TD.AperFunction*%
%TD*%
%TA.AperFunction,Conductor*%
%TO.N,~{RST}*%
G36*
X-889059Y13389848D02*
G01*
X-886275Y13385401D01*
X-677101Y12780929D01*
X-677634Y12771990D01*
X-684332Y12766046D01*
X-685836Y12765635D01*
X-1013686Y12699467D01*
X-1018314Y12699467D01*
X-1346156Y12765634D01*
X-1353587Y12770630D01*
X-1355310Y12779418D01*
X-1354898Y12780929D01*
X-1145725Y13385401D01*
X-1139781Y13392099D01*
X-1134668Y13393275D01*
X-897332Y13393275D01*
X-889059Y13389848D01*
G37*
%TD.AperFunction*%
%TD*%
%TA.AperFunction,Conductor*%
%TO.N,TPICLK*%
G36*
X-10261692Y4511129D02*
G01*
X-10093870Y4343307D01*
X-10090443Y4335034D01*
X-10091617Y4329926D01*
X-10371138Y3754585D01*
X-10377835Y3748643D01*
X-10386774Y3749176D01*
X-10388134Y3749954D01*
X-10451773Y3792218D01*
X-10666741Y3934987D01*
X-10670013Y3938259D01*
X-10855045Y4216865D01*
X-10856768Y4225653D01*
X-10851772Y4233084D01*
X-10850412Y4233862D01*
X-10275078Y4513380D01*
X-10266139Y4513913D01*
X-10261692Y4511129D01*
G37*
%TD.AperFunction*%
%TD*%
%TA.AperFunction,Conductor*%
%TO.N,TPICLK*%
G36*
X-1905059Y13516848D02*
G01*
X-1902275Y13512401D01*
X-1693101Y12907929D01*
X-1693634Y12898990D01*
X-1700332Y12893046D01*
X-1701836Y12892635D01*
X-2029686Y12826467D01*
X-2034314Y12826467D01*
X-2362156Y12892634D01*
X-2369587Y12897630D01*
X-2371310Y12906418D01*
X-2370898Y12907929D01*
X-2161725Y13512401D01*
X-2155781Y13519099D01*
X-2150668Y13520275D01*
X-1913332Y13520275D01*
X-1905059Y13516848D01*
G37*
%TD.AperFunction*%
%TD*%
%TA.AperFunction,Conductor*%
%TO.N,PZ+*%
G36*
X11037078Y11752380D02*
G01*
X11612412Y11472862D01*
X11618356Y11466164D01*
X11617823Y11457225D01*
X11617045Y11455865D01*
X11432013Y11177259D01*
X11428741Y11173987D01*
X11213773Y11031218D01*
X11150134Y10988954D01*
X11141346Y10987231D01*
X11133915Y10992227D01*
X11133143Y10993575D01*
X10853618Y11568924D01*
X10853086Y11577860D01*
X10855870Y11582307D01*
X11023692Y11750129D01*
X11031965Y11753556D01*
X11037078Y11752380D01*
G37*
%TD.AperFunction*%
%TD*%
%TA.AperFunction,Conductor*%
%TO.N,PZ+*%
G36*
X11760156Y11110365D02*
G01*
X11767587Y11105369D01*
X11769310Y11096581D01*
X11768898Y11095070D01*
X11559725Y10490599D01*
X11553781Y10483901D01*
X11548668Y10482725D01*
X11311332Y10482725D01*
X11303059Y10486152D01*
X11300275Y10490599D01*
X11091101Y11095071D01*
X11091634Y11104009D01*
X11098332Y11109953D01*
X11099843Y11110365D01*
X11427685Y11176532D01*
X11432315Y11176532D01*
X11760156Y11110365D01*
G37*
%TD.AperFunction*%
%TD*%
%TA.AperFunction,Conductor*%
%TO.N,NGATE*%
G36*
X10875923Y-1693099D02*
G01*
X11480401Y-1902275D01*
X11487099Y-1908219D01*
X11488275Y-1913332D01*
X11488275Y-2150667D01*
X11484848Y-2158940D01*
X11480401Y-2161724D01*
X10875929Y-2370898D01*
X10866990Y-2370365D01*
X10861046Y-2363667D01*
X10860634Y-2362156D01*
X10794467Y-2034315D01*
X10794467Y-2029685D01*
X10860634Y-1701843D01*
X10865630Y-1694412D01*
X10874418Y-1692689D01*
X10875923Y-1693099D01*
G37*
%TD.AperFunction*%
%TD*%
%TA.AperFunction,Conductor*%
%TO.N,NGATE*%
G36*
X10875923Y-12869099D02*
G01*
X11480401Y-13078275D01*
X11487099Y-13084219D01*
X11488275Y-13089332D01*
X11488275Y-13326667D01*
X11484848Y-13334940D01*
X11480401Y-13337724D01*
X10875929Y-13546898D01*
X10866990Y-13546365D01*
X10861046Y-13539667D01*
X10860634Y-13538156D01*
X10794467Y-13210315D01*
X10794467Y-13205685D01*
X10860634Y-12877843D01*
X10865630Y-12870412D01*
X10874418Y-12868689D01*
X10875923Y-12869099D01*
G37*
%TD.AperFunction*%
%TD*%
%TA.AperFunction,Conductor*%
%TO.N,NGATE*%
G36*
X-13423842Y-17210634D02*
G01*
X-13416412Y-17215630D01*
X-13414689Y-17224418D01*
X-13415101Y-17225929D01*
X-13624275Y-17830401D01*
X-13630219Y-17837099D01*
X-13635332Y-17838275D01*
X-13872668Y-17838275D01*
X-13880941Y-17834848D01*
X-13883725Y-17830401D01*
X-14092898Y-17225929D01*
X-14092365Y-17216990D01*
X-14085667Y-17211046D01*
X-14084159Y-17210634D01*
X-13756314Y-17144467D01*
X-13751686Y-17144467D01*
X-13423842Y-17210634D01*
G37*
%TD.AperFunction*%
%TD*%
%TA.AperFunction,Conductor*%
%TO.N,NGATE*%
G36*
X-12115843Y7681365D02*
G01*
X-12108412Y7676369D01*
X-12106689Y7667581D01*
X-12107098Y7666080D01*
X-12316275Y7061599D01*
X-12322219Y7054901D01*
X-12327332Y7053725D01*
X-12564668Y7053725D01*
X-12572941Y7057152D01*
X-12575725Y7061599D01*
X-12784898Y7666070D01*
X-12784365Y7675009D01*
X-12777667Y7680953D01*
X-12776156Y7681365D01*
X-12448315Y7747532D01*
X-12443685Y7747532D01*
X-12115843Y7681365D01*
G37*
%TD.AperFunction*%
%TD*%
%TA.AperFunction,Conductor*%
%TO.N,NGATE*%
G36*
X-13627059Y-16455152D02*
G01*
X-13624275Y-16459598D01*
X-13415101Y-17064071D01*
X-13415634Y-17073009D01*
X-13422332Y-17078953D01*
X-13423843Y-17079365D01*
X-13751685Y-17145532D01*
X-13756315Y-17145532D01*
X-14084156Y-17079365D01*
X-14091587Y-17074369D01*
X-14093310Y-17065581D01*
X-14092898Y-17064070D01*
X-13883725Y-16459599D01*
X-13877781Y-16452901D01*
X-13872668Y-16451725D01*
X-13635332Y-16451725D01*
X-13627059Y-16455152D01*
G37*
%TD.AperFunction*%
%TD*%
%TA.AperFunction,Conductor*%
%TO.N,NGATE*%
G36*
X6863242Y13574775D02*
G01*
X6864725Y13569074D01*
X6864725Y13348826D01*
X6861298Y13340553D01*
X6853025Y13337126D01*
X6851096Y13337286D01*
X6547595Y13388203D01*
X6540006Y13392951D01*
X6537995Y13401677D01*
X6542744Y13409269D01*
X6543833Y13409958D01*
X6847324Y13579291D01*
X6856219Y13580330D01*
X6863242Y13574775D01*
G37*
%TD.AperFunction*%
%TD*%
%TA.AperFunction,Conductor*%
%TO.N,NGATE*%
G36*
X6938929Y13800898D02*
G01*
X7543401Y13591724D01*
X7550099Y13585780D01*
X7551275Y13580667D01*
X7551275Y13343332D01*
X7547848Y13335059D01*
X7543401Y13332275D01*
X6938927Y13123101D01*
X6929990Y13123634D01*
X6924046Y13130332D01*
X6923634Y13131843D01*
X6857467Y13459685D01*
X6857467Y13464315D01*
X6923634Y13792156D01*
X6928630Y13799587D01*
X6937418Y13801310D01*
X6938929Y13800898D01*
G37*
%TD.AperFunction*%
%TD*%
%TA.AperFunction,Conductor*%
%TO.N,NGATE*%
G36*
X10828239Y-1353219D02*
G01*
X10830299Y-1356005D01*
X11081065Y-1828232D01*
X11081919Y-1837146D01*
X11077255Y-1843432D01*
X10799052Y-2030278D01*
X10790274Y-2032046D01*
X10790214Y-2032034D01*
X10463146Y-1966023D01*
X10455715Y-1961027D01*
X10453983Y-1952287D01*
X10571137Y-1359225D01*
X10576102Y-1351772D01*
X10582615Y-1349792D01*
X10819966Y-1349792D01*
X10828239Y-1353219D01*
G37*
%TD.AperFunction*%
%TD*%
%TA.AperFunction,Conductor*%
%TO.N,LATCHED_POWER*%
G36*
X-13589059Y-326152D02*
G01*
X-13586275Y-330598D01*
X-13377101Y-935071D01*
X-13377634Y-944009D01*
X-13384332Y-949953D01*
X-13385843Y-950365D01*
X-13713685Y-1016532D01*
X-13718315Y-1016532D01*
X-14046156Y-950365D01*
X-14053587Y-945369D01*
X-14055310Y-936581D01*
X-14054898Y-935070D01*
X-13845725Y-330599D01*
X-13839781Y-323901D01*
X-13834668Y-322725D01*
X-13597332Y-322725D01*
X-13589059Y-326152D01*
G37*
%TD.AperFunction*%
%TD*%
%TA.AperFunction,Conductor*%
%TO.N,LATCHED_POWER*%
G36*
X-11067902Y13354756D02*
G01*
X-11066516Y13353086D01*
X-10759643Y12904188D01*
X-10757803Y12895424D01*
X-10762698Y12887927D01*
X-11039949Y12701720D01*
X-11048723Y12699953D01*
X-11376820Y12766172D01*
X-11384250Y12771167D01*
X-11386137Y12778888D01*
X-11325121Y13347731D01*
X-11320832Y13355591D01*
X-11313488Y13358183D01*
X-11076175Y13358183D01*
X-11067902Y13354756D01*
G37*
%TD.AperFunction*%
%TD*%
%TA.AperFunction,Conductor*%
%TO.N,LATCHED_POWER*%
G36*
X-10713843Y12634365D02*
G01*
X-10706412Y12629369D01*
X-10704689Y12620581D01*
X-10705098Y12619080D01*
X-10914275Y12014599D01*
X-10920219Y12007901D01*
X-10925332Y12006725D01*
X-11162668Y12006725D01*
X-11170941Y12010152D01*
X-11173725Y12014599D01*
X-11382898Y12619070D01*
X-11382365Y12628009D01*
X-11375667Y12633953D01*
X-11374156Y12634365D01*
X-11046315Y12700532D01*
X-11041685Y12700532D01*
X-10713843Y12634365D01*
G37*
%TD.AperFunction*%
%TD*%
%TA.AperFunction,Conductor*%
%TO.N,Net-(D2-A)*%
G36*
X-15286080Y-13123098D02*
G01*
X-14681598Y-13332275D01*
X-14674901Y-13338219D01*
X-14673725Y-13343332D01*
X-14673725Y-13580667D01*
X-14677152Y-13588940D01*
X-14681599Y-13591724D01*
X-15286070Y-13800898D01*
X-15295009Y-13800365D01*
X-15300953Y-13793667D01*
X-15301365Y-13792156D01*
X-15367532Y-13464315D01*
X-15367532Y-13459685D01*
X-15301365Y-13131843D01*
X-15296369Y-13124412D01*
X-15287581Y-13122689D01*
X-15286080Y-13123098D01*
G37*
%TD.AperFunction*%
%TD*%
%TA.AperFunction,Conductor*%
%TO.N,Net-(D2-A)*%
G36*
X-15286080Y-4487098D02*
G01*
X-14681598Y-4696275D01*
X-14674901Y-4702219D01*
X-14673725Y-4707332D01*
X-14673725Y-4944667D01*
X-14677152Y-4952940D01*
X-14681599Y-4955724D01*
X-15286070Y-5164898D01*
X-15295009Y-5164365D01*
X-15300953Y-5157667D01*
X-15301365Y-5156156D01*
X-15367532Y-4828315D01*
X-15367532Y-4823685D01*
X-15301365Y-4495843D01*
X-15296369Y-4488412D01*
X-15287581Y-4486689D01*
X-15286080Y-4487098D01*
G37*
%TD.AperFunction*%
%TD*%
%TA.AperFunction,Conductor*%
%TO.N,DATA*%
G36*
X-3048059Y13516848D02*
G01*
X-3045275Y13512401D01*
X-2836101Y12907929D01*
X-2836634Y12898990D01*
X-2843332Y12893046D01*
X-2844836Y12892635D01*
X-3172686Y12826467D01*
X-3177314Y12826467D01*
X-3505156Y12892634D01*
X-3512587Y12897630D01*
X-3514310Y12906418D01*
X-3513898Y12907929D01*
X-3304725Y13512401D01*
X-3298781Y13519099D01*
X-3293668Y13520275D01*
X-3056332Y13520275D01*
X-3048059Y13516848D01*
G37*
%TD.AperFunction*%
%TD*%
%TA.AperFunction,Conductor*%
%TO.N,DATA*%
G36*
X-10968847Y7071325D02*
G01*
X-10364604Y6921205D01*
X-10357401Y6915884D01*
X-10355725Y6909850D01*
X-10355725Y6672557D01*
X-10359152Y6664284D01*
X-10362612Y6661893D01*
X-10836356Y6448193D01*
X-10845538Y6444051D01*
X-10854489Y6443773D01*
X-10860062Y6448193D01*
X-11047278Y6726947D01*
X-11049046Y6735725D01*
X-11049034Y6735785D01*
X-10983137Y7062285D01*
X-10978141Y7069716D01*
X-10969353Y7071439D01*
X-10968847Y7071325D01*
G37*
%TD.AperFunction*%
%TD*%
%TA.AperFunction,Conductor*%
%TO.N,BUZZER*%
G36*
X-6548239Y5165039D02*
G01*
X-6542973Y5157796D01*
X-6542885Y5157399D01*
X-6476965Y4830783D01*
X-6478687Y4821998D01*
X-6665892Y4543261D01*
X-6673349Y4538304D01*
X-6680501Y4539159D01*
X-7163475Y4761864D01*
X-7169552Y4768439D01*
X-7170275Y4772488D01*
X-7170275Y5009779D01*
X-7166848Y5018052D01*
X-7161310Y5021155D01*
X-6557084Y5166437D01*
X-6548239Y5165039D01*
G37*
%TD.AperFunction*%
%TD*%
M02*
