%TF.GenerationSoftware,KiCad,Pcbnew,9.0.4*%
%TF.CreationDate,2026-02-12T21:10:49-08:00*%
%TF.ProjectId,MouseMinder,4d6f7573-654d-4696-9e64-65722e6b6963,rev?*%
%TF.SameCoordinates,Original*%
%TF.FileFunction,Copper,L2,Bot*%
%TF.FilePolarity,Positive*%
%FSLAX46Y46*%
G04 Gerber Fmt 4.6, Leading zero omitted, Abs format (unit mm)*
G04 Created by KiCad (PCBNEW 9.0.4) date 2026-02-12 21:10:49*
%MOMM*%
%LPD*%
G01*
G04 APERTURE LIST*
%TA.AperFunction,ComponentPad*%
%ADD10C,1.700000*%
%TD*%
%TA.AperFunction,ComponentPad*%
%ADD11R,1.700000X1.700000*%
%TD*%
%TA.AperFunction,ViaPad*%
%ADD12C,0.685800*%
%TD*%
%TA.AperFunction,Conductor*%
%ADD13C,0.254000*%
%TD*%
G04 APERTURE END LIST*
D10*
%TO.P,J3,2,Pin_2*%
%TO.N,unconnected-(J3-Pin_2-Pad2)*%
X-8636000Y27432000D03*
D11*
%TO.P,J3,1,Pin_1*%
%TO.N,GND*%
X-11176000Y27432000D03*
D10*
%TO.P,J3,9,Pin_9*%
%TO.N,DATA*%
X9144000Y27432000D03*
%TO.P,J3,10,Pin_10*%
%TO.N,~{RST}*%
X11684000Y27432000D03*
%TO.P,J3,7,Pin_7*%
%TO.N,LATCHED_POWER*%
X4064000Y27432000D03*
%TO.P,J3,5,Pin_5*%
%TO.N,PGATE*%
X-1016000Y27432000D03*
%TO.P,J3,4,Pin_4*%
%TO.N,NGATE*%
X-3556000Y27432000D03*
%TO.P,J3,6,Pin_6*%
%TO.N,+3V0*%
X1524000Y27432000D03*
%TO.P,J3,3,Pin_3*%
%TO.N,PZ+*%
X-6096000Y27432000D03*
%TO.P,J3,8,Pin_8*%
%TO.N,TPICLK*%
X6604000Y27432000D03*
%TD*%
D12*
%TO.N,GND*%
X10795000Y13106400D03*
X8813800Y15113000D03*
%TO.N,LATCHED_POWER*%
X6477000Y12979400D03*
%TO.N,BUZZER*%
X5308600Y11760200D03*
X-11709400Y18313400D03*
%TO.N,NGATE*%
X-12827000Y-9321800D03*
X15113000Y-3302000D03*
%TO.N,GND*%
X14706600Y-10134600D03*
X-13411200Y-6883400D03*
%TO.N,NGATE*%
X-12845800Y9213200D03*
%TO.N,+3V0*%
X-6832600Y21564600D03*
%TO.N,LATCHED_POWER*%
X-9855200Y21082000D03*
%TO.N,GND*%
X-10998200Y19710400D03*
%TO.N,NGATE*%
X-6781800Y23952200D03*
%TO.N,GND*%
X-9093200Y24180800D03*
%TO.N,PGATE*%
X-6858000Y22555200D03*
%TO.N,NGATE*%
X-11912600Y25476200D03*
%TD*%
D13*
%TO.N,BUZZER*%
X-1244600Y18313400D02*
X-2565400Y18313400D01*
X5308600Y11760200D02*
X-1244600Y18313400D01*
%TO.N,LATCHED_POWER*%
X6477000Y12979400D02*
X-1955800Y21412200D01*
X-1955800Y21412200D02*
X4064000Y27432000D01*
%TO.N,BUZZER*%
X-11709400Y18313400D02*
X-2565400Y18313400D01*
%TO.N,NGATE*%
X-12827000Y-3304800D02*
X-12652000Y-3479800D01*
X-12827000Y-2159000D02*
X-12827000Y-3304800D01*
X-12652000Y-3479800D02*
X-12652000Y-9146800D01*
X-12652000Y-9146800D02*
X-12827000Y-9321800D01*
X-12845800Y-1987800D02*
X-12845800Y9213200D01*
X-12827000Y-2006600D02*
X-12845800Y-1987800D01*
X-12827000Y-2159000D02*
X-12827000Y-2006600D01*
X13970000Y-2159000D02*
X-12827000Y-2159000D01*
X15113000Y-3302000D02*
X13970000Y-2159000D01*
X-12845800Y24543000D02*
X-12845800Y9213200D01*
X-11912600Y25476200D02*
X-12845800Y24543000D01*
%TO.N,LATCHED_POWER*%
X-9448800Y20675600D02*
X-2692400Y20675600D01*
X-9855200Y21082000D02*
X-9448800Y20675600D01*
X-2692400Y20675600D02*
X-1955800Y21412200D01*
%TO.N,+3V0*%
X-4343400Y21564600D02*
X1524000Y27432000D01*
X-6832600Y21564600D02*
X-4343400Y21564600D01*
%TO.N,NGATE*%
X-3556000Y26466800D02*
X-3556000Y27432000D01*
X-6070600Y23952200D02*
X-3556000Y26466800D01*
X-6781800Y23952200D02*
X-6070600Y23952200D01*
X-8991600Y25476200D02*
X-7467600Y23952200D01*
X-7467600Y23952200D02*
X-6781800Y23952200D01*
X-10236200Y25476200D02*
X-8991600Y25476200D01*
%TO.N,PGATE*%
X-5892800Y22555200D02*
X-1016000Y27432000D01*
X-6858000Y22555200D02*
X-5892800Y22555200D01*
%TO.N,NGATE*%
X-11912600Y25476200D02*
X-10236200Y25476200D01*
%TD*%
%TA.AperFunction,Conductor*%
%TO.N,GND*%
G36*
X16214031Y29190287D02*
G01*
X16250576Y29139987D01*
X16255500Y29108900D01*
X16255500Y-10820900D01*
X16236287Y-10880031D01*
X16185987Y-10916576D01*
X16154900Y-10921500D01*
X13971315Y-10921500D01*
X13912184Y-10902287D01*
X13875639Y-10851987D01*
X13875639Y-10789813D01*
X13900180Y-10749765D01*
X13935276Y-10714669D01*
X13935277Y-10714667D01*
X14006462Y-10608131D01*
X14006465Y-10608127D01*
X14055501Y-10489744D01*
X14080500Y-10364069D01*
X14080500Y-10235931D01*
X14055501Y-10110256D01*
X14006465Y-9991873D01*
X13940068Y-9892503D01*
X13935277Y-9885332D01*
X13844667Y-9794722D01*
X13738131Y-9723537D01*
X13738123Y-9723533D01*
X13619745Y-9674499D01*
X13619736Y-9674497D01*
X13533874Y-9657418D01*
X13494069Y-9649500D01*
X13365931Y-9649500D01*
X13334936Y-9655665D01*
X13240263Y-9674497D01*
X13240254Y-9674499D01*
X13121876Y-9723533D01*
X13121868Y-9723537D01*
X13015332Y-9794722D01*
X13015331Y-9794724D01*
X12924724Y-9885331D01*
X12924722Y-9885332D01*
X12853537Y-9991868D01*
X12853533Y-9991876D01*
X12804499Y-10110254D01*
X12804497Y-10110263D01*
X12779500Y-10235931D01*
X12779500Y-10364068D01*
X12804497Y-10489736D01*
X12804499Y-10489745D01*
X12853533Y-10608123D01*
X12853537Y-10608131D01*
X12924722Y-10714667D01*
X12959820Y-10749765D01*
X12988046Y-10805163D01*
X12978320Y-10866571D01*
X12934356Y-10910535D01*
X12888685Y-10921500D01*
X-12888685Y-10921500D01*
X-12947816Y-10902287D01*
X-12984361Y-10851987D01*
X-12984361Y-10789813D01*
X-12959820Y-10749765D01*
X-12924722Y-10714667D01*
X-12853537Y-10608131D01*
X-12853533Y-10608123D01*
X-12804499Y-10489745D01*
X-12804497Y-10489736D01*
X-12779500Y-10364068D01*
X-12779500Y-10235931D01*
X-12804497Y-10110263D01*
X-12804499Y-10110254D01*
X-12847063Y-10007498D01*
X-12851941Y-9945515D01*
X-12819455Y-9892503D01*
X-12762014Y-9868710D01*
X-12755431Y-9868451D01*
X-12755042Y-9868400D01*
X-12755039Y-9868400D01*
X-12755036Y-9868399D01*
X-12755034Y-9868399D01*
X-12616026Y-9831152D01*
X-12616023Y-9831150D01*
X-12616020Y-9831150D01*
X-12491379Y-9759189D01*
X-12389611Y-9657421D01*
X-12317650Y-9532780D01*
X-12317647Y-9532773D01*
X-12280400Y-9393765D01*
X-12280400Y-9249834D01*
X-12317872Y-9109991D01*
X-12321300Y-9083954D01*
X-12321300Y-8435931D01*
X12779500Y-8435931D01*
X12779500Y-8564068D01*
X12804497Y-8689736D01*
X12804499Y-8689745D01*
X12853533Y-8808123D01*
X12853537Y-8808131D01*
X12924722Y-8914667D01*
X13015332Y-9005277D01*
X13121868Y-9076462D01*
X13121870Y-9076463D01*
X13121873Y-9076465D01*
X13240256Y-9125501D01*
X13365931Y-9150500D01*
X13365932Y-9150500D01*
X13494068Y-9150500D01*
X13494069Y-9150500D01*
X13619744Y-9125501D01*
X13738127Y-9076465D01*
X13844669Y-9005276D01*
X13935276Y-8914669D01*
X14006465Y-8808127D01*
X14055501Y-8689744D01*
X14080500Y-8564069D01*
X14080500Y-8435931D01*
X14055501Y-8310256D01*
X14006465Y-8191873D01*
X13935276Y-8085331D01*
X13844669Y-7994724D01*
X13844667Y-7994722D01*
X13738131Y-7923537D01*
X13738123Y-7923533D01*
X13619745Y-7874499D01*
X13619736Y-7874497D01*
X13535211Y-7857683D01*
X13494069Y-7849500D01*
X13365931Y-7849500D01*
X13334936Y-7855665D01*
X13240263Y-7874497D01*
X13240254Y-7874499D01*
X13121876Y-7923533D01*
X13121868Y-7923537D01*
X13015332Y-7994722D01*
X13015331Y-7994724D01*
X12924724Y-8085331D01*
X12924722Y-8085332D01*
X12853537Y-8191868D01*
X12853533Y-8191876D01*
X12804499Y-8310254D01*
X12804497Y-8310263D01*
X12779500Y-8435931D01*
X-12321300Y-8435931D01*
X-12321300Y-3436263D01*
X-12321301Y-3436255D01*
X-12343833Y-3352158D01*
X-12343834Y-3352156D01*
X-12387374Y-3276744D01*
X-12466835Y-3197284D01*
X-12495061Y-3141886D01*
X-12496300Y-3126149D01*
X-12496300Y-2590300D01*
X-12477087Y-2531169D01*
X-12426787Y-2494624D01*
X-12395700Y-2489700D01*
X13791350Y-2489700D01*
X13850481Y-2508913D01*
X13862485Y-2519165D01*
X14536935Y-3193615D01*
X14565161Y-3249013D01*
X14566400Y-3264750D01*
X14566400Y-3373965D01*
X14603647Y-3512973D01*
X14603650Y-3512980D01*
X14675611Y-3637621D01*
X14777379Y-3739389D01*
X14902020Y-3811350D01*
X14902023Y-3811350D01*
X14902026Y-3811352D01*
X15041034Y-3848599D01*
X15041036Y-3848599D01*
X15041039Y-3848600D01*
X15041041Y-3848600D01*
X15184959Y-3848600D01*
X15184961Y-3848600D01*
X15323980Y-3811350D01*
X15448621Y-3739389D01*
X15550389Y-3637621D01*
X15622350Y-3512980D01*
X15659600Y-3373961D01*
X15659600Y-3230039D01*
X15659599Y-3230034D01*
X15622352Y-3091026D01*
X15622350Y-3091023D01*
X15622350Y-3091020D01*
X15550389Y-2966379D01*
X15448621Y-2864611D01*
X15323980Y-2792650D01*
X15323973Y-2792647D01*
X15184965Y-2755400D01*
X15184961Y-2755400D01*
X15075750Y-2755400D01*
X15016619Y-2736187D01*
X15004615Y-2725935D01*
X14240362Y-1961682D01*
X14240360Y-1961679D01*
X14173055Y-1894374D01*
X14097643Y-1850834D01*
X14097641Y-1850833D01*
X14013544Y-1828301D01*
X14013539Y-1828300D01*
X14013538Y-1828300D01*
X14013537Y-1828300D01*
X-12414500Y-1828300D01*
X-12473631Y-1809087D01*
X-12510176Y-1758787D01*
X-12515100Y-1727700D01*
X-12515100Y8729220D01*
X-12495887Y8788351D01*
X-12485635Y8800355D01*
X-12408411Y8877579D01*
X-12408410Y8877581D01*
X-12336450Y9002219D01*
X-12336447Y9002226D01*
X-12299200Y9141234D01*
X-12299200Y9285165D01*
X-12336447Y9424173D01*
X-12336450Y9424180D01*
X-12408411Y9548821D01*
X-12485636Y9626046D01*
X-12513861Y9681442D01*
X-12515100Y9697179D01*
X-12515100Y18385361D01*
X-12256000Y18385361D01*
X-12256000Y18241439D01*
X-12218750Y18102420D01*
X-12146789Y17977779D01*
X-12045021Y17876011D01*
X-11920380Y17804050D01*
X-11920373Y17804047D01*
X-11781365Y17766800D01*
X-11781361Y17766800D01*
X-11637434Y17766800D01*
X-11498426Y17804047D01*
X-11498419Y17804050D01*
X-11373781Y17876010D01*
X-11373779Y17876011D01*
X-11296555Y17953235D01*
X-11241157Y17981462D01*
X-11225420Y17982700D01*
X-2608938Y17982700D01*
X-1423250Y17982700D01*
X-1364119Y17963487D01*
X-1352115Y17953235D01*
X4732535Y11868584D01*
X4760761Y11813186D01*
X4762000Y11797449D01*
X4762000Y11688234D01*
X4799247Y11549226D01*
X4799250Y11549219D01*
X4856003Y11450919D01*
X4871211Y11424579D01*
X4972979Y11322811D01*
X4972981Y11322810D01*
X5097619Y11250850D01*
X5097626Y11250847D01*
X5236634Y11213600D01*
X5236639Y11213600D01*
X5380565Y11213600D01*
X5519573Y11250847D01*
X5519580Y11250850D01*
X5644221Y11322811D01*
X5745989Y11424579D01*
X5817950Y11549220D01*
X5855200Y11688239D01*
X5855200Y11832161D01*
X5855199Y11832165D01*
X5817952Y11971173D01*
X5817951Y11971173D01*
X5817950Y11971180D01*
X5745989Y12095821D01*
X5644221Y12197589D01*
X5519580Y12269550D01*
X5380561Y12306800D01*
X5271349Y12306800D01*
X5212218Y12326013D01*
X5200214Y12336265D01*
X-976456Y18512936D01*
X-976461Y18512942D01*
X-1041544Y18578025D01*
X-1041545Y18578026D01*
X-1116954Y18621564D01*
X-1116956Y18621565D01*
X-1116958Y18621566D01*
X-1201055Y18644098D01*
X-1201062Y18644100D01*
X-1201063Y18644100D01*
X-11225420Y18644100D01*
X-11284551Y18663313D01*
X-11296555Y18673565D01*
X-11373779Y18750789D01*
X-11498420Y18822750D01*
X-11498423Y18822750D01*
X-11498426Y18822752D01*
X-11637434Y18859999D01*
X-11637436Y18859999D01*
X-11637439Y18860000D01*
X-11781361Y18860000D01*
X-11920380Y18822750D01*
X-12045021Y18750789D01*
X-12146789Y18649021D01*
X-12218750Y18524380D01*
X-12218751Y18524373D01*
X-12218752Y18524373D01*
X-12255999Y18385365D01*
X-12256000Y18385361D01*
X-12515100Y18385361D01*
X-12515100Y21153959D01*
X-10401800Y21153959D01*
X-10401800Y21010040D01*
X-10401799Y21010034D01*
X-10365184Y20873384D01*
X-10364550Y20871020D01*
X-10292589Y20746379D01*
X-10190821Y20644611D01*
X-10066180Y20572650D01*
X-10066173Y20572647D01*
X-9927165Y20535400D01*
X-9817950Y20535400D01*
X-9810229Y20532891D01*
X-9802213Y20534161D01*
X-9781224Y20523466D01*
X-9758819Y20516187D01*
X-9746815Y20505935D01*
X-9719162Y20478282D01*
X-9719160Y20478279D01*
X-9651855Y20410974D01*
X-9576443Y20367434D01*
X-9576441Y20367433D01*
X-9492344Y20344901D01*
X-9492339Y20344900D01*
X-9492338Y20344900D01*
X-9492337Y20344900D01*
X-2648863Y20344900D01*
X-2648862Y20344900D01*
X-2648861Y20344900D01*
X-2648855Y20344901D01*
X-2564758Y20367433D01*
X-2564756Y20367434D01*
X-2489344Y20410974D01*
X-2427772Y20472547D01*
X-2026934Y20873384D01*
X-1971536Y20901610D01*
X-1910127Y20891884D01*
X-1884664Y20873384D01*
X5900935Y13087784D01*
X5929161Y13032386D01*
X5930400Y13016649D01*
X5930400Y12907434D01*
X5967647Y12768426D01*
X5967650Y12768419D01*
X6024403Y12670119D01*
X6039611Y12643779D01*
X6141379Y12542011D01*
X6141381Y12542010D01*
X6266019Y12470050D01*
X6266026Y12470047D01*
X6405034Y12432800D01*
X6405039Y12432800D01*
X6548965Y12432800D01*
X6687973Y12470047D01*
X6687980Y12470050D01*
X6812621Y12542011D01*
X6914389Y12643779D01*
X6986350Y12768420D01*
X7023600Y12907439D01*
X7023600Y13051361D01*
X7023599Y13051365D01*
X6986352Y13190373D01*
X6986351Y13190373D01*
X6986350Y13190380D01*
X6914389Y13315021D01*
X6812621Y13416789D01*
X6687980Y13488750D01*
X6548961Y13526000D01*
X6439749Y13526000D01*
X6380618Y13545213D01*
X6368614Y13555465D01*
X-1416985Y21341065D01*
X-1445211Y21396463D01*
X-1435485Y21457871D01*
X-1416985Y21483335D01*
X3540702Y26441022D01*
X3596100Y26469248D01*
X3650335Y26462829D01*
X3756649Y26418792D01*
X3756647Y26418792D01*
X3919664Y26386367D01*
X3960220Y26378300D01*
X3960221Y26378300D01*
X4167779Y26378300D01*
X4167780Y26378300D01*
X4218326Y26388354D01*
X4371351Y26418792D01*
X4563110Y26498222D01*
X4563118Y26498226D01*
X4735692Y26613536D01*
X4882463Y26760307D01*
X4997773Y26932881D01*
X4997774Y26932883D01*
X4997776Y26932886D01*
X5077207Y27124647D01*
X5117700Y27328220D01*
X5117700Y27535779D01*
X5550300Y27535779D01*
X5550300Y27328220D01*
X5590792Y27124648D01*
X5670222Y26932889D01*
X5670226Y26932881D01*
X5785536Y26760307D01*
X5785538Y26760306D01*
X5932306Y26613538D01*
X5932307Y26613536D01*
X6104881Y26498226D01*
X6104889Y26498222D01*
X6242982Y26441022D01*
X6296647Y26418793D01*
X6296648Y26418792D01*
X6296647Y26418792D01*
X6459664Y26386367D01*
X6500220Y26378300D01*
X6500221Y26378300D01*
X6707779Y26378300D01*
X6707780Y26378300D01*
X6758326Y26388354D01*
X6911351Y26418792D01*
X7103110Y26498222D01*
X7103118Y26498226D01*
X7275692Y26613536D01*
X7422463Y26760307D01*
X7537773Y26932881D01*
X7537774Y26932883D01*
X7537776Y26932886D01*
X7617207Y27124647D01*
X7657700Y27328220D01*
X7657700Y27535779D01*
X8090300Y27535779D01*
X8090300Y27328220D01*
X8130792Y27124648D01*
X8210222Y26932889D01*
X8210226Y26932881D01*
X8325536Y26760307D01*
X8325538Y26760306D01*
X8472306Y26613538D01*
X8472307Y26613536D01*
X8644881Y26498226D01*
X8644889Y26498222D01*
X8782982Y26441022D01*
X8836647Y26418793D01*
X8836648Y26418792D01*
X8836647Y26418792D01*
X8999664Y26386367D01*
X9040220Y26378300D01*
X9040221Y26378300D01*
X9247779Y26378300D01*
X9247780Y26378300D01*
X9298326Y26388354D01*
X9451351Y26418792D01*
X9643110Y26498222D01*
X9643118Y26498226D01*
X9815692Y26613536D01*
X9962463Y26760307D01*
X10077773Y26932881D01*
X10077774Y26932883D01*
X10077776Y26932886D01*
X10157207Y27124647D01*
X10197700Y27328220D01*
X10197700Y27535779D01*
X10630300Y27535779D01*
X10630300Y27328220D01*
X10670792Y27124648D01*
X10750222Y26932889D01*
X10750226Y26932881D01*
X10865536Y26760307D01*
X10865538Y26760306D01*
X11012306Y26613538D01*
X11012307Y26613536D01*
X11184881Y26498226D01*
X11184889Y26498222D01*
X11322982Y26441022D01*
X11376647Y26418793D01*
X11376648Y26418792D01*
X11376647Y26418792D01*
X11539664Y26386367D01*
X11580220Y26378300D01*
X11580221Y26378300D01*
X11787779Y26378300D01*
X11787780Y26378300D01*
X11838326Y26388354D01*
X11991351Y26418792D01*
X12183110Y26498222D01*
X12183118Y26498226D01*
X12355692Y26613536D01*
X12502463Y26760307D01*
X12617773Y26932881D01*
X12617774Y26932883D01*
X12617776Y26932886D01*
X12697207Y27124647D01*
X12737700Y27328220D01*
X12737700Y27535780D01*
X12697207Y27739353D01*
X12617776Y27931114D01*
X12502462Y28103694D01*
X12355694Y28250462D01*
X12183114Y28365776D01*
X11991353Y28445207D01*
X11787780Y28485700D01*
X11580220Y28485700D01*
X11376647Y28445207D01*
X11184886Y28365776D01*
X11184883Y28365774D01*
X11184881Y28365773D01*
X11012307Y28250463D01*
X10865536Y28103692D01*
X10750226Y27931118D01*
X10750222Y27931110D01*
X10670792Y27739351D01*
X10630300Y27535779D01*
X10197700Y27535779D01*
X10197700Y27535780D01*
X10157207Y27739353D01*
X10077776Y27931114D01*
X9962462Y28103694D01*
X9815694Y28250462D01*
X9643114Y28365776D01*
X9451353Y28445207D01*
X9247780Y28485700D01*
X9040220Y28485700D01*
X8836647Y28445207D01*
X8644886Y28365776D01*
X8644883Y28365774D01*
X8644881Y28365773D01*
X8472307Y28250463D01*
X8325536Y28103692D01*
X8210226Y27931118D01*
X8210222Y27931110D01*
X8130792Y27739351D01*
X8090300Y27535779D01*
X7657700Y27535779D01*
X7657700Y27535780D01*
X7617207Y27739353D01*
X7537776Y27931114D01*
X7422462Y28103694D01*
X7275694Y28250462D01*
X7103114Y28365776D01*
X6911353Y28445207D01*
X6707780Y28485700D01*
X6500220Y28485700D01*
X6296647Y28445207D01*
X6104886Y28365776D01*
X6104883Y28365774D01*
X6104881Y28365773D01*
X5932307Y28250463D01*
X5785536Y28103692D01*
X5670226Y27931118D01*
X5670222Y27931110D01*
X5590792Y27739351D01*
X5550300Y27535779D01*
X5117700Y27535779D01*
X5117700Y27535780D01*
X5077207Y27739353D01*
X4997776Y27931114D01*
X4882462Y28103694D01*
X4735694Y28250462D01*
X4563114Y28365776D01*
X4371353Y28445207D01*
X4167780Y28485700D01*
X3960220Y28485700D01*
X3756647Y28445207D01*
X3564886Y28365776D01*
X3564883Y28365774D01*
X3564881Y28365773D01*
X3392307Y28250463D01*
X3245536Y28103692D01*
X3130226Y27931118D01*
X3130222Y27931110D01*
X3050792Y27739351D01*
X3010300Y27535779D01*
X3010300Y27328220D01*
X3050792Y27124648D01*
X3094829Y27018335D01*
X3099707Y26956352D01*
X3073022Y26908702D01*
X-2799915Y21035765D01*
X-2855313Y21007539D01*
X-2871050Y21006300D01*
X-6375021Y21006300D01*
X-6397426Y21013580D01*
X-6420694Y21017266D01*
X-6426432Y21023004D01*
X-6434152Y21025513D01*
X-6447998Y21044571D01*
X-6464657Y21061230D01*
X-6465926Y21069247D01*
X-6470697Y21075813D01*
X-6470697Y21099369D01*
X-6474382Y21122639D01*
X-6470697Y21129871D01*
X-6470697Y21137987D01*
X-6446156Y21178033D01*
X-6419754Y21204436D01*
X-6364355Y21232662D01*
X-6348620Y21233900D01*
X-4299863Y21233900D01*
X-4299862Y21233900D01*
X-4299861Y21233900D01*
X-4299855Y21233901D01*
X-4215758Y21256433D01*
X-4215756Y21256434D01*
X-4140344Y21299974D01*
X-4078772Y21361547D01*
X1000702Y26441022D01*
X1056100Y26469248D01*
X1110335Y26462829D01*
X1216649Y26418792D01*
X1216647Y26418792D01*
X1379664Y26386367D01*
X1420220Y26378300D01*
X1420221Y26378300D01*
X1627779Y26378300D01*
X1627780Y26378300D01*
X1678326Y26388354D01*
X1831351Y26418792D01*
X2023110Y26498222D01*
X2023118Y26498226D01*
X2195692Y26613536D01*
X2342463Y26760307D01*
X2457773Y26932881D01*
X2457774Y26932883D01*
X2457776Y26932886D01*
X2537207Y27124647D01*
X2577700Y27328220D01*
X2577700Y27535780D01*
X2537207Y27739353D01*
X2457776Y27931114D01*
X2342462Y28103694D01*
X2195694Y28250462D01*
X2023114Y28365776D01*
X1831353Y28445207D01*
X1627780Y28485700D01*
X1420220Y28485700D01*
X1216647Y28445207D01*
X1024886Y28365776D01*
X1024883Y28365774D01*
X1024881Y28365773D01*
X852307Y28250463D01*
X705536Y28103692D01*
X590226Y27931118D01*
X590222Y27931110D01*
X510792Y27739351D01*
X470300Y27535779D01*
X470300Y27328220D01*
X510792Y27124648D01*
X554829Y27018335D01*
X559707Y26956352D01*
X533022Y26908702D01*
X-4450915Y21924765D01*
X-4506313Y21896539D01*
X-4522050Y21895300D01*
X-6348620Y21895300D01*
X-6356338Y21897808D01*
X-6364357Y21896538D01*
X-6385347Y21907233D01*
X-6407751Y21914513D01*
X-6419754Y21924765D01*
X-6496454Y22001464D01*
X-6524681Y22056861D01*
X-6514956Y22118270D01*
X-6496456Y22143733D01*
X-6445156Y22195034D01*
X-6389758Y22223261D01*
X-6374020Y22224500D01*
X-5849263Y22224500D01*
X-5849262Y22224500D01*
X-5849261Y22224500D01*
X-5849255Y22224501D01*
X-5765158Y22247033D01*
X-5765156Y22247034D01*
X-5689744Y22290574D01*
X-5628172Y22352147D01*
X-1539296Y26441022D01*
X-1483898Y26469248D01*
X-1429663Y26462829D01*
X-1323353Y26418793D01*
X-1323349Y26418792D01*
X-1323352Y26418792D01*
X-1160336Y26386367D01*
X-1119780Y26378300D01*
X-1119779Y26378300D01*
X-912221Y26378300D01*
X-912220Y26378300D01*
X-871664Y26386367D01*
X-708648Y26418792D01*
X-516889Y26498222D01*
X-516881Y26498226D01*
X-344307Y26613536D01*
X-344306Y26613538D01*
X-197538Y26760306D01*
X-197536Y26760307D01*
X-82226Y26932881D01*
X-82222Y26932889D01*
X-2792Y27124648D01*
X37700Y27328220D01*
X37700Y27535779D01*
X-2792Y27739351D01*
X-82222Y27931110D01*
X-82226Y27931118D01*
X-197536Y28103692D01*
X-344307Y28250463D01*
X-516881Y28365773D01*
X-516883Y28365774D01*
X-516886Y28365776D01*
X-708647Y28445207D01*
X-912220Y28485700D01*
X-1119780Y28485700D01*
X-1323353Y28445207D01*
X-1515114Y28365776D01*
X-1687694Y28250462D01*
X-1834462Y28103694D01*
X-1949776Y27931114D01*
X-2029207Y27739353D01*
X-2069700Y27535780D01*
X-2069700Y27328220D01*
X-2029207Y27124647D01*
X-1985170Y27018335D01*
X-1980291Y26956352D01*
X-2006975Y26908703D01*
X-5166533Y23749147D01*
X-6000315Y22915365D01*
X-6055713Y22887139D01*
X-6071450Y22885900D01*
X-6374020Y22885900D01*
X-6433151Y22905113D01*
X-6445155Y22915365D01*
X-6522379Y22992589D01*
X-6647020Y23064550D01*
X-6647023Y23064550D01*
X-6647026Y23064552D01*
X-6786034Y23101799D01*
X-6786036Y23101799D01*
X-6786039Y23101800D01*
X-6929961Y23101800D01*
X-7068980Y23064550D01*
X-7193621Y22992589D01*
X-7295389Y22890821D01*
X-7367350Y22766180D01*
X-7367351Y22766173D01*
X-7367352Y22766173D01*
X-7404599Y22627165D01*
X-7404600Y22627159D01*
X-7404600Y22483240D01*
X-7404599Y22483234D01*
X-7369474Y22352145D01*
X-7367350Y22344220D01*
X-7295389Y22219579D01*
X-7219543Y22143733D01*
X-7194144Y22118334D01*
X-7165917Y22062936D01*
X-7175644Y22001527D01*
X-7194138Y21976071D01*
X-7269989Y21900221D01*
X-7341950Y21775580D01*
X-7341951Y21775573D01*
X-7341952Y21775573D01*
X-7379199Y21636565D01*
X-7379200Y21636559D01*
X-7379200Y21492640D01*
X-7379199Y21492634D01*
X-7344074Y21361545D01*
X-7341950Y21353620D01*
X-7269989Y21228979D01*
X-7219042Y21178032D01*
X-7190818Y21122637D01*
X-7200544Y21061229D01*
X-7244508Y21017265D01*
X-7290179Y21006300D01*
X-9208000Y21006300D01*
X-9267131Y21025513D01*
X-9303676Y21075813D01*
X-9308600Y21106900D01*
X-9308600Y21153965D01*
X-9345847Y21292973D01*
X-9345850Y21292980D01*
X-9380860Y21353619D01*
X-9417811Y21417621D01*
X-9519579Y21519389D01*
X-9644220Y21591350D01*
X-9644223Y21591350D01*
X-9644226Y21591352D01*
X-9783234Y21628599D01*
X-9783236Y21628599D01*
X-9783239Y21628600D01*
X-9927161Y21628600D01*
X-10066180Y21591350D01*
X-10190821Y21519389D01*
X-10292589Y21417621D01*
X-10364550Y21292980D01*
X-10364551Y21292973D01*
X-10364552Y21292973D01*
X-10401799Y21153965D01*
X-10401800Y21153959D01*
X-12515100Y21153959D01*
X-12515100Y24364349D01*
X-12495887Y24423480D01*
X-12485635Y24435484D01*
X-12020984Y24900135D01*
X-11965586Y24928361D01*
X-11949849Y24929600D01*
X-11840634Y24929600D01*
X-11701626Y24966847D01*
X-11701619Y24966850D01*
X-11576981Y25038810D01*
X-11576979Y25038811D01*
X-11499755Y25116035D01*
X-11444357Y25144262D01*
X-11428620Y25145500D01*
X-10279738Y25145500D01*
X-9170250Y25145500D01*
X-9111119Y25126287D01*
X-9099115Y25116035D01*
X-8406561Y24423480D01*
X-7732227Y23749146D01*
X-7670655Y23687574D01*
X-7595243Y23644034D01*
X-7595241Y23644033D01*
X-7511144Y23621501D01*
X-7511139Y23621500D01*
X-7511138Y23621500D01*
X-7265780Y23621500D01*
X-7206649Y23602287D01*
X-7194645Y23592035D01*
X-7117421Y23514811D01*
X-6992780Y23442850D01*
X-6992773Y23442847D01*
X-6853765Y23405600D01*
X-6853761Y23405600D01*
X-6709834Y23405600D01*
X-6570826Y23442847D01*
X-6570819Y23442850D01*
X-6446181Y23514810D01*
X-6446179Y23514811D01*
X-6368955Y23592035D01*
X-6313557Y23620262D01*
X-6297820Y23621500D01*
X-6027063Y23621500D01*
X-6027062Y23621500D01*
X-6027061Y23621500D01*
X-6027055Y23621501D01*
X-5942958Y23644033D01*
X-5942956Y23644034D01*
X-5867544Y23687574D01*
X-3291374Y26263744D01*
X-3247835Y26339156D01*
X-3236571Y26381193D01*
X-3202708Y26433336D01*
X-3177898Y26448097D01*
X-3056887Y26498223D01*
X-2884307Y26613536D01*
X-2884306Y26613538D01*
X-2737538Y26760306D01*
X-2737536Y26760307D01*
X-2622226Y26932881D01*
X-2622222Y26932889D01*
X-2542792Y27124648D01*
X-2502300Y27328220D01*
X-2502300Y27535779D01*
X-2542792Y27739351D01*
X-2622222Y27931110D01*
X-2622226Y27931118D01*
X-2737536Y28103692D01*
X-2884307Y28250463D01*
X-3056881Y28365773D01*
X-3056883Y28365774D01*
X-3056886Y28365776D01*
X-3248647Y28445207D01*
X-3452220Y28485700D01*
X-3659780Y28485700D01*
X-3863353Y28445207D01*
X-4055114Y28365776D01*
X-4227694Y28250462D01*
X-4374462Y28103694D01*
X-4489776Y27931114D01*
X-4569207Y27739353D01*
X-4609700Y27535780D01*
X-4609700Y27328220D01*
X-4569207Y27124647D01*
X-4489776Y26932886D01*
X-4489774Y26932883D01*
X-4489773Y26932881D01*
X-4374463Y26760307D01*
X-4227695Y26613539D01*
X-4119355Y26541148D01*
X-4080864Y26492321D01*
X-4078423Y26430195D01*
X-4104109Y26386369D01*
X-5674571Y24815909D01*
X-6178115Y24312365D01*
X-6185348Y24308679D01*
X-6190119Y24302113D01*
X-6212524Y24294833D01*
X-6233513Y24284139D01*
X-6249250Y24282900D01*
X-6297820Y24282900D01*
X-6356951Y24302113D01*
X-6368955Y24312365D01*
X-6446179Y24389589D01*
X-6570820Y24461550D01*
X-6570823Y24461550D01*
X-6570826Y24461552D01*
X-6709834Y24498799D01*
X-6709836Y24498799D01*
X-6709839Y24498800D01*
X-6853761Y24498800D01*
X-6992780Y24461550D01*
X-7117421Y24389589D01*
X-7194645Y24312365D01*
X-7201878Y24308679D01*
X-7206649Y24302113D01*
X-7229050Y24294834D01*
X-7250043Y24284138D01*
X-7265780Y24282900D01*
X-7288949Y24282900D01*
X-7348080Y24302113D01*
X-7360084Y24312365D01*
X-8723456Y25675736D01*
X-8723461Y25675742D01*
X-8788544Y25740825D01*
X-8788545Y25740826D01*
X-8863954Y25784364D01*
X-8863956Y25784365D01*
X-8863958Y25784366D01*
X-8948055Y25806898D01*
X-8948062Y25806900D01*
X-8948063Y25806900D01*
X-11428620Y25806900D01*
X-11487751Y25826113D01*
X-11499755Y25836365D01*
X-11576979Y25913589D01*
X-11701620Y25985550D01*
X-11701623Y25985550D01*
X-11701626Y25985552D01*
X-11840634Y26022799D01*
X-11840636Y26022799D01*
X-11840639Y26022800D01*
X-11984561Y26022800D01*
X-12123580Y25985550D01*
X-12248221Y25913589D01*
X-12349989Y25811821D01*
X-12421950Y25687180D01*
X-12421951Y25687173D01*
X-12421952Y25687173D01*
X-12459199Y25548165D01*
X-12459200Y25548159D01*
X-12459200Y25438949D01*
X-12478413Y25379818D01*
X-12488665Y25367814D01*
X-13040572Y24815906D01*
X-13040576Y24815904D01*
X-13048853Y24807626D01*
X-13048855Y24807626D01*
X-13110426Y24746055D01*
X-13153964Y24670646D01*
X-13153964Y24670643D01*
X-13153965Y24670643D01*
X-13153966Y24670641D01*
X-13176498Y24586544D01*
X-13176500Y24586536D01*
X-13176500Y9697179D01*
X-13195713Y9638048D01*
X-13205959Y9626050D01*
X-13283189Y9548821D01*
X-13355150Y9424180D01*
X-13392400Y9285161D01*
X-13392400Y9141239D01*
X-13355150Y9002220D01*
X-13283189Y8877579D01*
X-13205965Y8800355D01*
X-13177738Y8744957D01*
X-13176500Y8729220D01*
X-13176500Y-2031336D01*
X-13176499Y-2031342D01*
X-13161128Y-2088708D01*
X-13157700Y-2114745D01*
X-13157700Y-2115462D01*
X-13157700Y-3348338D01*
X-13150833Y-3373965D01*
X-13135166Y-3432441D01*
X-13135164Y-3432443D01*
X-13135164Y-3432446D01*
X-13091626Y-3507855D01*
X-13091622Y-3507859D01*
X-13021773Y-3577708D01*
X-13021768Y-3577711D01*
X-13012161Y-3587318D01*
X-12983938Y-3642717D01*
X-12982700Y-3658449D01*
X-12982700Y-7830623D01*
X-13001913Y-7889754D01*
X-13052213Y-7926299D01*
X-13114387Y-7926299D01*
X-13121797Y-7923566D01*
X-13203427Y-7889754D01*
X-13240256Y-7874499D01*
X-13240257Y-7874498D01*
X-13240259Y-7874498D01*
X-13240263Y-7874497D01*
X-13334936Y-7855665D01*
X-13365931Y-7849500D01*
X-13494069Y-7849500D01*
X-13535211Y-7857683D01*
X-13619736Y-7874497D01*
X-13619745Y-7874499D01*
X-13738123Y-7923533D01*
X-13738131Y-7923537D01*
X-13844667Y-7994722D01*
X-13844669Y-7994724D01*
X-13935276Y-8085331D01*
X-14006465Y-8191873D01*
X-14055501Y-8310256D01*
X-14080500Y-8435931D01*
X-14080500Y-8564069D01*
X-14055501Y-8689744D01*
X-14006465Y-8808127D01*
X-13935276Y-8914669D01*
X-13844669Y-9005276D01*
X-13738127Y-9076465D01*
X-13619744Y-9125501D01*
X-13494069Y-9150500D01*
X-13494068Y-9150500D01*
X-13474200Y-9150500D01*
X-13415069Y-9169713D01*
X-13378524Y-9220013D01*
X-13373600Y-9251100D01*
X-13373600Y-9393759D01*
X-13373599Y-9393766D01*
X-13339008Y-9522863D01*
X-13342262Y-9584952D01*
X-13381390Y-9633270D01*
X-13436180Y-9649500D01*
X-13494069Y-9649500D01*
X-13533874Y-9657418D01*
X-13619736Y-9674497D01*
X-13619745Y-9674499D01*
X-13738123Y-9723533D01*
X-13738131Y-9723537D01*
X-13844667Y-9794722D01*
X-13935277Y-9885332D01*
X-13940068Y-9892503D01*
X-14006465Y-9991873D01*
X-14055501Y-10110256D01*
X-14080500Y-10235931D01*
X-14080500Y-10364069D01*
X-14055501Y-10489744D01*
X-14006465Y-10608127D01*
X-14006462Y-10608131D01*
X-13935277Y-10714667D01*
X-13935276Y-10714669D01*
X-13900180Y-10749765D01*
X-13871954Y-10805163D01*
X-13881680Y-10866571D01*
X-13925644Y-10910535D01*
X-13971315Y-10921500D01*
X-16154900Y-10921500D01*
X-16214031Y-10902287D01*
X-16250576Y-10851987D01*
X-16255500Y-10820900D01*
X-16255500Y28307016D01*
X-12280000Y28307016D01*
X-12280000Y27559000D01*
X-11331843Y27559000D01*
X-11345552Y27545291D01*
X-11376000Y27471782D01*
X-11376000Y27392218D01*
X-11345552Y27318709D01*
X-11331843Y27305000D01*
X-12279999Y27305000D01*
X-12279999Y26556983D01*
X-12265263Y26482894D01*
X-12209123Y26398876D01*
X-12125105Y26342736D01*
X-12051016Y26328000D01*
X-11303000Y26328000D01*
X-11303000Y27276157D01*
X-11289291Y27262448D01*
X-11215782Y27232000D01*
X-11136218Y27232000D01*
X-11062709Y27262448D01*
X-11049000Y27276157D01*
X-11049000Y26328000D01*
X-10300983Y26328000D01*
X-10226894Y26342736D01*
X-10142876Y26398876D01*
X-10086736Y26482894D01*
X-10072000Y26556983D01*
X-10072000Y27305000D01*
X-11020157Y27305000D01*
X-11006448Y27318709D01*
X-10976000Y27392218D01*
X-10976000Y27471782D01*
X-11002508Y27535780D01*
X-9689700Y27535780D01*
X-9689700Y27328220D01*
X-9649207Y27124647D01*
X-9569776Y26932886D01*
X-9569774Y26932883D01*
X-9569773Y26932881D01*
X-9454463Y26760307D01*
X-9307692Y26613536D01*
X-9135118Y26498226D01*
X-9135110Y26498222D01*
X-9069312Y26470967D01*
X-8943353Y26418793D01*
X-8943349Y26418792D01*
X-8943352Y26418792D01*
X-8780336Y26386367D01*
X-8739780Y26378300D01*
X-8739779Y26378300D01*
X-8532221Y26378300D01*
X-8532220Y26378300D01*
X-8491664Y26386367D01*
X-8328648Y26418792D01*
X-8136889Y26498222D01*
X-8136881Y26498226D01*
X-7964307Y26613536D01*
X-7964306Y26613538D01*
X-7817538Y26760306D01*
X-7817536Y26760307D01*
X-7702226Y26932881D01*
X-7702222Y26932889D01*
X-7622792Y27124648D01*
X-7582300Y27328220D01*
X-7582300Y27535779D01*
X-7582300Y27535780D01*
X-7149700Y27535780D01*
X-7149700Y27328220D01*
X-7109207Y27124647D01*
X-7029776Y26932886D01*
X-7029774Y26932883D01*
X-7029773Y26932881D01*
X-6914463Y26760307D01*
X-6767692Y26613536D01*
X-6595118Y26498226D01*
X-6595110Y26498222D01*
X-6529312Y26470967D01*
X-6403353Y26418793D01*
X-6403349Y26418792D01*
X-6403352Y26418792D01*
X-6240336Y26386367D01*
X-6199780Y26378300D01*
X-6199779Y26378300D01*
X-5992221Y26378300D01*
X-5992220Y26378300D01*
X-5951664Y26386367D01*
X-5788648Y26418792D01*
X-5596889Y26498222D01*
X-5596881Y26498226D01*
X-5424307Y26613536D01*
X-5424306Y26613538D01*
X-5277538Y26760306D01*
X-5277536Y26760307D01*
X-5162226Y26932881D01*
X-5162222Y26932889D01*
X-5082792Y27124648D01*
X-5042300Y27328220D01*
X-5042300Y27535779D01*
X-5082792Y27739351D01*
X-5162222Y27931110D01*
X-5162226Y27931118D01*
X-5277536Y28103692D01*
X-5424307Y28250463D01*
X-5596881Y28365773D01*
X-5596883Y28365774D01*
X-5596886Y28365776D01*
X-5788647Y28445207D01*
X-5992220Y28485700D01*
X-6199780Y28485700D01*
X-6403353Y28445207D01*
X-6595114Y28365776D01*
X-6767694Y28250462D01*
X-6914462Y28103694D01*
X-7029776Y27931114D01*
X-7109207Y27739353D01*
X-7149700Y27535780D01*
X-7582300Y27535780D01*
X-7622792Y27739351D01*
X-7702222Y27931110D01*
X-7702226Y27931118D01*
X-7817536Y28103692D01*
X-7964307Y28250463D01*
X-8136881Y28365773D01*
X-8136883Y28365774D01*
X-8136886Y28365776D01*
X-8328647Y28445207D01*
X-8532220Y28485700D01*
X-8739780Y28485700D01*
X-8943353Y28445207D01*
X-9135114Y28365776D01*
X-9307694Y28250462D01*
X-9454462Y28103694D01*
X-9569776Y27931114D01*
X-9649207Y27739353D01*
X-9689700Y27535780D01*
X-11002508Y27535780D01*
X-11006448Y27545291D01*
X-11020157Y27559000D01*
X-10072001Y27559000D01*
X-10072001Y28307016D01*
X-10086736Y28381105D01*
X-10142876Y28465123D01*
X-10226894Y28521263D01*
X-10300983Y28535999D01*
X-11049000Y28535999D01*
X-11049000Y27587843D01*
X-11062709Y27601552D01*
X-11136218Y27632000D01*
X-11215782Y27632000D01*
X-11289291Y27601552D01*
X-11303000Y27587843D01*
X-11303000Y28535999D01*
X-12051017Y28535999D01*
X-12125105Y28521263D01*
X-12209123Y28465123D01*
X-12265263Y28381105D01*
X-12280000Y28307016D01*
X-16255500Y28307016D01*
X-16255500Y29108900D01*
X-16236287Y29168031D01*
X-16185987Y29204576D01*
X-16154900Y29209500D01*
X16154900Y29209500D01*
X16214031Y29190287D01*
G37*
%TD.AperFunction*%
%TD*%
M02*
