%TF.GenerationSoftware,KiCad,Pcbnew,9.0.4*%
%TF.CreationDate,2026-02-12T21:10:49-08:00*%
%TF.ProjectId,MouseMinder,4d6f7573-654d-4696-9e64-65722e6b6963,rev?*%
%TF.SameCoordinates,Original*%
%TF.FileFunction,Copper,L1,Top*%
%TF.FilePolarity,Positive*%
%FSLAX46Y46*%
G04 Gerber Fmt 4.6, Leading zero omitted, Abs format (unit mm)*
G04 Created by KiCad (PCBNEW 9.0.4) date 2026-02-12 21:10:49*
%MOMM*%
%LPD*%
G01*
G04 APERTURE LIST*
G04 Aperture macros list*
%AMRoundRect*
0 Rectangle with rounded corners*
0 $1 Rounding radius*
0 $2 $3 $4 $5 $6 $7 $8 $9 X,Y pos of 4 corners*
0 Add a 4 corners polygon primitive as box body*
4,1,4,$2,$3,$4,$5,$6,$7,$8,$9,$2,$3,0*
0 Add four circle primitives for the rounded corners*
1,1,$1+$1,$2,$3*
1,1,$1+$1,$4,$5*
1,1,$1+$1,$6,$7*
1,1,$1+$1,$8,$9*
0 Add four rect primitives between the rounded corners*
20,1,$1+$1,$2,$3,$4,$5,0*
20,1,$1+$1,$4,$5,$6,$7,0*
20,1,$1+$1,$6,$7,$8,$9,0*
20,1,$1+$1,$8,$9,$2,$3,0*%
G04 Aperture macros list end*
%TA.AperFunction,ComponentPad*%
%ADD10C,1.700000*%
%TD*%
%TA.AperFunction,ComponentPad*%
%ADD11R,1.700000X1.700000*%
%TD*%
%TA.AperFunction,SMDPad,CuDef*%
%ADD12RoundRect,0.041250X0.123750X-0.323750X0.123750X0.323750X-0.123750X0.323750X-0.123750X-0.323750X0*%
%TD*%
%TA.AperFunction,SMDPad,CuDef*%
%ADD13R,0.650000X0.900000*%
%TD*%
%TA.AperFunction,SMDPad,CuDef*%
%ADD14RoundRect,0.041250X-0.323750X-0.123750X0.323750X-0.123750X0.323750X0.123750X-0.323750X0.123750X0*%
%TD*%
%TA.AperFunction,SMDPad,CuDef*%
%ADD15R,0.900000X0.650000*%
%TD*%
%TA.AperFunction,SMDPad,CuDef*%
%ADD16RoundRect,0.135000X-0.185000X0.135000X-0.185000X-0.135000X0.185000X-0.135000X0.185000X0.135000X0*%
%TD*%
%TA.AperFunction,SMDPad,CuDef*%
%ADD17RoundRect,0.135000X-0.135000X-0.185000X0.135000X-0.185000X0.135000X0.185000X-0.135000X0.185000X0*%
%TD*%
%TA.AperFunction,SMDPad,CuDef*%
%ADD18RoundRect,0.135000X0.185000X-0.135000X0.185000X0.135000X-0.185000X0.135000X-0.185000X-0.135000X0*%
%TD*%
%TA.AperFunction,SMDPad,CuDef*%
%ADD19RoundRect,0.135000X0.135000X0.185000X-0.135000X0.185000X-0.135000X-0.185000X0.135000X-0.185000X0*%
%TD*%
%TA.AperFunction,SMDPad,CuDef*%
%ADD20RoundRect,0.140000X0.140000X0.170000X-0.140000X0.170000X-0.140000X-0.170000X0.140000X-0.170000X0*%
%TD*%
%TA.AperFunction,SMDPad,CuDef*%
%ADD21RoundRect,0.140000X0.170000X-0.140000X0.170000X0.140000X-0.170000X0.140000X-0.170000X-0.140000X0*%
%TD*%
%TA.AperFunction,SMDPad,CuDef*%
%ADD22RoundRect,0.140000X-0.140000X-0.170000X0.140000X-0.170000X0.140000X0.170000X-0.140000X0.170000X0*%
%TD*%
%TA.AperFunction,SMDPad,CuDef*%
%ADD23RoundRect,0.218750X-0.256250X0.218750X-0.256250X-0.218750X0.256250X-0.218750X0.256250X0.218750X0*%
%TD*%
%TA.AperFunction,SMDPad,CuDef*%
%ADD24RoundRect,0.150000X-0.150000X0.512500X-0.150000X-0.512500X0.150000X-0.512500X0.150000X0.512500X0*%
%TD*%
%TA.AperFunction,SMDPad,CuDef*%
%ADD25RoundRect,0.218750X0.256250X-0.218750X0.256250X0.218750X-0.256250X0.218750X-0.256250X-0.218750X0*%
%TD*%
%TA.AperFunction,SMDPad,CuDef*%
%ADD26RoundRect,0.262500X-0.612500X-2.537500X0.612500X-2.537500X0.612500X2.537500X-0.612500X2.537500X0*%
%TD*%
%TA.AperFunction,SMDPad,CuDef*%
%ADD27R,4.000000X4.000000*%
%TD*%
%TA.AperFunction,SMDPad,CuDef*%
%ADD28R,4.500000X3.000000*%
%TD*%
%TA.AperFunction,SMDPad,CuDef*%
%ADD29RoundRect,0.135000X0.465000X0.315000X-0.465000X0.315000X-0.465000X-0.315000X0.465000X-0.315000X0*%
%TD*%
%TA.AperFunction,SMDPad,CuDef*%
%ADD30RoundRect,0.075000X0.325000X0.175000X-0.325000X0.175000X-0.325000X-0.175000X0.325000X-0.175000X0*%
%TD*%
%TA.AperFunction,SMDPad,CuDef*%
%ADD31RoundRect,0.250000X0.750000X0.400000X-0.750000X0.400000X-0.750000X-0.400000X0.750000X-0.400000X0*%
%TD*%
%TA.AperFunction,SMDPad,CuDef*%
%ADD32RoundRect,0.250000X0.750000X0.750000X-0.750000X0.750000X-0.750000X-0.750000X0.750000X-0.750000X0*%
%TD*%
%TA.AperFunction,SMDPad,CuDef*%
%ADD33RoundRect,0.218750X-0.218750X-0.256250X0.218750X-0.256250X0.218750X0.256250X-0.218750X0.256250X0*%
%TD*%
%TA.AperFunction,SMDPad,CuDef*%
%ADD34R,1.750000X5.600000*%
%TD*%
%TA.AperFunction,SMDPad,CuDef*%
%ADD35RoundRect,0.375000X0.875000X-1.750000X0.875000X1.750000X-0.875000X1.750000X-0.875000X-1.750000X0*%
%TD*%
%TA.AperFunction,SMDPad,CuDef*%
%ADD36RoundRect,0.243750X0.456250X-0.243750X0.456250X0.243750X-0.456250X0.243750X-0.456250X-0.243750X0*%
%TD*%
%TA.AperFunction,ViaPad*%
%ADD37C,0.685800*%
%TD*%
%TA.AperFunction,Conductor*%
%ADD38C,0.254000*%
%TD*%
G04 APERTURE END LIST*
D10*
%TO.P,J3,2,Pin_2*%
%TO.N,unconnected-(J3-Pin_2-Pad2)*%
X-8636000Y27432000D03*
D11*
%TO.P,J3,1,Pin_1*%
%TO.N,GND*%
X-11176000Y27432000D03*
D10*
%TO.P,J3,9,Pin_9*%
%TO.N,DATA*%
X9144000Y27432000D03*
%TO.P,J3,10,Pin_10*%
%TO.N,~{RST}*%
X11684000Y27432000D03*
%TO.P,J3,7,Pin_7*%
%TO.N,LATCHED_POWER*%
X4064000Y27432000D03*
%TO.P,J3,5,Pin_5*%
%TO.N,PGATE*%
X-1016000Y27432000D03*
%TO.P,J3,4,Pin_4*%
%TO.N,NGATE*%
X-3556000Y27432000D03*
%TO.P,J3,6,Pin_6*%
%TO.N,+3V0*%
X1524000Y27432000D03*
%TO.P,J3,3,Pin_3*%
%TO.N,PZ+*%
X-6096000Y27432000D03*
%TO.P,J3,8,Pin_8*%
%TO.N,TPICLK*%
X6604000Y27432000D03*
%TD*%
D12*
%TO.P,Q2,1,SN*%
%TO.N,unconnected-(Q2A-SN-Pad1)*%
X-12181600Y14219600D03*
%TO.P,Q2,2,GN*%
%TO.N,unconnected-(Q2A-GN-Pad2)*%
X-11531600Y14219600D03*
%TO.P,Q2,3,DP*%
%TO.N,Net-(D4-A)*%
X-10881600Y14219600D03*
%TO.P,Q2,4,SP*%
%TO.N,LATCHED_POWER*%
X-10881600Y16209600D03*
%TO.P,Q2,5,GP*%
%TO.N,BUZZER*%
X-11531600Y16209600D03*
%TO.P,Q2,6,DN*%
%TO.N,unconnected-(Q2A-DN-Pad6)_1*%
X-12181600Y16209600D03*
D13*
%TO.P,Q2,7,DN*%
%TO.N,unconnected-(Q2A-DN-Pad6)*%
X-12006600Y15214600D03*
%TO.P,Q2,8,DP*%
%TO.N,Net-(D4-A)*%
X-11056600Y15214600D03*
%TD*%
D14*
%TO.P,Q1,1,SN*%
%TO.N,GND*%
X-10822200Y23029400D03*
%TO.P,Q1,2,GN*%
%TO.N,NGATE*%
X-10822200Y22379400D03*
%TO.P,Q1,3,DP*%
%TO.N,LATCHED_POWER*%
X-10822200Y21729400D03*
%TO.P,Q1,4,SP*%
%TO.N,+3V0*%
X-8832200Y21729400D03*
%TO.P,Q1,5,GP*%
%TO.N,PGATE*%
X-8832200Y22379400D03*
%TO.P,Q1,6,DN*%
X-8832200Y23029400D03*
D15*
%TO.P,Q1,7,DN*%
X-9827200Y22854400D03*
%TO.P,Q1,8,DP*%
%TO.N,LATCHED_POWER*%
X-9827200Y21904400D03*
%TD*%
D16*
%TO.P,R9,1*%
%TO.N,BUZZER*%
X-13335000Y16258000D03*
%TO.P,R9,2*%
%TO.N,Net-(D4-A)*%
X-13335000Y15238000D03*
%TD*%
D17*
%TO.P,R8,1*%
%TO.N,NGATE*%
X-11025600Y24182800D03*
%TO.P,R8,2*%
%TO.N,GND*%
X-10005600Y24182800D03*
%TD*%
D16*
%TO.P,R7,1*%
%TO.N,PZ+*%
X-7950200Y16514000D03*
%TO.P,R7,2*%
%TO.N,GND*%
X-7950200Y15494000D03*
%TD*%
D18*
%TO.P,R6,1*%
%TO.N,+3V0*%
X-7670800Y21539200D03*
%TO.P,R6,2*%
%TO.N,PGATE*%
X-7670800Y22559200D03*
%TD*%
D16*
%TO.P,R5,1*%
%TO.N,LATCHED_POWER*%
X13436600Y-1801400D03*
%TO.P,R5,2*%
%TO.N,Net-(D2-A)*%
X13436600Y-2821400D03*
%TD*%
%TO.P,R4,1*%
%TO.N,NGATE*%
X15036800Y-4671600D03*
%TO.P,R4,2*%
%TO.N,Net-(R4-Pad2)*%
X15036800Y-5691600D03*
%TD*%
D18*
%TO.P,R3,1*%
%TO.N,LATCHED_POWER*%
X-11988800Y21539200D03*
%TO.P,R3,2*%
%TO.N,NGATE*%
X-11988800Y22559200D03*
%TD*%
D19*
%TO.P,R2,1*%
%TO.N,LATCHED_POWER*%
X-10693400Y17399000D03*
%TO.P,R2,2*%
%TO.N,BUZZER*%
X-11713400Y17399000D03*
%TD*%
D17*
%TO.P,R1,1*%
%TO.N,LATCHED_POWER*%
X9749000Y10236200D03*
%TO.P,R1,2*%
%TO.N,~{RST}*%
X10769000Y10236200D03*
%TD*%
D20*
%TO.P,C5,1*%
%TO.N,LATCHED_POWER*%
X8783200Y10261600D03*
%TO.P,C5,2*%
%TO.N,GND*%
X7823200Y10261600D03*
%TD*%
D21*
%TO.P,C3,1*%
%TO.N,LATCHED_POWER*%
X-13055600Y21899400D03*
%TO.P,C3,2*%
%TO.N,GND*%
X-13055600Y22859400D03*
%TD*%
D22*
%TO.P,C2,1*%
%TO.N,LATCHED_POWER*%
X-11988800Y20601400D03*
%TO.P,C2,2*%
%TO.N,GND*%
X-11028800Y20601400D03*
%TD*%
D21*
%TO.P,C1,1*%
%TO.N,NGATE*%
X-11988800Y23474200D03*
%TO.P,C1,2*%
%TO.N,GND*%
X-11988800Y24434200D03*
%TD*%
D23*
%TO.P,D4,1,K*%
%TO.N,PZ+*%
X-9499600Y16027500D03*
%TO.P,D4,2,A*%
%TO.N,Net-(D4-A)*%
X-9499600Y14452500D03*
%TD*%
D24*
%TO.P,U1,6,~{RESET}/PB3*%
%TO.N,~{RST}*%
X9771400Y11771200D03*
%TO.P,U1,5,VCC*%
%TO.N,LATCHED_POWER*%
X8821400Y11771200D03*
%TO.P,U1,4,PB2*%
%TO.N,BUZZER*%
X7871400Y11771200D03*
%TO.P,U1,3,PB1*%
%TO.N,TPICLK*%
X7871400Y14046200D03*
%TO.P,U1,2,GND*%
%TO.N,GND*%
X8821400Y14046200D03*
%TO.P,U1,1,PB0*%
%TO.N,DATA*%
X9771400Y14046200D03*
%TD*%
D25*
%TO.P,D1,1,K*%
%TO.N,NGATE*%
X-7493000Y23926700D03*
%TO.P,D1,2,A*%
%TO.N,PZ+*%
X-7493000Y25501700D03*
%TD*%
D26*
%TO.P,BT2,1,+*%
%TO.N,+3V0*%
X-10875000Y0D03*
X10875000Y0D03*
D27*
%TO.P,BT2,2,-*%
%TO.N,GND*%
X0Y0D03*
%TD*%
D28*
%TO.P,BZ2,1,+*%
%TO.N,PZ+*%
X-7600000Y18796000D03*
%TO.P,BZ2,2,-*%
%TO.N,GND*%
X7600000Y18796000D03*
%TD*%
D29*
%TO.P,SW1,1,1*%
%TO.N,NGATE*%
X-11430000Y-10150000D03*
X-15430000Y-10150000D03*
%TO.P,SW1,2,2*%
%TO.N,+3V0*%
X-11430000Y-8650000D03*
X-15430000Y-8650000D03*
D30*
%TO.P,SW1,SH,B*%
%TO.N,GND*%
X-13430000Y-7700000D03*
%TD*%
D31*
%TO.P,RV1,1,1*%
%TO.N,NGATE*%
X-12845800Y9213200D03*
D32*
%TO.P,RV1,2,2*%
%TO.N,GND*%
X-8845800Y10363200D03*
D31*
%TO.P,RV1,3,3*%
%TO.N,unconnected-(RV1-Pad3)*%
X-12845800Y11513200D03*
%TD*%
D33*
%TO.P,D3,1,K*%
%TO.N,NGATE*%
X-10718900Y25450800D03*
%TO.P,D3,2,A*%
%TO.N,GND*%
X-9143900Y25450800D03*
%TD*%
D34*
%TO.P,BT1,1,+*%
%TO.N,+3V0*%
X10875000Y0D03*
X-10875000Y0D03*
D27*
%TO.P,BT1,2,-*%
%TO.N,GND*%
X0Y0D03*
%TD*%
D35*
%TO.P,BZ1,1,+*%
%TO.N,PZ+*%
X-6000000Y18796000D03*
%TO.P,BZ1,2,-*%
%TO.N,GND*%
X6000000Y18796000D03*
%TD*%
D29*
%TO.P,SW4,1,1*%
%TO.N,GND*%
X15430000Y-10150000D03*
X11430000Y-10150000D03*
%TO.P,SW4,2,2*%
%TO.N,Net-(R4-Pad2)*%
X15430000Y-8650000D03*
X11430000Y-8650000D03*
D30*
%TO.P,SW4,SH,B*%
%TO.N,GND*%
X13430000Y-7700000D03*
%TD*%
D36*
%TO.P,D2,1,K*%
%TO.N,GND*%
X13411200Y-6093700D03*
%TO.P,D2,2,A*%
%TO.N,Net-(D2-A)*%
X13411200Y-4218700D03*
%TD*%
D37*
%TO.N,GND*%
X10795000Y13106400D03*
X8813800Y15113000D03*
%TO.N,LATCHED_POWER*%
X6477000Y12979400D03*
%TO.N,BUZZER*%
X5308600Y11760200D03*
X-11709400Y18313400D03*
%TO.N,NGATE*%
X-12827000Y-9321800D03*
X15113000Y-3302000D03*
%TO.N,GND*%
X14706600Y-10134600D03*
X-13411200Y-6883400D03*
%TO.N,NGATE*%
X-12845800Y9213200D03*
%TO.N,+3V0*%
X-6832600Y21564600D03*
%TO.N,LATCHED_POWER*%
X-9855200Y21082000D03*
%TO.N,GND*%
X-10998200Y19710400D03*
%TO.N,NGATE*%
X-6781800Y23952200D03*
%TO.N,GND*%
X-9093200Y24180800D03*
%TO.N,PGATE*%
X-6858000Y22555200D03*
%TO.N,NGATE*%
X-11912600Y25476200D03*
%TD*%
D38*
%TO.N,BUZZER*%
X7860400Y11760200D02*
X7871400Y11771200D01*
X5308600Y11760200D02*
X7860400Y11760200D01*
%TO.N,~{RST}*%
X11684000Y12420600D02*
X11684000Y27432000D01*
X11034600Y11771200D02*
X11684000Y12420600D01*
X9771400Y11771200D02*
X11034600Y11771200D01*
%TO.N,DATA*%
X9232900Y23304500D02*
X9144000Y23393400D01*
X9232900Y23304500D02*
X9169400Y23368000D01*
X9144000Y23393400D02*
X9144000Y27432000D01*
%TO.N,TPICLK*%
X7871400Y15567600D02*
X7871400Y14046200D01*
X10591800Y16840200D02*
X10007600Y16256000D01*
X6604000Y24790400D02*
X10591800Y20802600D01*
X10591800Y20802600D02*
X10591800Y16840200D01*
X6604000Y27432000D02*
X6604000Y24790400D01*
X10007600Y16256000D02*
X8559800Y16256000D01*
X8559800Y16256000D02*
X7871400Y15567600D01*
%TO.N,DATA*%
X9144000Y27432000D02*
X9144000Y25044400D01*
X11176000Y21361400D02*
X9347200Y23190200D01*
X10439400Y15722600D02*
X11176000Y16459200D01*
X11176000Y20955000D02*
X11176000Y21361400D01*
X9771400Y15054600D02*
X10439400Y15722600D01*
X9771400Y14046200D02*
X9771400Y15054600D01*
X11176000Y16459200D02*
X11176000Y20955000D01*
X9347200Y23190200D02*
X9232900Y23304500D01*
%TO.N,GND*%
X8821400Y15105400D02*
X8813800Y15113000D01*
X8821400Y14046200D02*
X8821400Y15105400D01*
%TO.N,~{RST}*%
X9771400Y11233800D02*
X10769000Y10236200D01*
X9771400Y11771200D02*
X9771400Y11233800D01*
%TO.N,LATCHED_POWER*%
X8458200Y12903200D02*
X6553200Y12903200D01*
X8821400Y12540000D02*
X8458200Y12903200D01*
X6553200Y12903200D02*
X6477000Y12979400D01*
X8821400Y11771200D02*
X8821400Y12540000D01*
%TO.N,BUZZER*%
X-11713400Y18309400D02*
X-11709400Y18313400D01*
X-11713400Y17399000D02*
X-11713400Y18309400D01*
%TO.N,+3V0*%
X1524000Y27432000D02*
X1524000Y10972800D01*
X3733800Y10972800D02*
X1524000Y10972800D01*
X10875000Y0D02*
X10875000Y3831600D01*
X10875000Y3831600D02*
X3733800Y10972800D01*
X1524000Y10972800D02*
X-4013200Y10972800D01*
X-10875000Y4111000D02*
X-10875000Y0D01*
X-4013200Y10972800D02*
X-10875000Y4111000D01*
%TO.N,LATCHED_POWER*%
X13436600Y6548600D02*
X13436600Y-1801400D01*
X9749000Y10236200D02*
X13436600Y6548600D01*
%TO.N,NGATE*%
X15036800Y-4671600D02*
X15036800Y-3378200D01*
X15036800Y-3378200D02*
X15113000Y-3302000D01*
%TO.N,Net-(D2-A)*%
X13436600Y-4193300D02*
X13411200Y-4218700D01*
X13436600Y-2821400D02*
X13436600Y-4193300D01*
%TO.N,GND*%
X14722000Y-10150000D02*
X14706600Y-10134600D01*
X15430000Y-10150000D02*
X14722000Y-10150000D01*
%TO.N,Net-(R4-Pad2)*%
X14413200Y-8650000D02*
X15430000Y-8650000D01*
X13741400Y-9321800D02*
X14413200Y-8650000D01*
X12231400Y-8650000D02*
X12903200Y-9321800D01*
X11430000Y-8650000D02*
X12231400Y-8650000D01*
X12903200Y-9321800D02*
X13741400Y-9321800D01*
%TO.N,GND*%
X13411200Y-6093700D02*
X13411200Y-7681200D01*
X13411200Y-7681200D02*
X13430000Y-7700000D01*
%TO.N,Net-(R4-Pad2)*%
X15036800Y-7086600D02*
X15036800Y-5691600D01*
X15430000Y-7479800D02*
X15036800Y-7086600D01*
X15430000Y-8650000D02*
X15430000Y-7479800D01*
%TO.N,NGATE*%
X-12827000Y-9321800D02*
X-11998800Y-10150000D01*
X-11998800Y-10150000D02*
X-11430000Y-10150000D01*
X-13970000Y-9321800D02*
X-12827000Y-9321800D01*
X-14798200Y-10150000D02*
X-13970000Y-9321800D01*
X-15430000Y-10150000D02*
X-14798200Y-10150000D01*
%TO.N,+3V0*%
X-11988800Y-5664200D02*
X-15430000Y-5664200D01*
X-15430000Y-8650000D02*
X-15430000Y-5664200D01*
X-11430000Y-6223000D02*
X-11988800Y-5664200D01*
X-11430000Y-8650000D02*
X-11430000Y-6223000D01*
X-13893800Y0D02*
X-10875000Y0D01*
X-15430000Y-1536200D02*
X-13893800Y0D01*
X-15430000Y-5664200D02*
X-15430000Y-1536200D01*
%TO.N,GND*%
X-13430000Y-6902200D02*
X-13411200Y-6883400D01*
X-13430000Y-7700000D02*
X-13430000Y-6902200D01*
%TO.N,+3V0*%
X-7670800Y21539200D02*
X-6858000Y21539200D01*
X-6858000Y21539200D02*
X-6832600Y21564600D01*
%TO.N,LATCHED_POWER*%
X-9827200Y21110000D02*
X-9855200Y21082000D01*
X-9827200Y21904400D02*
X-9827200Y21110000D01*
%TO.N,GND*%
X-11028800Y19741000D02*
X-10998200Y19710400D01*
X-11028800Y20601400D02*
X-11028800Y19741000D01*
%TO.N,NGATE*%
X-6781800Y23952200D02*
X-7467500Y23952200D01*
X-7467500Y23952200D02*
X-7493000Y23926700D01*
%TO.N,GND*%
X-9143900Y24231500D02*
X-9093200Y24180800D01*
X-9143900Y25450800D02*
X-9143900Y24231500D01*
X-9095200Y24182800D02*
X-9093200Y24180800D01*
X-10005600Y24182800D02*
X-9095200Y24182800D01*
%TO.N,PGATE*%
X-6862000Y22559200D02*
X-6858000Y22555200D01*
X-7670800Y22559200D02*
X-6862000Y22559200D01*
%TO.N,NGATE*%
X-7721700Y24155400D02*
X-7493000Y23926700D01*
X-11887200Y25450800D02*
X-11912600Y25476200D01*
X-10718900Y25450800D02*
X-11887200Y25450800D01*
%TO.N,GND*%
X-9194800Y25450800D02*
X-11176000Y27432000D01*
X-9143900Y25450800D02*
X-9194800Y25450800D01*
%TO.N,PZ+*%
X-7493000Y25501700D02*
X-6096100Y25501700D01*
X-6096100Y25501700D02*
X-6096000Y25501600D01*
X-6096000Y27432000D02*
X-6096000Y25501600D01*
%TO.N,NGATE*%
X-11025600Y25144100D02*
X-10718900Y25450800D01*
X-11025600Y24182800D02*
X-11025600Y25144100D01*
%TO.N,PZ+*%
X-6096000Y25501600D02*
X-6096000Y18892000D01*
X-6096000Y18892000D02*
X-6000000Y18796000D01*
%TO.N,LATCHED_POWER*%
X8821400Y10299800D02*
X8783200Y10261600D01*
X8821400Y11771200D02*
X8821400Y10299800D01*
X8821400Y11651000D02*
X8864600Y11607800D01*
X8821400Y11771200D02*
X8821400Y11651000D01*
X9723600Y10261600D02*
X9749000Y10236200D01*
X8783200Y10261600D02*
X9723600Y10261600D01*
%TO.N,PZ+*%
X-9013100Y16514000D02*
X-9499600Y16027500D01*
X-7950200Y16514000D02*
X-9013100Y16514000D01*
X-7950200Y16514000D02*
X-7950200Y18445800D01*
X-7950200Y18445800D02*
X-7600000Y18796000D01*
%TO.N,LATCHED_POWER*%
X-10693400Y18389600D02*
X-10693400Y17399000D01*
X-11988800Y19685000D02*
X-10693400Y18389600D01*
X-11988800Y20601400D02*
X-11988800Y19685000D01*
%TO.N,BUZZER*%
X-12954000Y17399000D02*
X-11713400Y17399000D01*
X-13335000Y17018000D02*
X-12954000Y17399000D01*
X-13335000Y16258000D02*
X-13335000Y17018000D01*
%TO.N,Net-(D4-A)*%
X-13081000Y13233400D02*
X-12725400Y13233400D01*
X-13335000Y13487400D02*
X-13081000Y13233400D01*
X-13335000Y13487400D02*
X-13335000Y15238000D01*
X-10881600Y13604000D02*
X-11252200Y13233400D01*
X-10881600Y14219600D02*
X-10881600Y13604000D01*
X-11252200Y13233400D02*
X-12725400Y13233400D01*
X-10881600Y14219600D02*
X-9732500Y14219600D01*
X-9732500Y14219600D02*
X-9499600Y14452500D01*
X-10881600Y15039600D02*
X-11056600Y15214600D01*
X-10881600Y14219600D02*
X-10881600Y15039600D01*
%TO.N,LATCHED_POWER*%
X-10881600Y17210800D02*
X-10693400Y17399000D01*
X-10881600Y16209600D02*
X-10881600Y17210800D01*
%TO.N,BUZZER*%
X-11531600Y17217200D02*
X-11713400Y17399000D01*
X-11531600Y16209600D02*
X-11531600Y17217200D01*
%TO.N,GND*%
X-13055600Y24081200D02*
X-13055600Y22859400D01*
X-12702600Y24434200D02*
X-13055600Y24081200D01*
X-11988800Y24434200D02*
X-12702600Y24434200D01*
X-10822200Y23342800D02*
X-10005600Y24159400D01*
X-10005600Y24159400D02*
X-10005600Y24182800D01*
X-10822200Y23029400D02*
X-10822200Y23342800D01*
%TO.N,NGATE*%
X-11280200Y24182800D02*
X-11988800Y23474200D01*
X-11025600Y24182800D02*
X-11280200Y24182800D01*
X-11988800Y23474200D02*
X-11988800Y22559200D01*
X-11430000Y22379400D02*
X-11609800Y22559200D01*
X-10822200Y22379400D02*
X-11430000Y22379400D01*
X-11988800Y22559200D02*
X-11609800Y22559200D01*
%TO.N,LATCHED_POWER*%
X-12494800Y21539200D02*
X-11988800Y21539200D01*
X-13055600Y21899400D02*
X-12855000Y21899400D01*
X-12855000Y21899400D02*
X-12494800Y21539200D01*
X-11988800Y21539200D02*
X-11988800Y20601400D01*
X-11457400Y21539200D02*
X-11988800Y21539200D01*
X-11267200Y21729400D02*
X-11457400Y21539200D01*
X-10822200Y21729400D02*
X-11267200Y21729400D01*
X-10822200Y21729400D02*
X-10002200Y21729400D01*
X-10002200Y21729400D02*
X-9827200Y21904400D01*
%TO.N,+3V0*%
X-8832200Y21729400D02*
X-8392400Y21729400D01*
X-8392400Y21729400D02*
X-8202200Y21539200D01*
X-8202200Y21539200D02*
X-7670800Y21539200D01*
%TO.N,PGATE*%
X-8126000Y22559200D02*
X-7670800Y22559200D01*
X-8305800Y22379400D02*
X-8126000Y22559200D01*
X-8832200Y22379400D02*
X-8305800Y22379400D01*
X-9652200Y23029400D02*
X-9827200Y22854400D01*
X-8832200Y23029400D02*
X-9652200Y23029400D01*
X-8832200Y23029400D02*
X-8832200Y22379400D01*
%TD*%
%TA.AperFunction,Conductor*%
%TO.N,GND*%
G36*
X11298371Y16015585D02*
G01*
X11342335Y15971621D01*
X11353300Y15925950D01*
X11353300Y12599250D01*
X11334087Y12540119D01*
X11323835Y12528115D01*
X10927085Y12131365D01*
X10871687Y12103139D01*
X10855950Y12101900D01*
X10375699Y12101900D01*
X10316568Y12121113D01*
X10280023Y12171413D01*
X10275099Y12202500D01*
X10275099Y12317269D01*
X10268287Y12364026D01*
X10265083Y12386019D01*
X10213239Y12492069D01*
X10129769Y12575539D01*
X10064125Y12607630D01*
X10023724Y12627381D01*
X10023721Y12627382D01*
X10023719Y12627383D01*
X9954969Y12637400D01*
X9587832Y12637399D01*
X9587830Y12637399D01*
X9557232Y12632941D01*
X9519081Y12627383D01*
X9519078Y12627381D01*
X9519076Y12627381D01*
X9461533Y12599250D01*
X9413031Y12575539D01*
X9367532Y12530040D01*
X9354288Y12523292D01*
X9344007Y12512555D01*
X9327280Y12509531D01*
X9312137Y12501816D01*
X9297455Y12504141D01*
X9282824Y12501497D01*
X9268124Y12508786D01*
X9250729Y12511542D01*
X9226827Y12528514D01*
X9226050Y12529257D01*
X9179769Y12575539D01*
X9175569Y12577591D01*
X9166462Y12586312D01*
X9155009Y12607630D01*
X9140622Y12627089D01*
X9138866Y12632925D01*
X9129564Y12667646D01*
X9086026Y12743055D01*
X9024455Y12804626D01*
X9024453Y12804626D01*
X9016176Y12812904D01*
X9016172Y12812906D01*
X8871111Y12957967D01*
X8842887Y13013363D01*
X8852613Y13074771D01*
X8896577Y13118735D01*
X8942246Y13129700D01*
X9003191Y13129700D01*
X9097803Y13144685D01*
X9211821Y13202780D01*
X9260833Y13251791D01*
X9316231Y13280017D01*
X9377639Y13270290D01*
X9403100Y13251792D01*
X9413032Y13241860D01*
X9519075Y13190018D01*
X9519078Y13190017D01*
X9587830Y13180000D01*
X9587831Y13180000D01*
X9954969Y13180000D01*
X9954969Y13180001D01*
X10023716Y13190016D01*
X10023723Y13190018D01*
X10129766Y13241859D01*
X10129767Y13241860D01*
X10129769Y13241861D01*
X10213239Y13325331D01*
X10239321Y13378683D01*
X10265081Y13431375D01*
X10265082Y13431378D01*
X10265082Y13431379D01*
X10265083Y13431381D01*
X10275100Y13500131D01*
X10275099Y14592268D01*
X10265083Y14661019D01*
X10213239Y14767069D01*
X10153527Y14826780D01*
X10125302Y14882175D01*
X10135027Y14943584D01*
X10153528Y14969048D01*
X11181565Y15997085D01*
X11236963Y16025311D01*
X11298371Y16015585D01*
G37*
%TD.AperFunction*%
%TA.AperFunction,Conductor*%
G36*
X9990681Y15906087D02*
G01*
X10027226Y15855787D01*
X10027226Y15793613D01*
X10002685Y15753565D01*
X9574082Y15324962D01*
X9574076Y15324957D01*
X9506774Y15257655D01*
X9463234Y15182243D01*
X9463233Y15182241D01*
X9440701Y15098144D01*
X9440700Y15098136D01*
X9440700Y14919878D01*
X9438191Y14912157D01*
X9439461Y14904141D01*
X9428766Y14883152D01*
X9421487Y14860747D01*
X9411235Y14848743D01*
X9403101Y14840609D01*
X9347703Y14812383D01*
X9286295Y14822109D01*
X9260830Y14840610D01*
X9211821Y14889619D01*
X9097802Y14947714D01*
X9097797Y14947716D01*
X9003198Y14962699D01*
X8948400Y14962698D01*
X8948400Y14146800D01*
X8943476Y14131645D01*
X8943476Y14115713D01*
X8934110Y14102822D01*
X8929187Y14087669D01*
X8916296Y14078303D01*
X8906931Y14065413D01*
X8891777Y14060489D01*
X8878887Y14051124D01*
X8847800Y14046200D01*
X8795000Y14046200D01*
X8735869Y14065413D01*
X8699324Y14115713D01*
X8694400Y14146800D01*
X8694400Y14962699D01*
X8639608Y14962699D01*
X8544996Y14947714D01*
X8430978Y14889619D01*
X8381968Y14840609D01*
X8367769Y14833374D01*
X8356504Y14822109D01*
X8340766Y14819616D01*
X8326570Y14812383D01*
X8310833Y14814875D01*
X8295096Y14812383D01*
X8280899Y14819616D01*
X8265162Y14822109D01*
X8239701Y14840606D01*
X8231563Y14848744D01*
X8203339Y14904140D01*
X8203339Y14904141D01*
X8202100Y14919877D01*
X8202100Y15388950D01*
X8221313Y15448081D01*
X8231565Y15460085D01*
X8667315Y15895835D01*
X8722713Y15924061D01*
X8738450Y15925300D01*
X9931550Y15925300D01*
X9990681Y15906087D01*
G37*
%TD.AperFunction*%
%TA.AperFunction,Conductor*%
G36*
X-10312814Y20780308D02*
G01*
X-10307081Y20771480D01*
X-10292589Y20746379D01*
X-10190821Y20644611D01*
X-10085723Y20583933D01*
X-10066180Y20572650D01*
X-10060084Y20570125D01*
X-10060956Y20568019D01*
X-10017280Y20539644D01*
X-9995009Y20481596D01*
X-10011112Y20421543D01*
X-10011698Y20420652D01*
X-10041881Y20375480D01*
X-10041881Y20375479D01*
X-10053700Y20316063D01*
X-10053700Y17756876D01*
X-10072913Y17697745D01*
X-10123213Y17661200D01*
X-10185387Y17661200D01*
X-10235687Y17697745D01*
X-10236374Y17698702D01*
X-10241630Y17706118D01*
X-10276673Y17781267D01*
X-10339254Y17843848D01*
X-10344174Y17850789D01*
X-10351023Y17872740D01*
X-10361461Y17893226D01*
X-10362700Y17908963D01*
X-10362700Y18433136D01*
X-10362701Y18433144D01*
X-10385233Y18517241D01*
X-10385234Y18517243D01*
X-10428774Y18592655D01*
X-10496076Y18659957D01*
X-10496082Y18659962D01*
X-11628635Y19792515D01*
X-11656861Y19847913D01*
X-11658100Y19863650D01*
X-11658100Y20094365D01*
X-11655591Y20102086D01*
X-11656861Y20110106D01*
X-11646165Y20131094D01*
X-11638887Y20153496D01*
X-11628632Y20165503D01*
X-11615499Y20178635D01*
X-11560101Y20206859D01*
X-11498692Y20197131D01*
X-11473233Y20178632D01*
X-11403273Y20108673D01*
X-11403271Y20108671D01*
X-11292073Y20052014D01*
X-11292067Y20052012D01*
X-11199813Y20037400D01*
X-11155800Y20037400D01*
X-10901800Y20037400D01*
X-10901799Y20037399D01*
X-10857795Y20037400D01*
X-10765526Y20052014D01*
X-10654329Y20108671D01*
X-10566071Y20196929D01*
X-10509414Y20308126D01*
X-10509412Y20308132D01*
X-10494800Y20400386D01*
X-10494800Y20474400D01*
X-10901800Y20474400D01*
X-10901800Y20037400D01*
X-11155800Y20037400D01*
X-11155800Y20500800D01*
X-11150876Y20515954D01*
X-11150876Y20531887D01*
X-11141510Y20544777D01*
X-11136587Y20559931D01*
X-11123696Y20569296D01*
X-11114331Y20582187D01*
X-11099177Y20587110D01*
X-11086287Y20596476D01*
X-11055200Y20601400D01*
X-11028800Y20601400D01*
X-11028800Y20627800D01*
X-11009587Y20686931D01*
X-10959287Y20723476D01*
X-10928200Y20728400D01*
X-10494801Y20728400D01*
X-10491324Y20731876D01*
X-10475588Y20780308D01*
X-10425288Y20816853D01*
X-10363114Y20816853D01*
X-10312814Y20780308D01*
G37*
%TD.AperFunction*%
%TA.AperFunction,Conductor*%
G36*
X16214031Y29190287D02*
G01*
X16250576Y29139987D01*
X16255500Y29108900D01*
X16255500Y-7974319D01*
X16236287Y-8033450D01*
X16185987Y-8069995D01*
X16123813Y-8069995D01*
X16097199Y-8056726D01*
X16092269Y-8053274D01*
X15984010Y-8002792D01*
X15934690Y-7996300D01*
X15934688Y-7996300D01*
X15861300Y-7996300D01*
X15802169Y-7977087D01*
X15765624Y-7926787D01*
X15760700Y-7895700D01*
X15760700Y-7531453D01*
X15760701Y-7531440D01*
X15760701Y-7436264D01*
X15760700Y-7436260D01*
X15738164Y-7352155D01*
X15738164Y-7352154D01*
X15727327Y-7333384D01*
X15694626Y-7276745D01*
X15633055Y-7215174D01*
X15629547Y-7211666D01*
X15629536Y-7211656D01*
X15396965Y-6979085D01*
X15368739Y-6923687D01*
X15367500Y-6907950D01*
X15367500Y-6196462D01*
X15386713Y-6137331D01*
X15413294Y-6115429D01*
X15411856Y-6113376D01*
X15419062Y-6108328D01*
X15419067Y-6108327D01*
X15503527Y-6023867D01*
X15554006Y-5915614D01*
X15560500Y-5866288D01*
X15560500Y-5516912D01*
X15560500Y-5516909D01*
X15554007Y-5467589D01*
X15551002Y-5461145D01*
X15503527Y-5359333D01*
X15419067Y-5274873D01*
X15414566Y-5272774D01*
X15369096Y-5230373D01*
X15357232Y-5169341D01*
X15383507Y-5112992D01*
X15414565Y-5090426D01*
X15419067Y-5088327D01*
X15503527Y-5003867D01*
X15554006Y-4895614D01*
X15558364Y-4862517D01*
X15560500Y-4846290D01*
X15560500Y-4496909D01*
X15554007Y-4447589D01*
X15503528Y-4339335D01*
X15503527Y-4339334D01*
X15503527Y-4339333D01*
X15419067Y-4254873D01*
X15419064Y-4254871D01*
X15411854Y-4249823D01*
X15413848Y-4246974D01*
X15380095Y-4215476D01*
X15367500Y-4166737D01*
X15367500Y-3844305D01*
X15386713Y-3785174D01*
X15417802Y-3757182D01*
X15421821Y-3754861D01*
X15448621Y-3739389D01*
X15550389Y-3637621D01*
X15622350Y-3512980D01*
X15623608Y-3508287D01*
X15659599Y-3373965D01*
X15659600Y-3373959D01*
X15659600Y-3230040D01*
X15659599Y-3230034D01*
X15622352Y-3091026D01*
X15622350Y-3091023D01*
X15622350Y-3091020D01*
X15550389Y-2966379D01*
X15448621Y-2864611D01*
X15323980Y-2792650D01*
X15323973Y-2792647D01*
X15184965Y-2755400D01*
X15184961Y-2755400D01*
X15041039Y-2755400D01*
X15041034Y-2755400D01*
X14902026Y-2792647D01*
X14902019Y-2792650D01*
X14854537Y-2820064D01*
X14777379Y-2864611D01*
X14675611Y-2966379D01*
X14675610Y-2966381D01*
X14603650Y-3091019D01*
X14603647Y-3091026D01*
X14566400Y-3230034D01*
X14566400Y-3373965D01*
X14603647Y-3512973D01*
X14603650Y-3512980D01*
X14675611Y-3637621D01*
X14676636Y-3638646D01*
X14677105Y-3639567D01*
X14679625Y-3642851D01*
X14679016Y-3643317D01*
X14704861Y-3694042D01*
X14706100Y-3709779D01*
X14706100Y-4166737D01*
X14686887Y-4225868D01*
X14660315Y-4247780D01*
X14661746Y-4249823D01*
X14654533Y-4254873D01*
X14570071Y-4339335D01*
X14519592Y-4447589D01*
X14515868Y-4475877D01*
X14515867Y-4475891D01*
X14513100Y-4496912D01*
X14513100Y-4554800D01*
X14513100Y-4846290D01*
X14519592Y-4895610D01*
X14570071Y-5003864D01*
X14570072Y-5003865D01*
X14570073Y-5003867D01*
X14654533Y-5088327D01*
X14658340Y-5090102D01*
X14659034Y-5090426D01*
X14704505Y-5132830D01*
X14716367Y-5193862D01*
X14690090Y-5250211D01*
X14659034Y-5272774D01*
X14654537Y-5274871D01*
X14654533Y-5274873D01*
X14570071Y-5359335D01*
X14519592Y-5467589D01*
X14513100Y-5516909D01*
X14513100Y-5599093D01*
X14493887Y-5658224D01*
X14443587Y-5694769D01*
X14381413Y-5694769D01*
X14331113Y-5658224D01*
X14318243Y-5634249D01*
X14308808Y-5608953D01*
X14308806Y-5608949D01*
X14223030Y-5494369D01*
X14108450Y-5408593D01*
X14108446Y-5408591D01*
X13974342Y-5358574D01*
X13915055Y-5352200D01*
X13538200Y-5352200D01*
X13538200Y-5966700D01*
X14365198Y-5966700D01*
X14385147Y-5946751D01*
X14440545Y-5918524D01*
X14501954Y-5928249D01*
X14545918Y-5972213D01*
X14547457Y-5975369D01*
X14570069Y-6023861D01*
X14570073Y-6023867D01*
X14654532Y-6108326D01*
X14661744Y-6113376D01*
X14659743Y-6116233D01*
X14693463Y-6147647D01*
X14706100Y-6196462D01*
X14706100Y-7130136D01*
X14706101Y-7130144D01*
X14728633Y-7214241D01*
X14728634Y-7214243D01*
X14772174Y-7289655D01*
X14839476Y-7356957D01*
X14839482Y-7356962D01*
X15069835Y-7587315D01*
X15098061Y-7642713D01*
X15099300Y-7658450D01*
X15099300Y-7895700D01*
X15080087Y-7954831D01*
X15029787Y-7991376D01*
X14998700Y-7996300D01*
X14925310Y-7996300D01*
X14875989Y-8002792D01*
X14767735Y-8053271D01*
X14683271Y-8137735D01*
X14632792Y-8245990D01*
X14632541Y-8246853D01*
X14632062Y-8247555D01*
X14631637Y-8248468D01*
X14631637Y-8249787D01*
X14629920Y-8252150D01*
X14629542Y-8252961D01*
X14629384Y-8252887D01*
X14614224Y-8273753D01*
X14597548Y-8298245D01*
X14596035Y-8298787D01*
X14595092Y-8300087D01*
X14566918Y-8309241D01*
X14539031Y-8319253D01*
X14535961Y-8319300D01*
X14462915Y-8319300D01*
X14462899Y-8319299D01*
X14456738Y-8319299D01*
X14369663Y-8319299D01*
X14369658Y-8319299D01*
X14308091Y-8335796D01*
X14308091Y-8335797D01*
X14285554Y-8341836D01*
X14285553Y-8341836D01*
X14285551Y-8341837D01*
X14206413Y-8387528D01*
X14145598Y-8400455D01*
X14088799Y-8375167D01*
X14062449Y-8337114D01*
X14059188Y-8328795D01*
X14055501Y-8310256D01*
X14006465Y-8191873D01*
X14004197Y-8188479D01*
X14000794Y-8179795D01*
X13999282Y-8154365D01*
X13994808Y-8129297D01*
X13997467Y-8123814D01*
X13997106Y-8117730D01*
X14010830Y-8096269D01*
X14021945Y-8073358D01*
X14023326Y-8071949D01*
X14028657Y-8066617D01*
X14028658Y-8066616D01*
X14077693Y-7961461D01*
X14084000Y-7913552D01*
X14084000Y-7827000D01*
X12776000Y-7827000D01*
X12776000Y-7913552D01*
X12782306Y-7961461D01*
X12831340Y-8066615D01*
X12836677Y-8071952D01*
X12864903Y-8127350D01*
X12855407Y-8187299D01*
X12855426Y-8187307D01*
X12855394Y-8187381D01*
X12855177Y-8188758D01*
X12854266Y-8190504D01*
X12853535Y-8191870D01*
X12804499Y-8310254D01*
X12804497Y-8310263D01*
X12779500Y-8435931D01*
X12779500Y-8487550D01*
X12772219Y-8509955D01*
X12768535Y-8533221D01*
X12762795Y-8538960D01*
X12760287Y-8546681D01*
X12741227Y-8560528D01*
X12724571Y-8577185D01*
X12716554Y-8578454D01*
X12709987Y-8583226D01*
X12686429Y-8583226D01*
X12663163Y-8586911D01*
X12655931Y-8583226D01*
X12647813Y-8583226D01*
X12607765Y-8558685D01*
X12501762Y-8452682D01*
X12501760Y-8452679D01*
X12434455Y-8385374D01*
X12359043Y-8341834D01*
X12300394Y-8326120D01*
X12248250Y-8292258D01*
X12231304Y-8252811D01*
X12229361Y-8253378D01*
X12227207Y-8245989D01*
X12199843Y-8187307D01*
X12176727Y-8137733D01*
X12092267Y-8053273D01*
X12092265Y-8053272D01*
X12092264Y-8053271D01*
X11984010Y-8002792D01*
X11934690Y-7996300D01*
X11934688Y-7996300D01*
X10925312Y-7996300D01*
X10925310Y-7996300D01*
X10875989Y-8002792D01*
X10767735Y-8053271D01*
X10683271Y-8137735D01*
X10632792Y-8245989D01*
X10626300Y-8295309D01*
X10626300Y-9004690D01*
X10632792Y-9054010D01*
X10683271Y-9162264D01*
X10683272Y-9162265D01*
X10683273Y-9162267D01*
X10767733Y-9246727D01*
X10839244Y-9280073D01*
X10884715Y-9322475D01*
X10896578Y-9383507D01*
X10870302Y-9439856D01*
X10842399Y-9460882D01*
X10733504Y-9516366D01*
X10646366Y-9603504D01*
X10590428Y-9713290D01*
X10590426Y-9713296D01*
X10576000Y-9804377D01*
X10576000Y-10023000D01*
X12284000Y-10023000D01*
X12284000Y-9804382D01*
X12283999Y-9804377D01*
X12269573Y-9713296D01*
X12269571Y-9713290D01*
X12213633Y-9603504D01*
X12126495Y-9516366D01*
X12126496Y-9516366D01*
X12017600Y-9460882D01*
X11973636Y-9416919D01*
X11963909Y-9355510D01*
X11992136Y-9300112D01*
X12004848Y-9289350D01*
X12012372Y-9283982D01*
X12092267Y-9246727D01*
X12161136Y-9177857D01*
X12167933Y-9173009D01*
X12190003Y-9166048D01*
X12210618Y-9155545D01*
X12219068Y-9156883D01*
X12227228Y-9154310D01*
X12249169Y-9161650D01*
X12272027Y-9165270D01*
X12282298Y-9172732D01*
X12286191Y-9174035D01*
X12288450Y-9177202D01*
X12297491Y-9183771D01*
X12635056Y-9521336D01*
X12635061Y-9521342D01*
X12700146Y-9586427D01*
X12746295Y-9613071D01*
X12775554Y-9629964D01*
X12798091Y-9636002D01*
X12859663Y-9652501D01*
X12921676Y-9652501D01*
X12928604Y-9653469D01*
X12950574Y-9664162D01*
X12973815Y-9671714D01*
X12978041Y-9677531D01*
X12984508Y-9680679D01*
X12995998Y-9702247D01*
X13010360Y-9722014D01*
X13010360Y-9729203D01*
X13013742Y-9735552D01*
X13010360Y-9759755D01*
X13010360Y-9784188D01*
X13005937Y-9791404D01*
X13005138Y-9797128D01*
X12997708Y-9804834D01*
X12985819Y-9824236D01*
X12924724Y-9885331D01*
X12924722Y-9885332D01*
X12853537Y-9991868D01*
X12853533Y-9991876D01*
X12804499Y-10110254D01*
X12804497Y-10110263D01*
X12779500Y-10235931D01*
X12779500Y-10364068D01*
X12804497Y-10489736D01*
X12804499Y-10489745D01*
X12853533Y-10608123D01*
X12853537Y-10608131D01*
X12924722Y-10714667D01*
X12959820Y-10749765D01*
X12988046Y-10805163D01*
X12978320Y-10866571D01*
X12934356Y-10910535D01*
X12888685Y-10921500D01*
X12231499Y-10921500D01*
X12172368Y-10902287D01*
X12135823Y-10851987D01*
X12135823Y-10789813D01*
X12160364Y-10749765D01*
X12213633Y-10696495D01*
X12269571Y-10586709D01*
X12269573Y-10586703D01*
X12283999Y-10495622D01*
X12284000Y-10495618D01*
X12284000Y-10277000D01*
X10576000Y-10277000D01*
X10576000Y-10495622D01*
X10590426Y-10586703D01*
X10590428Y-10586709D01*
X10646366Y-10696495D01*
X10699636Y-10749765D01*
X10727862Y-10805163D01*
X10718136Y-10866571D01*
X10674172Y-10910535D01*
X10628501Y-10921500D01*
X-10699637Y-10921500D01*
X-10758768Y-10902287D01*
X-10795313Y-10851987D01*
X-10795313Y-10789813D01*
X-10770772Y-10749765D01*
X-10767734Y-10746727D01*
X-10767733Y-10746727D01*
X-10683273Y-10662267D01*
X-10683272Y-10662265D01*
X-10683271Y-10662264D01*
X-10632792Y-10554010D01*
X-10626300Y-10504690D01*
X-10626300Y-9795309D01*
X-10632792Y-9745989D01*
X-10683271Y-9637735D01*
X-10767735Y-9553271D01*
X-10875989Y-9502792D01*
X-10899187Y-9499739D01*
X-10955304Y-9472973D01*
X-10984971Y-9418333D01*
X-10976856Y-9356691D01*
X-10934058Y-9311591D01*
X-10899187Y-9300261D01*
X-10875989Y-9297207D01*
X-10875987Y-9297206D01*
X-10875986Y-9297206D01*
X-10767733Y-9246727D01*
X-10683273Y-9162267D01*
X-10683272Y-9162265D01*
X-10683271Y-9162264D01*
X-10632792Y-9054010D01*
X-10626300Y-9004690D01*
X-10626300Y-8295309D01*
X-10632792Y-8245989D01*
X-10683271Y-8137735D01*
X-10767735Y-8053271D01*
X-10875989Y-8002792D01*
X-10925310Y-7996300D01*
X-10925312Y-7996300D01*
X-10998700Y-7996300D01*
X-11057831Y-7977087D01*
X-11094376Y-7926787D01*
X-11099300Y-7895700D01*
X-11099300Y-7486447D01*
X12776000Y-7486447D01*
X12776000Y-7573000D01*
X13303000Y-7573000D01*
X13557000Y-7573000D01*
X14084000Y-7573000D01*
X14084000Y-7486447D01*
X14077693Y-7438538D01*
X14028659Y-7333384D01*
X13946615Y-7251340D01*
X13841461Y-7202306D01*
X13793552Y-7196000D01*
X13557000Y-7196000D01*
X13557000Y-7573000D01*
X13303000Y-7573000D01*
X13303000Y-7196000D01*
X13066448Y-7196000D01*
X13018538Y-7202306D01*
X12913384Y-7251340D01*
X12831340Y-7333384D01*
X12782306Y-7438538D01*
X12776000Y-7486447D01*
X-11099300Y-7486447D01*
X-11099300Y-6385054D01*
X12457201Y-6385054D01*
X12463574Y-6444344D01*
X12463575Y-6444346D01*
X12513591Y-6578446D01*
X12513593Y-6578450D01*
X12599369Y-6693030D01*
X12713949Y-6778806D01*
X12713953Y-6778808D01*
X12848057Y-6828825D01*
X12907345Y-6835199D01*
X13284200Y-6835199D01*
X13538200Y-6835199D01*
X13915054Y-6835199D01*
X13974344Y-6828825D01*
X13974346Y-6828824D01*
X14108446Y-6778808D01*
X14108450Y-6778806D01*
X14223030Y-6693030D01*
X14308806Y-6578450D01*
X14308808Y-6578446D01*
X14358825Y-6444343D01*
X14358825Y-6444341D01*
X14365200Y-6385054D01*
X14365200Y-6220700D01*
X13538200Y-6220700D01*
X13538200Y-6835199D01*
X13284200Y-6835199D01*
X13284200Y-6220700D01*
X12457201Y-6220700D01*
X12457201Y-6385054D01*
X-11099300Y-6385054D01*
X-11099300Y-6274653D01*
X-11099299Y-6266540D01*
X-11099299Y-6266538D01*
X-11099299Y-6179463D01*
X-11099299Y-6179462D01*
X-11099300Y-6179456D01*
X-11121832Y-6095359D01*
X-11121833Y-6095357D01*
X-11165373Y-6019945D01*
X-11314533Y-5870786D01*
X-11382974Y-5802345D01*
X12457200Y-5802345D01*
X12457200Y-5966700D01*
X13284200Y-5966700D01*
X13284200Y-5352200D01*
X12907345Y-5352200D01*
X12848054Y-5358574D01*
X12848053Y-5358575D01*
X12713953Y-5408591D01*
X12713949Y-5408593D01*
X12599369Y-5494369D01*
X12513593Y-5608949D01*
X12513591Y-5608953D01*
X12463574Y-5743056D01*
X12463574Y-5743058D01*
X12457200Y-5802345D01*
X-11382974Y-5802345D01*
X-11785744Y-5399574D01*
X-11861156Y-5356034D01*
X-11861158Y-5356033D01*
X-11945255Y-5333501D01*
X-11945261Y-5333500D01*
X-11945262Y-5333500D01*
X-11945263Y-5333500D01*
X-14998700Y-5333500D01*
X-15057831Y-5314287D01*
X-15094376Y-5263987D01*
X-15099300Y-5232900D01*
X-15099300Y-1714850D01*
X-15080087Y-1655719D01*
X-15069835Y-1643715D01*
X-13786285Y-360165D01*
X-13730887Y-331939D01*
X-13715150Y-330700D01*
X-12054300Y-330700D01*
X-11995169Y-349913D01*
X-11958624Y-400213D01*
X-11953700Y-431300D01*
X-11953700Y-2820064D01*
X-11941881Y-2879480D01*
X-11896860Y-2946860D01*
X-11829480Y-2991881D01*
X-11770064Y-3003700D01*
X-11770063Y-3003700D01*
X-9979937Y-3003700D01*
X-9979936Y-3003700D01*
X-9920520Y-2991881D01*
X-9853140Y-2946860D01*
X-9808119Y-2879480D01*
X-9808118Y-2879479D01*
X-9796300Y-2820063D01*
X-9796300Y-2025016D01*
X-2253999Y-2025016D01*
X-2239263Y-2099105D01*
X-2183123Y-2183123D01*
X-2099105Y-2239263D01*
X-2025016Y-2253999D01*
X-127000Y-2253999D01*
X127000Y-2253999D01*
X2025017Y-2253999D01*
X2099105Y-2239263D01*
X2183123Y-2183123D01*
X2239263Y-2099105D01*
X2254000Y-2025016D01*
X2254000Y-127000D01*
X127000Y-127000D01*
X127000Y-2253999D01*
X-127000Y-2253999D01*
X-127000Y-127000D01*
X-2253999Y-127000D01*
X-2253999Y-2025016D01*
X-9796300Y-2025016D01*
X-9796300Y2025016D01*
X-2254000Y2025016D01*
X-2254000Y127000D01*
X-127000Y127000D01*
X127000Y127000D01*
X2253999Y127000D01*
X2253999Y2025016D01*
X2239263Y2099105D01*
X2183123Y2183123D01*
X2099105Y2239263D01*
X2025016Y2253999D01*
X127000Y2253999D01*
X127000Y127000D01*
X-127000Y127000D01*
X-127000Y2253999D01*
X-2025017Y2253999D01*
X-2099105Y2239263D01*
X-2183123Y2183123D01*
X-2239263Y2099105D01*
X-2254000Y2025016D01*
X-9796300Y2025016D01*
X-9796300Y2820063D01*
X-9808118Y2879479D01*
X-9823057Y2901838D01*
X-9853140Y2946860D01*
X-9920520Y2991881D01*
X-9979936Y3003700D01*
X-9979937Y3003700D01*
X-10443700Y3003700D01*
X-10502831Y3022913D01*
X-10539376Y3073213D01*
X-10544300Y3104300D01*
X-10544300Y3932350D01*
X-10525087Y3991481D01*
X-10514835Y4003485D01*
X-3905685Y10612635D01*
X-3850287Y10640861D01*
X-3834550Y10642100D01*
X1480462Y10642100D01*
X3555150Y10642100D01*
X3614281Y10622887D01*
X3626285Y10612635D01*
X10514835Y3724085D01*
X10543061Y3668687D01*
X10544300Y3652950D01*
X10544300Y3104300D01*
X10525087Y3045169D01*
X10474787Y3008624D01*
X10443700Y3003700D01*
X9979936Y3003700D01*
X9920520Y2991881D01*
X9853140Y2946860D01*
X9823057Y2901838D01*
X9808118Y2879479D01*
X9796300Y2820063D01*
X9796300Y-2820063D01*
X9808118Y-2879479D01*
X9808119Y-2879480D01*
X9853140Y-2946860D01*
X9920520Y-2991881D01*
X9979936Y-3003700D01*
X9979937Y-3003700D01*
X11770063Y-3003700D01*
X11770064Y-3003700D01*
X11829480Y-2991881D01*
X11896860Y-2946860D01*
X11941881Y-2879480D01*
X11953700Y-2820064D01*
X11953700Y2820064D01*
X11941881Y2879480D01*
X11896860Y2946860D01*
X11829480Y2991881D01*
X11770064Y3003700D01*
X11770063Y3003700D01*
X11306300Y3003700D01*
X11247169Y3022913D01*
X11210624Y3073213D01*
X11205700Y3104300D01*
X11205700Y3875136D01*
X11205698Y3875144D01*
X11183166Y3959241D01*
X11183165Y3959243D01*
X11183164Y3959243D01*
X11183164Y3959246D01*
X11139626Y4034655D01*
X11078055Y4096226D01*
X11078053Y4096226D01*
X11069776Y4104504D01*
X11069772Y4104506D01*
X5113683Y10060595D01*
X7289201Y10060595D01*
X7303814Y9968326D01*
X7360471Y9857129D01*
X7448730Y9768871D01*
X7448728Y9768871D01*
X7559926Y9712214D01*
X7559932Y9712212D01*
X7652186Y9697600D01*
X7696200Y9697600D01*
X7696200Y10134600D01*
X7289201Y10134600D01*
X7289201Y10060595D01*
X5113683Y10060595D01*
X4006706Y11167572D01*
X4006704Y11167576D01*
X3998426Y11175853D01*
X3998426Y11175855D01*
X3936855Y11237426D01*
X3861446Y11280964D01*
X3861443Y11280964D01*
X3861443Y11280965D01*
X3861441Y11280966D01*
X3808689Y11295099D01*
X3777338Y11303500D01*
X3777337Y11303500D01*
X1955300Y11303500D01*
X1896169Y11322713D01*
X1859624Y11373013D01*
X1854700Y11404100D01*
X1854700Y11832165D01*
X4762000Y11832165D01*
X4762000Y11688234D01*
X4799247Y11549226D01*
X4799250Y11549219D01*
X4843113Y11473246D01*
X4871211Y11424579D01*
X4972979Y11322811D01*
X4972981Y11322810D01*
X5097619Y11250850D01*
X5097626Y11250847D01*
X5236634Y11213600D01*
X5236639Y11213600D01*
X5380565Y11213600D01*
X5519573Y11250847D01*
X5519580Y11250850D01*
X5644221Y11322811D01*
X5721445Y11400035D01*
X5776843Y11428262D01*
X5792580Y11429500D01*
X7267101Y11429500D01*
X7326232Y11410287D01*
X7362777Y11359987D01*
X7367701Y11328900D01*
X7367701Y11225130D01*
X7377716Y11156383D01*
X7377718Y11156376D01*
X7429559Y11050333D01*
X7429560Y11050331D01*
X7429561Y11050331D01*
X7513031Y10966861D01*
X7513032Y10966860D01*
X7513034Y10966859D01*
X7519818Y10962015D01*
X7518889Y10960714D01*
X7556716Y10924113D01*
X7567451Y10862872D01*
X7540139Y10807018D01*
X7513515Y10787338D01*
X7448729Y10754328D01*
X7360471Y10666070D01*
X7303814Y10554873D01*
X7303812Y10554867D01*
X7289200Y10462613D01*
X7289200Y10388600D01*
X7722600Y10388600D01*
X7737754Y10383676D01*
X7753687Y10383676D01*
X7766577Y10374310D01*
X7781731Y10369387D01*
X7791096Y10356496D01*
X7803987Y10347131D01*
X7808910Y10331977D01*
X7818276Y10319087D01*
X7823200Y10288000D01*
X7823200Y10261600D01*
X7849600Y10261600D01*
X7908731Y10242387D01*
X7945276Y10192087D01*
X7950200Y10161000D01*
X7950200Y9697599D01*
X7994204Y9697600D01*
X8086473Y9712214D01*
X8197671Y9768871D01*
X8197673Y9768873D01*
X8267633Y9838832D01*
X8323030Y9867059D01*
X8384439Y9857332D01*
X8409900Y9838834D01*
X8443020Y9805715D01*
X8443023Y9805713D01*
X8552875Y9754488D01*
X8602926Y9747900D01*
X8602928Y9747900D01*
X8963474Y9747900D01*
X9013524Y9754488D01*
X9045659Y9769473D01*
X9123379Y9805714D01*
X9145260Y9827595D01*
X9181326Y9863660D01*
X9236723Y9891887D01*
X9298132Y9882160D01*
X9324840Y9858948D01*
X9326049Y9860157D01*
X9416732Y9769473D01*
X9416735Y9769471D01*
X9524989Y9718992D01*
X9574310Y9712500D01*
X9574312Y9712500D01*
X9763350Y9712500D01*
X9822481Y9693287D01*
X9834485Y9683035D01*
X13076435Y6441085D01*
X13104661Y6385687D01*
X13105900Y6369950D01*
X13105900Y-1296537D01*
X13086687Y-1355668D01*
X13060115Y-1377580D01*
X13061546Y-1379623D01*
X13054333Y-1384673D01*
X12969871Y-1469135D01*
X12919392Y-1577389D01*
X12912900Y-1626709D01*
X12912900Y-1976090D01*
X12919392Y-2025410D01*
X12969871Y-2133664D01*
X12969872Y-2133665D01*
X12969873Y-2133667D01*
X13054333Y-2218127D01*
X13058140Y-2219902D01*
X13058834Y-2220226D01*
X13104305Y-2262630D01*
X13116167Y-2323662D01*
X13089890Y-2380011D01*
X13058834Y-2402574D01*
X13054337Y-2404671D01*
X13054333Y-2404673D01*
X12969871Y-2489135D01*
X12919392Y-2597389D01*
X12912900Y-2646709D01*
X12912900Y-2996090D01*
X12919392Y-3045410D01*
X12969871Y-3153664D01*
X12969873Y-3153667D01*
X13054332Y-3238126D01*
X13061544Y-3243176D01*
X13059543Y-3246033D01*
X13066254Y-3252285D01*
X13086687Y-3267131D01*
X13088639Y-3273139D01*
X13093263Y-3277447D01*
X13105900Y-3326262D01*
X13105900Y-3426900D01*
X13086687Y-3486031D01*
X13036387Y-3522576D01*
X13005300Y-3527500D01*
X12901056Y-3527500D01*
X12880901Y-3529390D01*
X12870821Y-3530335D01*
X12743512Y-3574882D01*
X12743510Y-3574883D01*
X12743509Y-3574884D01*
X12634981Y-3654981D01*
X12554884Y-3763509D01*
X12554884Y-3763510D01*
X12554882Y-3763512D01*
X12510335Y-3890821D01*
X12510335Y-3890824D01*
X12507500Y-3921056D01*
X12507500Y-4516344D01*
X12509626Y-4539018D01*
X12510335Y-4546578D01*
X12554882Y-4673887D01*
X12554884Y-4673891D01*
X12634981Y-4782419D01*
X12743509Y-4862516D01*
X12870821Y-4907064D01*
X12870824Y-4907065D01*
X12901056Y-4909900D01*
X12901062Y-4909900D01*
X13921338Y-4909900D01*
X13921344Y-4909900D01*
X13951576Y-4907065D01*
X14078891Y-4862516D01*
X14187419Y-4782419D01*
X14267516Y-4673891D01*
X14312065Y-4546576D01*
X14314900Y-4516344D01*
X14314900Y-3921056D01*
X14312065Y-3890824D01*
X14267516Y-3763509D01*
X14187419Y-3654981D01*
X14078891Y-3574884D01*
X14078887Y-3574882D01*
X13951577Y-3530335D01*
X13951579Y-3530335D01*
X13941498Y-3529390D01*
X13921344Y-3527500D01*
X13921338Y-3527500D01*
X13867900Y-3527500D01*
X13852746Y-3522576D01*
X13836813Y-3522576D01*
X13823922Y-3513210D01*
X13808769Y-3508287D01*
X13799403Y-3495396D01*
X13786513Y-3486031D01*
X13781589Y-3470877D01*
X13772224Y-3457987D01*
X13767300Y-3426900D01*
X13767300Y-3326262D01*
X13786513Y-3267131D01*
X13813094Y-3245229D01*
X13811656Y-3243176D01*
X13818862Y-3238128D01*
X13818867Y-3238127D01*
X13903327Y-3153667D01*
X13953806Y-3045414D01*
X13960300Y-2996088D01*
X13960300Y-2646712D01*
X13960300Y-2646709D01*
X13953807Y-2597389D01*
X13903328Y-2489135D01*
X13903327Y-2489134D01*
X13903327Y-2489133D01*
X13818867Y-2404673D01*
X13814366Y-2402574D01*
X13768896Y-2360173D01*
X13757032Y-2299141D01*
X13783307Y-2242792D01*
X13814365Y-2220226D01*
X13818867Y-2218127D01*
X13903327Y-2133667D01*
X13953806Y-2025414D01*
X13953859Y-2025016D01*
X13960300Y-1976090D01*
X13960300Y-1626709D01*
X13953807Y-1577389D01*
X13903328Y-1469135D01*
X13903327Y-1469134D01*
X13903327Y-1469133D01*
X13818867Y-1384673D01*
X13818864Y-1384671D01*
X13811654Y-1379623D01*
X13813648Y-1376774D01*
X13779895Y-1345276D01*
X13767300Y-1296537D01*
X13767300Y6592136D01*
X13767298Y6592144D01*
X13744766Y6676241D01*
X13744765Y6676243D01*
X13744764Y6676243D01*
X13744764Y6676246D01*
X13701226Y6751655D01*
X13639655Y6813226D01*
X13639653Y6813226D01*
X13631376Y6821504D01*
X13631372Y6821506D01*
X10908278Y9544601D01*
X10880053Y9599998D01*
X10889779Y9661406D01*
X10933743Y9705370D01*
X10966283Y9715474D01*
X10993010Y9718992D01*
X11101264Y9769471D01*
X11101265Y9769472D01*
X11101267Y9769473D01*
X11185727Y9853933D01*
X11236206Y9962186D01*
X11236206Y9962187D01*
X11236207Y9962189D01*
X11242700Y10011509D01*
X11242700Y10460890D01*
X11236207Y10510210D01*
X11236206Y10510211D01*
X11236206Y10510214D01*
X11185727Y10618467D01*
X11101267Y10702927D01*
X10993014Y10753406D01*
X10993011Y10753406D01*
X10993010Y10753407D01*
X10943690Y10759900D01*
X10943688Y10759900D01*
X10754651Y10759900D01*
X10695520Y10779113D01*
X10683516Y10789365D01*
X10304565Y11168314D01*
X10300879Y11175547D01*
X10294313Y11180318D01*
X10287033Y11202721D01*
X10276339Y11223711D01*
X10275100Y11239449D01*
X10275100Y11339900D01*
X10294313Y11399031D01*
X10344613Y11435576D01*
X10375700Y11440500D01*
X11078137Y11440500D01*
X11078138Y11440500D01*
X11078139Y11440500D01*
X11078144Y11440501D01*
X11162241Y11463033D01*
X11162243Y11463034D01*
X11237655Y11506574D01*
X11304960Y11573879D01*
X11304962Y11573882D01*
X11883536Y12152456D01*
X11883547Y12152466D01*
X11948625Y12217544D01*
X11978652Y12269550D01*
X11992164Y12292954D01*
X11992165Y12292956D01*
X11992166Y12292958D01*
X12014698Y12377055D01*
X12014700Y12377063D01*
X12014700Y26361244D01*
X12033913Y26420375D01*
X12076801Y26454186D01*
X12183112Y26498223D01*
X12183114Y26498224D01*
X12241160Y26537009D01*
X12355692Y26613536D01*
X12502463Y26760307D01*
X12617773Y26932881D01*
X12617774Y26932883D01*
X12617776Y26932886D01*
X12697207Y27124647D01*
X12737700Y27328220D01*
X12737700Y27535780D01*
X12697207Y27739353D01*
X12617776Y27931114D01*
X12502462Y28103694D01*
X12355694Y28250462D01*
X12183114Y28365776D01*
X11991353Y28445207D01*
X11787780Y28485700D01*
X11580220Y28485700D01*
X11376647Y28445207D01*
X11184886Y28365776D01*
X11184883Y28365774D01*
X11184881Y28365773D01*
X11012307Y28250463D01*
X10865536Y28103692D01*
X10750226Y27931118D01*
X10750222Y27931110D01*
X10670792Y27739351D01*
X10630300Y27535779D01*
X10630300Y27328220D01*
X10670792Y27124648D01*
X10750222Y26932889D01*
X10750226Y26932881D01*
X10865536Y26760307D01*
X10865538Y26760306D01*
X11012306Y26613538D01*
X11012307Y26613536D01*
X11184887Y26498223D01*
X11291199Y26454186D01*
X11338476Y26413806D01*
X11353300Y26361244D01*
X11353300Y21894649D01*
X11334087Y21835518D01*
X11283787Y21798973D01*
X11221613Y21798973D01*
X11181567Y21823512D01*
X9611828Y23393251D01*
X9611827Y23393254D01*
X9511674Y23493404D01*
X9511672Y23493409D01*
X9504170Y23500911D01*
X9475940Y23556307D01*
X9474700Y23572051D01*
X9474700Y26361244D01*
X9493913Y26420375D01*
X9536801Y26454186D01*
X9643112Y26498223D01*
X9643114Y26498224D01*
X9701160Y26537009D01*
X9815692Y26613536D01*
X9962463Y26760307D01*
X10077773Y26932881D01*
X10077774Y26932883D01*
X10077776Y26932886D01*
X10157207Y27124647D01*
X10197700Y27328220D01*
X10197700Y27535780D01*
X10157207Y27739353D01*
X10077776Y27931114D01*
X9962462Y28103694D01*
X9815694Y28250462D01*
X9643114Y28365776D01*
X9451353Y28445207D01*
X9247780Y28485700D01*
X9040220Y28485700D01*
X8836647Y28445207D01*
X8644886Y28365776D01*
X8644883Y28365774D01*
X8644881Y28365773D01*
X8472307Y28250463D01*
X8325536Y28103692D01*
X8210226Y27931118D01*
X8210222Y27931110D01*
X8130792Y27739351D01*
X8090300Y27535779D01*
X8090300Y27328220D01*
X8130792Y27124648D01*
X8210222Y26932889D01*
X8210226Y26932881D01*
X8325536Y26760307D01*
X8325538Y26760306D01*
X8472306Y26613538D01*
X8472307Y26613536D01*
X8644887Y26498223D01*
X8751199Y26454186D01*
X8798476Y26413806D01*
X8813300Y26361244D01*
X8813300Y23349862D01*
X8826331Y23301227D01*
X8823076Y23239138D01*
X8783947Y23190820D01*
X8723891Y23174729D01*
X8665847Y23197011D01*
X8658028Y23204050D01*
X6964163Y24897916D01*
X6935939Y24953312D01*
X6934700Y24969049D01*
X6934700Y26361244D01*
X6953913Y26420375D01*
X6996801Y26454186D01*
X7103112Y26498223D01*
X7103114Y26498224D01*
X7161160Y26537009D01*
X7275692Y26613536D01*
X7422463Y26760307D01*
X7537773Y26932881D01*
X7537774Y26932883D01*
X7537776Y26932886D01*
X7617207Y27124647D01*
X7657700Y27328220D01*
X7657700Y27535780D01*
X7617207Y27739353D01*
X7537776Y27931114D01*
X7422462Y28103694D01*
X7275694Y28250462D01*
X7103114Y28365776D01*
X6911353Y28445207D01*
X6707780Y28485700D01*
X6500220Y28485700D01*
X6296647Y28445207D01*
X6104886Y28365776D01*
X6104883Y28365774D01*
X6104881Y28365773D01*
X5932307Y28250463D01*
X5785536Y28103692D01*
X5670226Y27931118D01*
X5670222Y27931110D01*
X5590792Y27739351D01*
X5550300Y27535779D01*
X5550300Y27328220D01*
X5590792Y27124648D01*
X5670222Y26932889D01*
X5670226Y26932881D01*
X5785536Y26760307D01*
X5785538Y26760306D01*
X5932306Y26613538D01*
X5932307Y26613536D01*
X6104887Y26498223D01*
X6211199Y26454186D01*
X6258476Y26413806D01*
X6273300Y26361244D01*
X6273300Y24746863D01*
X6273301Y24746855D01*
X6295833Y24662758D01*
X6295834Y24662756D01*
X6339374Y24587344D01*
X10231635Y20695084D01*
X10259861Y20639686D01*
X10261100Y20623949D01*
X10261100Y20469568D01*
X10241887Y20410437D01*
X10191587Y20373892D01*
X10129413Y20373892D01*
X10079113Y20410437D01*
X10076854Y20413677D01*
X10033123Y20479123D01*
X9949105Y20535263D01*
X9875016Y20549999D01*
X7727000Y20549999D01*
X7727000Y17042000D01*
X9875016Y17042000D01*
X9949105Y17056736D01*
X10033125Y17112877D01*
X10076855Y17178322D01*
X10125681Y17216813D01*
X10187808Y17219254D01*
X10239503Y17184711D01*
X10261022Y17126380D01*
X10261100Y17122431D01*
X10261100Y17018850D01*
X10241887Y16959719D01*
X10231635Y16947715D01*
X9900085Y16616165D01*
X9844687Y16587939D01*
X9828950Y16586700D01*
X8603342Y16586700D01*
X8603338Y16586701D01*
X8516263Y16586701D01*
X8454691Y16570202D01*
X8432154Y16564164D01*
X8402895Y16547271D01*
X8356746Y16520627D01*
X8291661Y16455542D01*
X8291656Y16455536D01*
X7674082Y15837962D01*
X7674076Y15837957D01*
X7606774Y15770655D01*
X7563234Y15695243D01*
X7563233Y15695241D01*
X7540701Y15611144D01*
X7540700Y15611136D01*
X7540700Y14919877D01*
X7521487Y14860746D01*
X7511240Y14848748D01*
X7429561Y14767069D01*
X7429560Y14767067D01*
X7429559Y14767066D01*
X7377718Y14661024D01*
X7377717Y14661021D01*
X7367700Y14592269D01*
X7367700Y13500130D01*
X7377716Y13431383D01*
X7377718Y13431376D01*
X7403479Y13378683D01*
X7412189Y13317122D01*
X7383050Y13262199D01*
X7327194Y13234892D01*
X7313101Y13233900D01*
X7019305Y13233900D01*
X6960174Y13253113D01*
X6932183Y13284200D01*
X6932100Y13284344D01*
X6914389Y13315021D01*
X6812621Y13416789D01*
X6687980Y13488750D01*
X6645509Y13500130D01*
X6548965Y13525999D01*
X6548964Y13525999D01*
X6548961Y13526000D01*
X6405039Y13526000D01*
X6405036Y13525999D01*
X6405034Y13525999D01*
X6266026Y13488752D01*
X6266023Y13488750D01*
X6266020Y13488750D01*
X6141379Y13416789D01*
X6039611Y13315021D01*
X5979765Y13211364D01*
X5967650Y13190380D01*
X5967647Y13190373D01*
X5930400Y13051365D01*
X5930400Y12907434D01*
X5967647Y12768426D01*
X5967650Y12768419D01*
X5982294Y12743055D01*
X6039611Y12643779D01*
X6141379Y12542011D01*
X6141381Y12542010D01*
X6266019Y12470050D01*
X6266026Y12470047D01*
X6405034Y12432800D01*
X6405039Y12432800D01*
X6548965Y12432800D01*
X6687973Y12470047D01*
X6687980Y12470050D01*
X6742448Y12501497D01*
X6812621Y12542011D01*
X6813646Y12543036D01*
X6814567Y12543505D01*
X6817851Y12546025D01*
X6818317Y12545416D01*
X6869042Y12571261D01*
X6884779Y12572500D01*
X7307723Y12572500D01*
X7366854Y12553287D01*
X7403399Y12502987D01*
X7403399Y12440813D01*
X7398101Y12427717D01*
X7377718Y12386024D01*
X7377717Y12386021D01*
X7367700Y12317269D01*
X7367700Y12191500D01*
X7348487Y12132369D01*
X7298187Y12095824D01*
X7267100Y12090900D01*
X5792580Y12090900D01*
X5733449Y12110113D01*
X5721445Y12120365D01*
X5709441Y12132369D01*
X5644221Y12197589D01*
X5519580Y12269550D01*
X5380561Y12306800D01*
X5236639Y12306800D01*
X5236636Y12306799D01*
X5236634Y12306799D01*
X5097626Y12269552D01*
X5097623Y12269550D01*
X5097620Y12269550D01*
X4972979Y12197589D01*
X4871211Y12095821D01*
X4815024Y11998501D01*
X4799250Y11971180D01*
X4799247Y11971173D01*
X4762000Y11832165D01*
X1854700Y11832165D01*
X1854700Y16982498D01*
X4496001Y16982498D01*
X4496002Y16982469D01*
X4498806Y16946823D01*
X4543143Y16794211D01*
X4624043Y16657417D01*
X4736417Y16545043D01*
X4873211Y16464143D01*
X5025822Y16419806D01*
X5061474Y16417000D01*
X5873000Y16417000D01*
X6127000Y16417000D01*
X6938501Y16417000D01*
X6938530Y16417002D01*
X6974176Y16419806D01*
X7126788Y16464143D01*
X7263582Y16545043D01*
X7375956Y16657417D01*
X7456856Y16794211D01*
X7497874Y16935399D01*
X7493152Y16941689D01*
X7473012Y17000511D01*
X7473000Y17002092D01*
X7473000Y20589907D01*
X7492213Y20649038D01*
X7493152Y20650309D01*
X7497874Y20656599D01*
X7456856Y20797788D01*
X7375956Y20934582D01*
X7263582Y21046956D01*
X7126788Y21127856D01*
X6974177Y21172193D01*
X6938515Y21174999D01*
X6127000Y21174999D01*
X6127000Y16417000D01*
X5873000Y16417000D01*
X5873000Y18669000D01*
X4496001Y18669000D01*
X4496001Y16982498D01*
X1854700Y16982498D01*
X1854700Y20609525D01*
X4496000Y20609525D01*
X4496000Y18923000D01*
X5873000Y18923000D01*
X5873000Y21174999D01*
X5061498Y21174999D01*
X5061469Y21174997D01*
X5025823Y21172193D01*
X4873211Y21127856D01*
X4736417Y21046956D01*
X4624043Y20934582D01*
X4543143Y20797788D01*
X4498806Y20645177D01*
X4496000Y20609525D01*
X1854700Y20609525D01*
X1854700Y26361244D01*
X1873913Y26420375D01*
X1916801Y26454186D01*
X2023112Y26498223D01*
X2023114Y26498224D01*
X2081160Y26537009D01*
X2195692Y26613536D01*
X2342463Y26760307D01*
X2457773Y26932881D01*
X2457774Y26932883D01*
X2457776Y26932886D01*
X2537207Y27124647D01*
X2577700Y27328220D01*
X2577700Y27535779D01*
X3010300Y27535779D01*
X3010300Y27328220D01*
X3050792Y27124648D01*
X3130222Y26932889D01*
X3130226Y26932881D01*
X3245536Y26760307D01*
X3245538Y26760306D01*
X3392306Y26613538D01*
X3392307Y26613536D01*
X3564881Y26498226D01*
X3564889Y26498222D01*
X3710118Y26438066D01*
X3756647Y26418793D01*
X3756648Y26418792D01*
X3756647Y26418792D01*
X3926446Y26385018D01*
X3960220Y26378300D01*
X3960221Y26378300D01*
X4167779Y26378300D01*
X4167780Y26378300D01*
X4218326Y26388354D01*
X4371351Y26418792D01*
X4563110Y26498222D01*
X4563118Y26498226D01*
X4735692Y26613536D01*
X4882463Y26760307D01*
X4997773Y26932881D01*
X4997774Y26932883D01*
X4997776Y26932886D01*
X5077207Y27124647D01*
X5117700Y27328220D01*
X5117700Y27535780D01*
X5077207Y27739353D01*
X4997776Y27931114D01*
X4882462Y28103694D01*
X4735694Y28250462D01*
X4563114Y28365776D01*
X4371353Y28445207D01*
X4167780Y28485700D01*
X3960220Y28485700D01*
X3756647Y28445207D01*
X3564886Y28365776D01*
X3564883Y28365774D01*
X3564881Y28365773D01*
X3392307Y28250463D01*
X3245536Y28103692D01*
X3130226Y27931118D01*
X3130222Y27931110D01*
X3050792Y27739351D01*
X3010300Y27535779D01*
X2577700Y27535779D01*
X2577700Y27535780D01*
X2537207Y27739353D01*
X2457776Y27931114D01*
X2342462Y28103694D01*
X2195694Y28250462D01*
X2023114Y28365776D01*
X1831353Y28445207D01*
X1627780Y28485700D01*
X1420220Y28485700D01*
X1216647Y28445207D01*
X1024886Y28365776D01*
X1024883Y28365774D01*
X1024881Y28365773D01*
X852307Y28250463D01*
X705536Y28103692D01*
X590226Y27931118D01*
X590222Y27931110D01*
X510792Y27739351D01*
X470300Y27535779D01*
X470300Y27328220D01*
X510792Y27124648D01*
X590222Y26932889D01*
X590226Y26932881D01*
X705536Y26760307D01*
X705538Y26760306D01*
X852306Y26613538D01*
X852307Y26613536D01*
X1024887Y26498223D01*
X1131199Y26454186D01*
X1178476Y26413806D01*
X1193300Y26361244D01*
X1193300Y11404100D01*
X1174087Y11344969D01*
X1123787Y11308424D01*
X1092700Y11303500D01*
X-3969658Y11303500D01*
X-3969662Y11303501D01*
X-4056737Y11303501D01*
X-4118309Y11287002D01*
X-4140846Y11280964D01*
X-4216255Y11237426D01*
X-4277826Y11175855D01*
X-4277826Y11175853D01*
X-4286104Y11167576D01*
X-4286106Y11167572D01*
X-11069772Y4383906D01*
X-11069776Y4383904D01*
X-11078053Y4375626D01*
X-11078055Y4375626D01*
X-11139626Y4314055D01*
X-11183164Y4238646D01*
X-11183164Y4238643D01*
X-11183165Y4238643D01*
X-11183166Y4238641D01*
X-11205698Y4154544D01*
X-11205700Y4154536D01*
X-11205700Y3104300D01*
X-11224913Y3045169D01*
X-11275213Y3008624D01*
X-11306300Y3003700D01*
X-11770064Y3003700D01*
X-11829480Y2991881D01*
X-11896860Y2946860D01*
X-11941881Y2879480D01*
X-11941881Y2879479D01*
X-11953700Y2820063D01*
X-11953700Y431300D01*
X-11972913Y372169D01*
X-12023213Y335624D01*
X-12054300Y330700D01*
X-13937338Y330700D01*
X-13968689Y322299D01*
X-14021441Y308166D01*
X-14021443Y308165D01*
X-14021443Y308164D01*
X-14021446Y308164D01*
X-14096855Y264626D01*
X-14158426Y203055D01*
X-14158426Y203053D01*
X-14166704Y194776D01*
X-14166706Y194772D01*
X-14692179Y-330700D01*
X-15629536Y-1268056D01*
X-15629547Y-1268066D01*
X-15633055Y-1271574D01*
X-15694626Y-1333145D01*
X-15720281Y-1377580D01*
X-15738165Y-1408556D01*
X-15738166Y-1408558D01*
X-15760698Y-1492655D01*
X-15760700Y-1492663D01*
X-15760700Y-7895700D01*
X-15779913Y-7954831D01*
X-15830213Y-7991376D01*
X-15861300Y-7996300D01*
X-15934690Y-7996300D01*
X-15984010Y-8002792D01*
X-16092269Y-8053274D01*
X-16097199Y-8056726D01*
X-16156657Y-8074904D01*
X-16215444Y-8054661D01*
X-16251105Y-8003730D01*
X-16255500Y-7974319D01*
X-16255500Y9667853D01*
X-14049500Y9667853D01*
X-14049499Y8758548D01*
X-14046626Y8727899D01*
X-14001454Y8598805D01*
X-13920238Y8488762D01*
X-13810195Y8407546D01*
X-13681101Y8362374D01*
X-13650453Y8359500D01*
X-13650447Y8359500D01*
X-12041155Y8359500D01*
X-12041144Y8359501D01*
X-12010501Y8362373D01*
X-11881404Y8407546D01*
X-11771362Y8488761D01*
X-11771361Y8488762D01*
X-11690146Y8598804D01*
X-11644974Y8727900D01*
X-11644974Y8727901D01*
X-11642100Y8758547D01*
X-11642100Y9166298D01*
X-11642100Y9564989D01*
X-10099799Y9564989D01*
X-10093346Y9504966D01*
X-10093345Y9504961D01*
X-10042701Y9369178D01*
X-9955846Y9253153D01*
X-9839821Y9166298D01*
X-9704035Y9115653D01*
X-9644011Y9109200D01*
X-8972800Y9109200D01*
X-8718800Y9109200D01*
X-8047589Y9109200D01*
X-7987566Y9115653D01*
X-7987561Y9115654D01*
X-7851778Y9166298D01*
X-7735753Y9253153D01*
X-7648898Y9369178D01*
X-7598253Y9504963D01*
X-7598253Y9504965D01*
X-7591800Y9564989D01*
X-7591800Y10236200D01*
X-8718800Y10236200D01*
X-8718800Y9109200D01*
X-8972800Y9109200D01*
X-8972800Y10236200D01*
X-10099799Y10236200D01*
X-10099799Y9564989D01*
X-11642100Y9564989D01*
X-11642100Y9667844D01*
X-11642101Y9667855D01*
X-11644973Y9698498D01*
X-11649873Y9712500D01*
X-11690146Y9827595D01*
X-11771362Y9937638D01*
X-11881405Y10018854D01*
X-12010499Y10064026D01*
X-12041147Y10066900D01*
X-13650452Y10066899D01*
X-13681101Y10064026D01*
X-13810195Y10018854D01*
X-13920238Y9937638D01*
X-14001454Y9827595D01*
X-14046626Y9698501D01*
X-14049500Y9667853D01*
X-16255500Y9667853D01*
X-16255500Y11967853D01*
X-14049500Y11967853D01*
X-14049499Y11058548D01*
X-14046626Y11027899D01*
X-14001454Y10898805D01*
X-13920238Y10788762D01*
X-13810195Y10707546D01*
X-13681101Y10662374D01*
X-13650453Y10659500D01*
X-13650447Y10659500D01*
X-12041155Y10659500D01*
X-12041144Y10659501D01*
X-12010501Y10662373D01*
X-11881404Y10707546D01*
X-11771362Y10788761D01*
X-11771361Y10788762D01*
X-11690146Y10898804D01*
X-11666333Y10966859D01*
X-11644974Y11027899D01*
X-11642100Y11058547D01*
X-11642100Y11161410D01*
X-10099800Y11161410D01*
X-10099800Y10490200D01*
X-8972800Y10490200D01*
X-8718800Y10490200D01*
X-7591801Y10490200D01*
X-7591801Y11161410D01*
X-7598253Y11221433D01*
X-7598254Y11221438D01*
X-7648898Y11357221D01*
X-7735753Y11473246D01*
X-7851778Y11560101D01*
X-7987564Y11610746D01*
X-8047589Y11617199D01*
X-8718800Y11617199D01*
X-8718800Y10490200D01*
X-8972800Y10490200D01*
X-8972800Y11617199D01*
X-9644010Y11617199D01*
X-9704033Y11610746D01*
X-9704038Y11610745D01*
X-9839821Y11560101D01*
X-9955846Y11473246D01*
X-10042701Y11357221D01*
X-10093346Y11221436D01*
X-10093346Y11221434D01*
X-10099800Y11161410D01*
X-11642100Y11161410D01*
X-11642100Y11506574D01*
X-11642100Y11967844D01*
X-11642101Y11967855D01*
X-11644973Y11998498D01*
X-11690146Y12127595D01*
X-11771361Y12237637D01*
X-11771362Y12237638D01*
X-11846315Y12292956D01*
X-11881405Y12318854D01*
X-12010499Y12364026D01*
X-12041147Y12366900D01*
X-13650452Y12366899D01*
X-13681101Y12364026D01*
X-13810195Y12318854D01*
X-13920238Y12237638D01*
X-14001454Y12127595D01*
X-14046626Y11998501D01*
X-14049500Y11967853D01*
X-16255500Y11967853D01*
X-16255500Y16432690D01*
X-13858700Y16432690D01*
X-13858700Y16083309D01*
X-13852207Y16033989D01*
X-13852206Y16033987D01*
X-13852206Y16033986D01*
X-13801727Y15925733D01*
X-13717267Y15841273D01*
X-13712766Y15839174D01*
X-13667296Y15796773D01*
X-13655432Y15735741D01*
X-13681707Y15679392D01*
X-13712765Y15656826D01*
X-13717267Y15654727D01*
X-13801727Y15570267D01*
X-13852206Y15462014D01*
X-13852206Y15462011D01*
X-13852207Y15462010D01*
X-13858700Y15412690D01*
X-13858700Y15063309D01*
X-13852207Y15013989D01*
X-13852206Y15013987D01*
X-13852206Y15013986D01*
X-13801727Y14905733D01*
X-13717267Y14821273D01*
X-13717264Y14821271D01*
X-13710054Y14816223D01*
X-13712048Y14813374D01*
X-13678295Y14781876D01*
X-13665700Y14733137D01*
X-13665700Y13443863D01*
X-13665698Y13443855D01*
X-13643166Y13359758D01*
X-13643165Y13359756D01*
X-13643164Y13359754D01*
X-13623290Y13325331D01*
X-13599625Y13284344D01*
X-13534547Y13219266D01*
X-13534536Y13219256D01*
X-13351362Y13036082D01*
X-13351360Y13036079D01*
X-13284055Y12968774D01*
X-13208643Y12925234D01*
X-13208641Y12925233D01*
X-13124544Y12902701D01*
X-13124539Y12902700D01*
X-13124538Y12902700D01*
X-13124537Y12902700D01*
X-11208663Y12902700D01*
X-11208662Y12902700D01*
X-11208661Y12902700D01*
X-11208655Y12902701D01*
X-11124558Y12925233D01*
X-11124556Y12925234D01*
X-11049144Y12968774D01*
X-10616973Y13400945D01*
X-10573433Y13476357D01*
X-10573432Y13476359D01*
X-10550900Y13560456D01*
X-10550899Y13560464D01*
X-10550899Y13655641D01*
X-10550900Y13655654D01*
X-10550900Y13734157D01*
X-10533947Y13790046D01*
X-10527111Y13800275D01*
X-10525590Y13807927D01*
X-10495210Y13862173D01*
X-10438747Y13888203D01*
X-10426923Y13888900D01*
X-10033723Y13888900D01*
X-9988052Y13877935D01*
X-9888025Y13826969D01*
X-9888019Y13826967D01*
X-9789104Y13811300D01*
X-9789098Y13811300D01*
X-9210095Y13811300D01*
X-9111180Y13826967D01*
X-9111174Y13826969D01*
X-8991948Y13887717D01*
X-8897317Y13982348D01*
X-8836569Y14101574D01*
X-8836567Y14101580D01*
X-8820900Y14200495D01*
X-8820900Y14704504D01*
X-8836567Y14803419D01*
X-8836569Y14803425D01*
X-8897317Y14922651D01*
X-8897318Y14922652D01*
X-8897320Y14922655D01*
X-8991945Y15017280D01*
X-8991947Y15017281D01*
X-8991948Y15017282D01*
X-9111174Y15078030D01*
X-9111178Y15078032D01*
X-9184825Y15089696D01*
X-9210095Y15093699D01*
X-9210100Y15093700D01*
X-9210102Y15093700D01*
X-9789098Y15093700D01*
X-9789100Y15093700D01*
X-9789103Y15093699D01*
X-9888022Y15078032D01*
X-10007255Y15017280D01*
X-10101880Y14922655D01*
X-10162632Y14803422D01*
X-10173764Y14733137D01*
X-10178299Y14704504D01*
X-10178300Y14704500D01*
X-10178300Y14650900D01*
X-10183224Y14635745D01*
X-10183224Y14619813D01*
X-10192589Y14606922D01*
X-10197513Y14591769D01*
X-10210403Y14582403D01*
X-10219769Y14569513D01*
X-10234922Y14564589D01*
X-10247813Y14555224D01*
X-10278900Y14550300D01*
X-10426923Y14550300D01*
X-10486054Y14569513D01*
X-10522599Y14619813D01*
X-10525590Y14631273D01*
X-10527112Y14638925D01*
X-10527113Y14638926D01*
X-10530158Y14646278D01*
X-10535883Y14704403D01*
X-10527900Y14744536D01*
X-10527900Y15328382D01*
X-8524200Y15328382D01*
X-8524199Y15328377D01*
X-8509773Y15237296D01*
X-8509771Y15237290D01*
X-8453833Y15127504D01*
X-8366695Y15040366D01*
X-8366696Y15040366D01*
X-8256909Y14984428D01*
X-8256903Y14984426D01*
X-8165822Y14970000D01*
X-8077200Y14970000D01*
X-7823200Y14970000D01*
X-7734577Y14970000D01*
X-7643496Y14984426D01*
X-7643490Y14984428D01*
X-7533704Y15040366D01*
X-7446566Y15127504D01*
X-7390628Y15237290D01*
X-7390626Y15237296D01*
X-7376200Y15328377D01*
X-7376200Y15367000D01*
X-7823200Y15367000D01*
X-7823200Y14970000D01*
X-8077200Y14970000D01*
X-8077200Y15367000D01*
X-8524200Y15367000D01*
X-8524200Y15328382D01*
X-10527900Y15328382D01*
X-10527900Y15684663D01*
X-10530798Y15699230D01*
X-10533278Y15711700D01*
X-10535883Y15724797D01*
X-10530159Y15782920D01*
X-10527111Y15790276D01*
X-10512900Y15861724D01*
X-10512900Y16557475D01*
X-10527111Y16628924D01*
X-10527112Y16628925D01*
X-10533944Y16639149D01*
X-10550900Y16695042D01*
X-10550900Y16782838D01*
X-10531687Y16841969D01*
X-10481387Y16878514D01*
X-10476755Y16879562D01*
X-10476778Y16879639D01*
X-10469389Y16881792D01*
X-10361135Y16932271D01*
X-10276671Y17016735D01*
X-10235925Y17104118D01*
X-10226194Y17124986D01*
X-10226193Y17124987D01*
X-10226193Y17124989D01*
X-10220676Y17166892D01*
X-10193909Y17223009D01*
X-10139269Y17252676D01*
X-10077627Y17244560D01*
X-10037291Y17209650D01*
X-9996860Y17149140D01*
X-9960710Y17124986D01*
X-9929479Y17104118D01*
X-9881882Y17094650D01*
X-9870064Y17092300D01*
X-8413764Y17092300D01*
X-8391358Y17085019D01*
X-8368093Y17081335D01*
X-8362353Y17075595D01*
X-8354633Y17073087D01*
X-8340785Y17054027D01*
X-8324129Y17037371D01*
X-8322859Y17029354D01*
X-8318088Y17022787D01*
X-8318088Y16999229D01*
X-8314403Y16975963D01*
X-8318088Y16968730D01*
X-8318088Y16960613D01*
X-8342629Y16920565D01*
X-8389029Y16874165D01*
X-8444427Y16845939D01*
X-8460164Y16844700D01*
X-9056638Y16844700D01*
X-9076605Y16839350D01*
X-9140741Y16822166D01*
X-9140743Y16822165D01*
X-9140743Y16822164D01*
X-9140746Y16822164D01*
X-9216155Y16778626D01*
X-9216159Y16778622D01*
X-9286008Y16708773D01*
X-9286010Y16708768D01*
X-9296007Y16698772D01*
X-9296617Y16698162D01*
X-9352016Y16669938D01*
X-9367749Y16668700D01*
X-9789100Y16668700D01*
X-9789103Y16668699D01*
X-9888022Y16653032D01*
X-10007255Y16592280D01*
X-10101880Y16497655D01*
X-10162632Y16378422D01*
X-10178300Y16279498D01*
X-10178300Y15775502D01*
X-10162632Y15676578D01*
X-10162630Y15676574D01*
X-10151499Y15654727D01*
X-10101880Y15557345D01*
X-10007255Y15462720D01*
X-10007252Y15462718D01*
X-10007251Y15462717D01*
X-10007252Y15462717D01*
X-9888025Y15401969D01*
X-9888019Y15401967D01*
X-9789104Y15386300D01*
X-9789098Y15386300D01*
X-9210095Y15386300D01*
X-9111180Y15401967D01*
X-9111174Y15401969D01*
X-8991948Y15462717D01*
X-8991945Y15462720D01*
X-8897320Y15557345D01*
X-8897319Y15557345D01*
X-8897317Y15557348D01*
X-8836569Y15676574D01*
X-8836567Y15676580D01*
X-8820900Y15775495D01*
X-8820900Y16082700D01*
X-8801687Y16141831D01*
X-8751387Y16178376D01*
X-8720300Y16183300D01*
X-8460164Y16183300D01*
X-8452445Y16180792D01*
X-8444428Y16182062D01*
X-8423435Y16171366D01*
X-8401033Y16164087D01*
X-8389030Y16153836D01*
X-8342798Y16107604D01*
X-8314572Y16052208D01*
X-8324297Y15990800D01*
X-8361349Y15953746D01*
X-8360290Y15952288D01*
X-8366695Y15947634D01*
X-8453833Y15860495D01*
X-8509771Y15750709D01*
X-8509773Y15750703D01*
X-8524199Y15659622D01*
X-8524200Y15659618D01*
X-8524200Y15621000D01*
X-7376200Y15621000D01*
X-7376200Y15659622D01*
X-7390626Y15750703D01*
X-7390628Y15750709D01*
X-7446566Y15860495D01*
X-7533705Y15947634D01*
X-7540110Y15952288D01*
X-7539050Y15953746D01*
X-7576103Y15990801D01*
X-7585827Y16052210D01*
X-7557601Y16107604D01*
X-7483476Y16181729D01*
X-7483471Y16181735D01*
X-7432992Y16289989D01*
X-7426500Y16339309D01*
X-7426500Y16535748D01*
X-7407287Y16594879D01*
X-7356987Y16631424D01*
X-7294813Y16631424D01*
X-7264659Y16615560D01*
X-7172760Y16545043D01*
X-7166844Y16540504D01*
X-7166842Y16540503D01*
X-7026071Y16482194D01*
X-6912934Y16467300D01*
X-6912933Y16467300D01*
X-5087074Y16467300D01*
X-4973925Y16482195D01*
X-4833157Y16540503D01*
X-4833150Y16540507D01*
X-4712268Y16633263D01*
X-4712263Y16633268D01*
X-4619507Y16754150D01*
X-4619503Y16754157D01*
X-4561194Y16894928D01*
X-4546300Y17008065D01*
X-4546300Y20583925D01*
X-4561195Y20697074D01*
X-4619503Y20837842D01*
X-4619507Y20837849D01*
X-4712263Y20958731D01*
X-4712268Y20958736D01*
X-4833150Y21051492D01*
X-4833151Y21051492D01*
X-4833153Y21051494D01*
X-4833154Y21051494D01*
X-4833157Y21051496D01*
X-4973928Y21109805D01*
X-4991081Y21112063D01*
X-5087067Y21124700D01*
X-5664700Y21124699D01*
X-5723831Y21143912D01*
X-5760376Y21194212D01*
X-5765300Y21225299D01*
X-5765300Y26361244D01*
X-5746087Y26420375D01*
X-5703199Y26454186D01*
X-5596887Y26498223D01*
X-5424307Y26613536D01*
X-5424306Y26613538D01*
X-5277538Y26760306D01*
X-5277536Y26760307D01*
X-5162226Y26932881D01*
X-5162222Y26932889D01*
X-5082792Y27124648D01*
X-5042300Y27328220D01*
X-5042300Y27535779D01*
X-5042300Y27535780D01*
X-4609700Y27535780D01*
X-4609700Y27328220D01*
X-4569207Y27124647D01*
X-4489776Y26932886D01*
X-4489774Y26932883D01*
X-4489773Y26932881D01*
X-4374463Y26760307D01*
X-4227692Y26613536D01*
X-4055118Y26498226D01*
X-4055110Y26498222D01*
X-4018105Y26482894D01*
X-3863353Y26418793D01*
X-3863349Y26418792D01*
X-3863352Y26418792D01*
X-3700272Y26386354D01*
X-3659780Y26378300D01*
X-3659779Y26378300D01*
X-3452221Y26378300D01*
X-3452220Y26378300D01*
X-3411728Y26386354D01*
X-3248648Y26418792D01*
X-3056889Y26498222D01*
X-3056881Y26498226D01*
X-2884307Y26613536D01*
X-2884306Y26613538D01*
X-2737538Y26760306D01*
X-2737536Y26760307D01*
X-2622226Y26932881D01*
X-2622222Y26932889D01*
X-2542792Y27124648D01*
X-2502300Y27328220D01*
X-2502300Y27535779D01*
X-2502300Y27535780D01*
X-2069700Y27535780D01*
X-2069700Y27328220D01*
X-2029207Y27124647D01*
X-1949776Y26932886D01*
X-1949774Y26932883D01*
X-1949773Y26932881D01*
X-1834463Y26760307D01*
X-1687692Y26613536D01*
X-1515118Y26498226D01*
X-1515110Y26498222D01*
X-1478105Y26482894D01*
X-1323353Y26418793D01*
X-1323349Y26418792D01*
X-1323352Y26418792D01*
X-1160272Y26386354D01*
X-1119780Y26378300D01*
X-1119779Y26378300D01*
X-912221Y26378300D01*
X-912220Y26378300D01*
X-871728Y26386354D01*
X-708648Y26418792D01*
X-516889Y26498222D01*
X-516881Y26498226D01*
X-344307Y26613536D01*
X-344306Y26613538D01*
X-197538Y26760306D01*
X-197536Y26760307D01*
X-82226Y26932881D01*
X-82222Y26932889D01*
X-2792Y27124648D01*
X37700Y27328220D01*
X37700Y27535779D01*
X-2792Y27739351D01*
X-82222Y27931110D01*
X-82226Y27931118D01*
X-197536Y28103692D01*
X-344307Y28250463D01*
X-516881Y28365773D01*
X-516883Y28365774D01*
X-516886Y28365776D01*
X-708647Y28445207D01*
X-912220Y28485700D01*
X-1119780Y28485700D01*
X-1323353Y28445207D01*
X-1515114Y28365776D01*
X-1687694Y28250462D01*
X-1834462Y28103694D01*
X-1949776Y27931114D01*
X-2029207Y27739353D01*
X-2069700Y27535780D01*
X-2502300Y27535780D01*
X-2542792Y27739351D01*
X-2622222Y27931110D01*
X-2622226Y27931118D01*
X-2737536Y28103692D01*
X-2884307Y28250463D01*
X-3056881Y28365773D01*
X-3056883Y28365774D01*
X-3056886Y28365776D01*
X-3248647Y28445207D01*
X-3452220Y28485700D01*
X-3659780Y28485700D01*
X-3863353Y28445207D01*
X-4055114Y28365776D01*
X-4227694Y28250462D01*
X-4374462Y28103694D01*
X-4489776Y27931114D01*
X-4569207Y27739353D01*
X-4609700Y27535780D01*
X-5042300Y27535780D01*
X-5082792Y27739351D01*
X-5162222Y27931110D01*
X-5162226Y27931118D01*
X-5277536Y28103692D01*
X-5424307Y28250463D01*
X-5596881Y28365773D01*
X-5596883Y28365774D01*
X-5596886Y28365776D01*
X-5788647Y28445207D01*
X-5992220Y28485700D01*
X-6199780Y28485700D01*
X-6403353Y28445207D01*
X-6595114Y28365776D01*
X-6767694Y28250462D01*
X-6914462Y28103694D01*
X-7029776Y27931114D01*
X-7109207Y27739353D01*
X-7149700Y27535780D01*
X-7149700Y27328220D01*
X-7109207Y27124647D01*
X-7029776Y26932886D01*
X-7029774Y26932883D01*
X-7029773Y26932881D01*
X-6914463Y26760307D01*
X-6767692Y26613536D01*
X-6653160Y26537009D01*
X-6595114Y26498224D01*
X-6595112Y26498223D01*
X-6488801Y26454186D01*
X-6441524Y26413806D01*
X-6426700Y26361244D01*
X-6426700Y25933000D01*
X-6445913Y25873869D01*
X-6496213Y25837324D01*
X-6527300Y25832400D01*
X-6758016Y25832400D01*
X-6817147Y25851613D01*
X-6847651Y25887328D01*
X-6890718Y25971852D01*
X-6890720Y25971855D01*
X-6985345Y26066480D01*
X-6985347Y26066481D01*
X-6985348Y26066482D01*
X-7104574Y26127230D01*
X-7104578Y26127232D01*
X-7178225Y26138896D01*
X-7203495Y26142899D01*
X-7203500Y26142900D01*
X-7203502Y26142900D01*
X-7782498Y26142900D01*
X-7782500Y26142900D01*
X-7782503Y26142899D01*
X-7881422Y26127232D01*
X-8000655Y26066480D01*
X-8095280Y25971855D01*
X-8156032Y25852622D01*
X-8171700Y25753698D01*
X-8171700Y25249702D01*
X-8156032Y25150778D01*
X-8156030Y25150774D01*
X-8098983Y25038811D01*
X-8095280Y25031545D01*
X-8000655Y24936920D01*
X-8000652Y24936918D01*
X-8000651Y24936917D01*
X-8000652Y24936917D01*
X-7881425Y24876169D01*
X-7881419Y24876167D01*
X-7782504Y24860500D01*
X-7782498Y24860500D01*
X-7203495Y24860500D01*
X-7104580Y24876167D01*
X-7104574Y24876169D01*
X-6985348Y24936917D01*
X-6890718Y25031547D01*
X-6847651Y25116072D01*
X-6803687Y25160035D01*
X-6758016Y25171000D01*
X-6527300Y25171000D01*
X-6468169Y25151787D01*
X-6431624Y25101487D01*
X-6426700Y25070400D01*
X-6426700Y24552411D01*
X-6445913Y24493280D01*
X-6496213Y24456735D01*
X-6558387Y24456735D01*
X-6565808Y24459473D01*
X-6570825Y24461552D01*
X-6709834Y24498799D01*
X-6709836Y24498799D01*
X-6709839Y24498800D01*
X-6853761Y24498800D01*
X-6912110Y24483165D01*
X-6974196Y24486418D01*
X-6983817Y24490702D01*
X-7104574Y24552230D01*
X-7104578Y24552232D01*
X-7185615Y24565067D01*
X-7203495Y24567899D01*
X-7203500Y24567900D01*
X-7203502Y24567900D01*
X-7782498Y24567900D01*
X-7782500Y24567900D01*
X-7782503Y24567899D01*
X-7881422Y24552232D01*
X-8000655Y24491480D01*
X-8095280Y24396855D01*
X-8156032Y24277622D01*
X-8156032Y24277619D01*
X-8171699Y24178704D01*
X-8171700Y24178700D01*
X-8171700Y23674700D01*
X-8171699Y23674695D01*
X-8170257Y23665593D01*
X-8156032Y23575778D01*
X-8156030Y23575774D01*
X-8113712Y23492719D01*
X-8095280Y23456545D01*
X-8000655Y23361920D01*
X-8000652Y23361918D01*
X-8000651Y23361917D01*
X-8000652Y23361917D01*
X-7881425Y23301169D01*
X-7881419Y23301167D01*
X-7782504Y23285500D01*
X-7782498Y23285500D01*
X-7203495Y23285500D01*
X-7104580Y23301167D01*
X-7104574Y23301169D01*
X-6985345Y23361918D01*
X-6964157Y23383107D01*
X-6908758Y23411333D01*
X-6866987Y23409143D01*
X-6853768Y23405601D01*
X-6853762Y23405600D01*
X-6853761Y23405600D01*
X-6853759Y23405600D01*
X-6709834Y23405600D01*
X-6570822Y23442848D01*
X-6565801Y23444929D01*
X-6503819Y23449809D01*
X-6450805Y23417325D01*
X-6427010Y23359884D01*
X-6426700Y23351988D01*
X-6426700Y23111592D01*
X-6445913Y23052461D01*
X-6496213Y23015916D01*
X-6558387Y23015916D01*
X-6577595Y23024467D01*
X-6647020Y23064550D01*
X-6647023Y23064550D01*
X-6647026Y23064552D01*
X-6786034Y23101799D01*
X-6786036Y23101799D01*
X-6786039Y23101800D01*
X-6929961Y23101800D01*
X-6929964Y23101799D01*
X-6929965Y23101799D01*
X-7045397Y23070869D01*
X-7068980Y23064550D01*
X-7193621Y22992589D01*
X-7193635Y22992574D01*
X-7194560Y22991866D01*
X-7195369Y22991579D01*
X-7199331Y22989292D01*
X-7199754Y22990025D01*
X-7253165Y22971104D01*
X-7298326Y22980493D01*
X-7396786Y23026406D01*
X-7396787Y23026406D01*
X-7396789Y23026407D01*
X-7446110Y23032900D01*
X-7446112Y23032900D01*
X-7895488Y23032900D01*
X-7895490Y23032900D01*
X-7944810Y23026407D01*
X-7944811Y23026406D01*
X-7944814Y23026406D01*
X-8053067Y22975927D01*
X-8091767Y22937226D01*
X-8147163Y22909002D01*
X-8208571Y22918728D01*
X-8252535Y22962692D01*
X-8263500Y23008363D01*
X-8263500Y23177275D01*
X-8277711Y23248724D01*
X-8331850Y23329748D01*
X-8331851Y23329749D01*
X-8412875Y23383888D01*
X-8418295Y23384966D01*
X-8484324Y23398100D01*
X-9180076Y23398100D01*
X-9251525Y23383888D01*
X-9251531Y23383883D01*
X-9258873Y23380843D01*
X-9317001Y23375116D01*
X-9357136Y23383100D01*
X-10271493Y23383100D01*
X-10319790Y23398055D01*
X-10320175Y23397185D01*
X-10327679Y23400498D01*
X-10328346Y23400705D01*
X-10328706Y23400952D01*
X-10429678Y23445535D01*
X-10454364Y23448399D01*
X-10454370Y23448400D01*
X-10695200Y23448400D01*
X-10695200Y23130000D01*
X-10700124Y23114845D01*
X-10700124Y23098913D01*
X-10709489Y23086022D01*
X-10714413Y23070869D01*
X-10727303Y23061503D01*
X-10736669Y23048613D01*
X-10751822Y23043689D01*
X-10764713Y23034324D01*
X-10795800Y23029400D01*
X-10848600Y23029400D01*
X-10907731Y23048613D01*
X-10944276Y23098913D01*
X-10949200Y23130000D01*
X-10949200Y23448400D01*
X-11190030Y23448400D01*
X-11190035Y23448399D01*
X-11214719Y23445535D01*
X-11322393Y23397993D01*
X-11335528Y23396653D01*
X-11347291Y23390660D01*
X-11365700Y23393575D01*
X-11384247Y23391684D01*
X-11395661Y23398321D01*
X-11408699Y23400386D01*
X-11421878Y23413565D01*
X-11437995Y23422937D01*
X-11443328Y23435015D01*
X-11452663Y23444350D01*
X-11455578Y23462758D01*
X-11463109Y23479813D01*
X-11460323Y23492719D01*
X-11462389Y23505758D01*
X-11453927Y23522365D01*
X-11449995Y23540589D01*
X-11434163Y23561156D01*
X-11353756Y23641563D01*
X-11298358Y23669789D01*
X-11254471Y23667009D01*
X-11249613Y23665593D01*
X-11200290Y23659100D01*
X-11200288Y23659100D01*
X-10850910Y23659100D01*
X-10801589Y23665592D01*
X-10693335Y23716071D01*
X-10693329Y23716076D01*
X-10619204Y23790201D01*
X-10563807Y23818428D01*
X-10502398Y23808701D01*
X-10465346Y23771650D01*
X-10463888Y23772710D01*
X-10459234Y23766305D01*
X-10372095Y23679166D01*
X-10372096Y23679166D01*
X-10262309Y23623228D01*
X-10262303Y23623226D01*
X-10171222Y23608800D01*
X-10132600Y23608800D01*
X-9878600Y23608800D01*
X-9839977Y23608800D01*
X-9748896Y23623226D01*
X-9748890Y23623228D01*
X-9639104Y23679166D01*
X-9551966Y23766304D01*
X-9496028Y23876090D01*
X-9496026Y23876096D01*
X-9481600Y23967177D01*
X-9481600Y24055800D01*
X-9878600Y24055800D01*
X-9878600Y23608800D01*
X-10132600Y23608800D01*
X-10132600Y24728908D01*
X-9878600Y24728908D01*
X-9878600Y24309800D01*
X-9481600Y24309800D01*
X-9481600Y24398422D01*
X-9496026Y24489503D01*
X-9496028Y24489509D01*
X-9541999Y24579733D01*
X-9551725Y24641141D01*
X-9523499Y24696539D01*
X-9468101Y24724765D01*
X-9441611Y24725428D01*
X-9407865Y24721800D01*
X-9270900Y24721800D01*
X-9016900Y24721800D01*
X-8879936Y24721800D01*
X-8823626Y24727854D01*
X-8823624Y24727854D01*
X-8696258Y24775358D01*
X-8587428Y24856828D01*
X-8505958Y24965658D01*
X-8458454Y25093024D01*
X-8458454Y25093026D01*
X-8452400Y25149336D01*
X-8452400Y25323800D01*
X-9016900Y25323800D01*
X-9016900Y24721800D01*
X-9270900Y24721800D01*
X-9270900Y25323800D01*
X-9835400Y25323800D01*
X-9835400Y25149336D01*
X-9829345Y25093026D01*
X-9829345Y25093024D01*
X-9781841Y24965658D01*
X-9745176Y24916680D01*
X-9725121Y24857829D01*
X-9743488Y24798430D01*
X-9790192Y24762272D01*
X-9878600Y24728908D01*
X-10132600Y24728908D01*
X-10132600Y24756800D01*
X-10149447Y24773647D01*
X-10156727Y24776013D01*
X-10193272Y24826313D01*
X-10193272Y24888487D01*
X-10168732Y24928532D01*
X-10154120Y24943145D01*
X-10154119Y24943145D01*
X-10154117Y24943148D01*
X-10093369Y25062374D01*
X-10093367Y25062380D01*
X-10077700Y25161295D01*
X-10077700Y25740301D01*
X-10079595Y25752263D01*
X-9835400Y25752263D01*
X-9835400Y25577800D01*
X-9270900Y25577800D01*
X-9016900Y25577800D01*
X-8452400Y25577800D01*
X-8452400Y25752263D01*
X-8458454Y25808573D01*
X-8458454Y25808575D01*
X-8505958Y25935941D01*
X-8587428Y26044771D01*
X-8696258Y26126241D01*
X-8823625Y26173745D01*
X-8879936Y26179800D01*
X-9016900Y26179800D01*
X-9016900Y25577800D01*
X-9270900Y25577800D01*
X-9270900Y26179800D01*
X-9407864Y26179800D01*
X-9464173Y26173745D01*
X-9464175Y26173745D01*
X-9591541Y26126241D01*
X-9700371Y26044771D01*
X-9781841Y25935941D01*
X-9829345Y25808575D01*
X-9829345Y25808573D01*
X-9835400Y25752263D01*
X-10079595Y25752263D01*
X-10093367Y25839219D01*
X-10093369Y25839225D01*
X-10154117Y25958451D01*
X-10154118Y25958452D01*
X-10154120Y25958455D01*
X-10248745Y26053080D01*
X-10248747Y26053081D01*
X-10248748Y26053082D01*
X-10367974Y26113830D01*
X-10367978Y26113832D01*
X-10457681Y26128039D01*
X-10513075Y26156265D01*
X-10541302Y26211662D01*
X-10531577Y26273071D01*
X-10487613Y26317035D01*
X-10441942Y26328000D01*
X-10300983Y26328000D01*
X-10226894Y26342736D01*
X-10142876Y26398876D01*
X-10086736Y26482894D01*
X-10072000Y26556983D01*
X-10072000Y27305000D01*
X-11020157Y27305000D01*
X-11006448Y27318709D01*
X-10976000Y27392218D01*
X-10976000Y27471782D01*
X-11002508Y27535780D01*
X-9689700Y27535780D01*
X-9689700Y27328220D01*
X-9649207Y27124647D01*
X-9569776Y26932886D01*
X-9569774Y26932883D01*
X-9569773Y26932881D01*
X-9454463Y26760307D01*
X-9307692Y26613536D01*
X-9135118Y26498226D01*
X-9135110Y26498222D01*
X-9098105Y26482894D01*
X-8943353Y26418793D01*
X-8943349Y26418792D01*
X-8943352Y26418792D01*
X-8780272Y26386354D01*
X-8739780Y26378300D01*
X-8739779Y26378300D01*
X-8532221Y26378300D01*
X-8532220Y26378300D01*
X-8491728Y26386354D01*
X-8328648Y26418792D01*
X-8136889Y26498222D01*
X-8136881Y26498226D01*
X-7964307Y26613536D01*
X-7964306Y26613538D01*
X-7817538Y26760306D01*
X-7817536Y26760307D01*
X-7702226Y26932881D01*
X-7702222Y26932889D01*
X-7622792Y27124648D01*
X-7582300Y27328220D01*
X-7582300Y27535779D01*
X-7622792Y27739351D01*
X-7702222Y27931110D01*
X-7702226Y27931118D01*
X-7817536Y28103692D01*
X-7964307Y28250463D01*
X-8136881Y28365773D01*
X-8136883Y28365774D01*
X-8136886Y28365776D01*
X-8328647Y28445207D01*
X-8532220Y28485700D01*
X-8739780Y28485700D01*
X-8943353Y28445207D01*
X-9135114Y28365776D01*
X-9307694Y28250462D01*
X-9454462Y28103694D01*
X-9569776Y27931114D01*
X-9649207Y27739353D01*
X-9689700Y27535780D01*
X-11002508Y27535780D01*
X-11006448Y27545291D01*
X-11020157Y27559000D01*
X-10072001Y27559000D01*
X-10072001Y28307016D01*
X-10086736Y28381105D01*
X-10142876Y28465123D01*
X-10226894Y28521263D01*
X-10300983Y28535999D01*
X-11049000Y28535999D01*
X-11049000Y27587843D01*
X-11062709Y27601552D01*
X-11136218Y27632000D01*
X-11215782Y27632000D01*
X-11289291Y27601552D01*
X-11303000Y27587843D01*
X-11303000Y28535999D01*
X-12051017Y28535999D01*
X-12125105Y28521263D01*
X-12209123Y28465123D01*
X-12265263Y28381105D01*
X-12280000Y28307016D01*
X-12280000Y27559000D01*
X-11331843Y27559000D01*
X-11345552Y27545291D01*
X-11376000Y27471782D01*
X-11376000Y27392218D01*
X-11345552Y27318709D01*
X-11331843Y27305000D01*
X-12279999Y27305000D01*
X-12279999Y26556983D01*
X-12265263Y26482894D01*
X-12209123Y26398876D01*
X-12125105Y26342736D01*
X-12051016Y26328000D01*
X-11303000Y26328000D01*
X-11303000Y27276157D01*
X-11289291Y27262448D01*
X-11215782Y27232000D01*
X-11136218Y27232000D01*
X-11062709Y27262448D01*
X-11049000Y27276157D01*
X-11049000Y26328000D01*
X-10995862Y26328000D01*
X-10936731Y26308787D01*
X-10900186Y26258487D01*
X-10900186Y26196313D01*
X-10936731Y26146013D01*
X-10980125Y26128039D01*
X-11021733Y26121448D01*
X-11069822Y26113832D01*
X-11189055Y26053080D01*
X-11283680Y25958455D01*
X-11283682Y25958451D01*
X-11334963Y25857807D01*
X-11378926Y25813843D01*
X-11440335Y25804117D01*
X-11495733Y25832343D01*
X-11521197Y25857807D01*
X-11576979Y25913589D01*
X-11701620Y25985550D01*
X-11701623Y25985550D01*
X-11701626Y25985552D01*
X-11840634Y26022799D01*
X-11840636Y26022799D01*
X-11840639Y26022800D01*
X-11984561Y26022800D01*
X-12123580Y25985550D01*
X-12248221Y25913589D01*
X-12349989Y25811821D01*
X-12421950Y25687180D01*
X-12421951Y25687173D01*
X-12421952Y25687173D01*
X-12459199Y25548165D01*
X-12459200Y25548159D01*
X-12459200Y25404240D01*
X-12459199Y25404234D01*
X-12437647Y25323800D01*
X-12421950Y25265220D01*
X-12349989Y25140579D01*
X-12301095Y25091685D01*
X-12272871Y25036290D01*
X-12282597Y24974882D01*
X-12326561Y24930918D01*
X-12326561Y24930917D01*
X-12393272Y24896926D01*
X-12481528Y24808670D01*
X-12538185Y24697473D01*
X-12538187Y24697467D01*
X-12552799Y24605213D01*
X-12552800Y24605209D01*
X-12552800Y24561200D01*
X-12089400Y24561200D01*
X-12074246Y24556276D01*
X-12058313Y24556276D01*
X-12045422Y24546910D01*
X-12030269Y24541987D01*
X-12020903Y24529096D01*
X-12008013Y24519731D01*
X-12003089Y24504577D01*
X-11993724Y24491687D01*
X-11988800Y24460600D01*
X-11988800Y24407800D01*
X-12008013Y24348669D01*
X-12058313Y24312124D01*
X-12089400Y24307200D01*
X-12552799Y24307200D01*
X-12552799Y24263195D01*
X-12538185Y24170926D01*
X-12481528Y24059729D01*
X-12411566Y23989767D01*
X-12383340Y23934369D01*
X-12393066Y23872961D01*
X-12411561Y23847503D01*
X-12444686Y23814379D01*
X-12495910Y23704528D01*
X-12495910Y23704525D01*
X-12495911Y23704524D01*
X-12502500Y23654474D01*
X-12502500Y23410561D01*
X-12521713Y23351430D01*
X-12572013Y23314885D01*
X-12634187Y23314885D01*
X-12648772Y23320926D01*
X-12762329Y23378786D01*
X-12762332Y23378787D01*
X-12854588Y23393399D01*
X-12928600Y23393398D01*
X-12928600Y22960000D01*
X-12933524Y22944845D01*
X-12933524Y22928913D01*
X-12942889Y22916022D01*
X-12947813Y22900869D01*
X-12960703Y22891503D01*
X-12970069Y22878613D01*
X-12985222Y22873689D01*
X-12998113Y22864324D01*
X-13029200Y22859400D01*
X-13055600Y22859400D01*
X-13055600Y22833000D01*
X-13074813Y22773869D01*
X-13125113Y22737324D01*
X-13156200Y22732400D01*
X-13619599Y22732400D01*
X-13619599Y22688395D01*
X-13604985Y22596126D01*
X-13548328Y22484929D01*
X-13478366Y22414967D01*
X-13450140Y22359569D01*
X-13459866Y22298161D01*
X-13478361Y22272703D01*
X-13511486Y22239579D01*
X-13562710Y22129728D01*
X-13562710Y22129725D01*
X-13562711Y22129724D01*
X-13569300Y22079674D01*
X-13569300Y21719125D01*
X-13562711Y21669075D01*
X-13562710Y21669073D01*
X-13562710Y21669072D01*
X-13511486Y21559221D01*
X-13425779Y21473514D01*
X-13343666Y21435224D01*
X-13315924Y21422288D01*
X-13265874Y21415700D01*
X-12880650Y21415700D01*
X-12872929Y21413191D01*
X-12864913Y21414461D01*
X-12843924Y21403766D01*
X-12821519Y21396487D01*
X-12809515Y21386235D01*
X-12765162Y21341882D01*
X-12765160Y21341879D01*
X-12759426Y21336145D01*
X-12697855Y21274574D01*
X-12622446Y21231036D01*
X-12599909Y21224997D01*
X-12599908Y21224996D01*
X-12538341Y21208499D01*
X-12538337Y21208499D01*
X-12498763Y21208499D01*
X-12491044Y21205991D01*
X-12483027Y21207261D01*
X-12462034Y21196565D01*
X-12439632Y21189286D01*
X-12427630Y21179036D01*
X-12388562Y21139968D01*
X-12360337Y21084574D01*
X-12370062Y21023165D01*
X-12388558Y20997706D01*
X-12414686Y20971579D01*
X-12465910Y20861728D01*
X-12465910Y20861725D01*
X-12465911Y20861724D01*
X-12472500Y20811674D01*
X-12472500Y20391125D01*
X-12465911Y20341075D01*
X-12465910Y20341073D01*
X-12465910Y20341072D01*
X-12414686Y20231221D01*
X-12414682Y20231217D01*
X-12348965Y20165499D01*
X-12320738Y20110102D01*
X-12319500Y20094365D01*
X-12319500Y19641463D01*
X-12319498Y19641455D01*
X-12296966Y19557358D01*
X-12296965Y19557356D01*
X-12253425Y19481944D01*
X-12188347Y19416866D01*
X-12188336Y19416856D01*
X-11786363Y19014883D01*
X-11758137Y18959485D01*
X-11767863Y18898077D01*
X-11811827Y18854113D01*
X-11831461Y18846576D01*
X-11920373Y18822752D01*
X-11920380Y18822750D01*
X-12045021Y18750789D01*
X-12146789Y18649021D01*
X-12218750Y18524380D01*
X-12218751Y18524373D01*
X-12218752Y18524373D01*
X-12255999Y18385365D01*
X-12256000Y18385359D01*
X-12256000Y18241440D01*
X-12255999Y18241434D01*
X-12226176Y18130132D01*
X-12218750Y18102420D01*
X-12146789Y17977779D01*
X-12111335Y17942325D01*
X-12105588Y17931046D01*
X-12096064Y17922710D01*
X-12091814Y17904012D01*
X-12083109Y17886927D01*
X-12085089Y17874424D01*
X-12082284Y17862082D01*
X-12089476Y17846725D01*
X-12092836Y17825518D01*
X-12106772Y17804934D01*
X-12108961Y17802432D01*
X-12130127Y17781267D01*
X-12133136Y17774812D01*
X-12142563Y17764043D01*
X-12157563Y17755099D01*
X-12169473Y17742323D01*
X-12186287Y17737972D01*
X-12195966Y17732202D01*
X-12205308Y17733051D01*
X-12218262Y17729700D01*
X-12997538Y17729700D01*
X-13028889Y17721299D01*
X-13081641Y17707166D01*
X-13081643Y17707165D01*
X-13081643Y17707164D01*
X-13081646Y17707164D01*
X-13157055Y17663626D01*
X-13218626Y17602055D01*
X-13218626Y17602053D01*
X-13226904Y17593776D01*
X-13226906Y17593772D01*
X-13529772Y17290906D01*
X-13529776Y17290904D01*
X-13538053Y17282626D01*
X-13538055Y17282626D01*
X-13599626Y17221055D01*
X-13643164Y17145646D01*
X-13643164Y17145643D01*
X-13643165Y17145643D01*
X-13643166Y17145641D01*
X-13651944Y17112877D01*
X-13662605Y17073087D01*
X-13665698Y17061544D01*
X-13665700Y17061536D01*
X-13665700Y16762862D01*
X-13684913Y16703731D01*
X-13711494Y16681829D01*
X-13710056Y16679776D01*
X-13717262Y16674728D01*
X-13717267Y16674727D01*
X-13801727Y16590267D01*
X-13852206Y16482014D01*
X-13852206Y16482011D01*
X-13852207Y16482010D01*
X-13858700Y16432690D01*
X-16255500Y16432690D01*
X-16255500Y23030409D01*
X-13619600Y23030409D01*
X-13619600Y22986400D01*
X-13182600Y22986400D01*
X-13182600Y23393399D01*
X-13256604Y23393399D01*
X-13348873Y23378785D01*
X-13460070Y23322128D01*
X-13548328Y23233870D01*
X-13604985Y23122673D01*
X-13604987Y23122667D01*
X-13619599Y23030413D01*
X-13619600Y23030409D01*
X-16255500Y23030409D01*
X-16255500Y29108900D01*
X-16236287Y29168031D01*
X-16185987Y29204576D01*
X-16154900Y29209500D01*
X16154900Y29209500D01*
X16214031Y29190287D01*
G37*
%TD.AperFunction*%
%TA.AperFunction,Conductor*%
G36*
X14598422Y-9030764D02*
G01*
X14642385Y-9074728D01*
X14643925Y-9077884D01*
X14683271Y-9162264D01*
X14683272Y-9162265D01*
X14683273Y-9162267D01*
X14767733Y-9246727D01*
X14839244Y-9280073D01*
X14884715Y-9322475D01*
X14896578Y-9383507D01*
X14870302Y-9439856D01*
X14842399Y-9460882D01*
X14733504Y-9516366D01*
X14646366Y-9603504D01*
X14590428Y-9713290D01*
X14590426Y-9713296D01*
X14576000Y-9804377D01*
X14576000Y-10023000D01*
X15329400Y-10023000D01*
X15344554Y-10027924D01*
X15360487Y-10027924D01*
X15373377Y-10037289D01*
X15388531Y-10042213D01*
X15397896Y-10055103D01*
X15410787Y-10064469D01*
X15415710Y-10079622D01*
X15425076Y-10092513D01*
X15430000Y-10123600D01*
X15430000Y-10176400D01*
X15410787Y-10235531D01*
X15360487Y-10272076D01*
X15329400Y-10277000D01*
X14576000Y-10277000D01*
X14576000Y-10495622D01*
X14590426Y-10586703D01*
X14590428Y-10586709D01*
X14646366Y-10696495D01*
X14699636Y-10749765D01*
X14727862Y-10805163D01*
X14718136Y-10866571D01*
X14674172Y-10910535D01*
X14628501Y-10921500D01*
X13971315Y-10921500D01*
X13912184Y-10902287D01*
X13875639Y-10851987D01*
X13875639Y-10789813D01*
X13900180Y-10749765D01*
X13935276Y-10714669D01*
X13935277Y-10714667D01*
X13970291Y-10662266D01*
X14006465Y-10608127D01*
X14055501Y-10489744D01*
X14080500Y-10364069D01*
X14080500Y-10235931D01*
X14055501Y-10110256D01*
X14006465Y-9991873D01*
X13974507Y-9944045D01*
X13935277Y-9885332D01*
X13841767Y-9791822D01*
X13813541Y-9736424D01*
X13823267Y-9675016D01*
X13863952Y-9634330D01*
X13863335Y-9633261D01*
X13869044Y-9629964D01*
X13869046Y-9629964D01*
X13944455Y-9586426D01*
X14006026Y-9524855D01*
X14006026Y-9524853D01*
X14014304Y-9516576D01*
X14014306Y-9516572D01*
X14481616Y-9049263D01*
X14537013Y-9021038D01*
X14598422Y-9030764D01*
G37*
%TD.AperFunction*%
%TA.AperFunction,Conductor*%
G36*
X-12108319Y-6014113D02*
G01*
X-12096315Y-6024365D01*
X-11790165Y-6330515D01*
X-11761939Y-6385913D01*
X-11760700Y-6401650D01*
X-11760700Y-7895700D01*
X-11779913Y-7954831D01*
X-11830213Y-7991376D01*
X-11861300Y-7996300D01*
X-11934690Y-7996300D01*
X-11984010Y-8002792D01*
X-12092264Y-8053271D01*
X-12092265Y-8053272D01*
X-12092267Y-8053273D01*
X-12176727Y-8137733D01*
X-12199843Y-8187307D01*
X-12227207Y-8245989D01*
X-12233700Y-8295309D01*
X-12233700Y-8899221D01*
X-12252913Y-8958352D01*
X-12303213Y-8994897D01*
X-12365387Y-8994897D01*
X-12405432Y-8970357D01*
X-12491379Y-8884411D01*
X-12517719Y-8869203D01*
X-12616019Y-8812450D01*
X-12616024Y-8812448D01*
X-12727123Y-8782679D01*
X-12779266Y-8748816D01*
X-12801547Y-8690771D01*
X-12799752Y-8665881D01*
X-12783311Y-8583226D01*
X-12779500Y-8564069D01*
X-12779500Y-8435931D01*
X-12789128Y-8387528D01*
X-12804497Y-8310263D01*
X-12804499Y-8310254D01*
X-12853535Y-8191870D01*
X-12854266Y-8190504D01*
X-12854390Y-8189807D01*
X-12855426Y-8187307D01*
X-12854877Y-8187079D01*
X-12865192Y-8129297D01*
X-12838055Y-8073358D01*
X-12836677Y-8071952D01*
X-12831340Y-8066615D01*
X-12782306Y-7961461D01*
X-12776000Y-7913552D01*
X-12776000Y-7827000D01*
X-14084000Y-7827000D01*
X-14084000Y-7913552D01*
X-14077693Y-7961461D01*
X-14028658Y-8066616D01*
X-14028657Y-8066617D01*
X-14023326Y-8071949D01*
X-13995097Y-8127345D01*
X-14004590Y-8187300D01*
X-14004574Y-8187307D01*
X-14004602Y-8187376D01*
X-14004821Y-8188755D01*
X-14005734Y-8190504D01*
X-14006464Y-8191870D01*
X-14030454Y-8249787D01*
X-14055501Y-8310256D01*
X-14080500Y-8435931D01*
X-14080500Y-8564069D01*
X-14055501Y-8689744D01*
X-14006465Y-8808127D01*
X-14006461Y-8808132D01*
X-14006461Y-8808133D01*
X-13981842Y-8844978D01*
X-13981654Y-8845641D01*
X-13981118Y-8846076D01*
X-13973229Y-8875515D01*
X-13964965Y-8904817D01*
X-13965203Y-8905464D01*
X-13965025Y-8906132D01*
X-13975937Y-8934562D01*
X-13986483Y-8963149D01*
X-13987057Y-8963533D01*
X-13987305Y-8964177D01*
X-14012854Y-8980770D01*
X-14038179Y-8997692D01*
X-14039447Y-8998041D01*
X-14056533Y-9002619D01*
X-14075109Y-9007597D01*
X-14097646Y-9013636D01*
X-14173055Y-9057174D01*
X-14240360Y-9124479D01*
X-14240362Y-9124482D01*
X-14650693Y-9534813D01*
X-14706091Y-9563039D01*
X-14764342Y-9554853D01*
X-14875986Y-9502793D01*
X-14875989Y-9502792D01*
X-14899187Y-9499739D01*
X-14955304Y-9472973D01*
X-14984971Y-9418333D01*
X-14976856Y-9356691D01*
X-14934058Y-9311591D01*
X-14899187Y-9300261D01*
X-14875989Y-9297207D01*
X-14875987Y-9297206D01*
X-14875986Y-9297206D01*
X-14767733Y-9246727D01*
X-14683273Y-9162267D01*
X-14683272Y-9162265D01*
X-14683271Y-9162264D01*
X-14632792Y-9054010D01*
X-14626300Y-9004690D01*
X-14626300Y-8295309D01*
X-14632792Y-8245989D01*
X-14683271Y-8137735D01*
X-14767735Y-8053271D01*
X-14875989Y-8002792D01*
X-14925310Y-7996300D01*
X-14925312Y-7996300D01*
X-14998700Y-7996300D01*
X-15057831Y-7977087D01*
X-15094376Y-7926787D01*
X-15099300Y-7895700D01*
X-15099300Y-7486447D01*
X-14084000Y-7486447D01*
X-14084000Y-7573000D01*
X-13557000Y-7573000D01*
X-13303000Y-7573000D01*
X-12776000Y-7573000D01*
X-12776000Y-7486447D01*
X-12782306Y-7438538D01*
X-12831340Y-7333384D01*
X-12913384Y-7251340D01*
X-13018538Y-7202306D01*
X-13066448Y-7196000D01*
X-13303000Y-7196000D01*
X-13303000Y-7573000D01*
X-13557000Y-7573000D01*
X-13557000Y-7196000D01*
X-13793552Y-7196000D01*
X-13841461Y-7202306D01*
X-13946615Y-7251340D01*
X-14028659Y-7333384D01*
X-14077693Y-7438538D01*
X-14084000Y-7486447D01*
X-15099300Y-7486447D01*
X-15099300Y-6095500D01*
X-15080087Y-6036369D01*
X-15029787Y-5999824D01*
X-14998700Y-5994900D01*
X-12167450Y-5994900D01*
X-12108319Y-6014113D01*
G37*
%TD.AperFunction*%
%TD*%
M02*
