M48
; DRILL file {KiCad 9.0.4} date 2026-02-12T21:10:47-0800
; FORMAT={-:-/ absolute / inch / decimal}
; #@! TF.CreationDate,2026-02-12T21:10:47-08:00
; #@! TF.GenerationSoftware,Kicad,Pcbnew,9.0.4
; #@! TF.FileFunction,Plated,1,2,PTH
FMAT,2
INCH
; #@! TA.AperFunction,Plated,PTH,ViaDrill
T1C0.0130
; #@! TA.AperFunction,Plated,PTH,ComponentDrill
T2C0.0157
%
G90
G05
T1
X-0.528Y-0.271
X-0.5057Y0.3627
X-0.505Y-0.367
X-0.469Y1.003
X-0.461Y0.721
X-0.433Y0.776
X-0.388Y0.83
X-0.358Y0.952
X-0.27Y0.888
X-0.269Y0.849
X-0.267Y0.943
X0.209Y0.463
X0.255Y0.511
X0.347Y0.595
X0.425Y0.516
X0.579Y-0.399
X0.595Y-0.13
T2
X-0.44Y1.08
X-0.34Y1.08
X-0.24Y1.08
X-0.14Y1.08
X-0.04Y1.08
X0.06Y1.08
X0.16Y1.08
X0.26Y1.08
X0.36Y1.08
X0.46Y1.08
M30
