%TF.GenerationSoftware,KiCad,Pcbnew,9.0.4*%
%TF.CreationDate,2026-02-12T21:10:49-08:00*%
%TF.ProjectId,MouseMinder,4d6f7573-654d-4696-9e64-65722e6b6963,rev?*%
%TF.SameCoordinates,Original*%
%TF.FileFunction,Legend,Top*%
%TF.FilePolarity,Positive*%
%FSLAX46Y46*%
G04 Gerber Fmt 4.6, Leading zero omitted, Abs format (unit mm)*
G04 Created by KiCad (PCBNEW 9.0.4) date 2026-02-12 21:10:49*
%MOMM*%
%LPD*%
G01*
G04 APERTURE LIST*
%ADD10C,0.190500*%
%ADD11C,0.127000*%
%ADD12C,0.200000*%
%ADD13C,0.120000*%
%ADD14C,0.100000*%
%ADD15C,0.500000*%
G04 APERTURE END LIST*
D10*
X-4172857Y-10655009D02*
X-4172857Y-9893009D01*
X-4172857Y-9893009D02*
X-3918857Y-10437295D01*
X-3918857Y-10437295D02*
X-3664857Y-9893009D01*
X-3664857Y-9893009D02*
X-3664857Y-10655009D01*
X-3156857Y-9893009D02*
X-3011714Y-9893009D01*
X-3011714Y-9893009D02*
X-2939143Y-9929295D01*
X-2939143Y-9929295D02*
X-2866571Y-10001866D01*
X-2866571Y-10001866D02*
X-2830286Y-10147009D01*
X-2830286Y-10147009D02*
X-2830286Y-10401009D01*
X-2830286Y-10401009D02*
X-2866571Y-10546152D01*
X-2866571Y-10546152D02*
X-2939143Y-10618724D01*
X-2939143Y-10618724D02*
X-3011714Y-10655009D01*
X-3011714Y-10655009D02*
X-3156857Y-10655009D01*
X-3156857Y-10655009D02*
X-3229429Y-10618724D01*
X-3229429Y-10618724D02*
X-3302000Y-10546152D01*
X-3302000Y-10546152D02*
X-3338286Y-10401009D01*
X-3338286Y-10401009D02*
X-3338286Y-10147009D01*
X-3338286Y-10147009D02*
X-3302000Y-10001866D01*
X-3302000Y-10001866D02*
X-3229429Y-9929295D01*
X-3229429Y-9929295D02*
X-3156857Y-9893009D01*
X-2503714Y-9893009D02*
X-2503714Y-10509866D01*
X-2503714Y-10509866D02*
X-2467428Y-10582438D01*
X-2467428Y-10582438D02*
X-2431143Y-10618724D01*
X-2431143Y-10618724D02*
X-2358571Y-10655009D01*
X-2358571Y-10655009D02*
X-2213428Y-10655009D01*
X-2213428Y-10655009D02*
X-2140857Y-10618724D01*
X-2140857Y-10618724D02*
X-2104571Y-10582438D01*
X-2104571Y-10582438D02*
X-2068285Y-10509866D01*
X-2068285Y-10509866D02*
X-2068285Y-9893009D01*
X-1741714Y-10618724D02*
X-1632857Y-10655009D01*
X-1632857Y-10655009D02*
X-1451428Y-10655009D01*
X-1451428Y-10655009D02*
X-1378857Y-10618724D01*
X-1378857Y-10618724D02*
X-1342571Y-10582438D01*
X-1342571Y-10582438D02*
X-1306285Y-10509866D01*
X-1306285Y-10509866D02*
X-1306285Y-10437295D01*
X-1306285Y-10437295D02*
X-1342571Y-10364724D01*
X-1342571Y-10364724D02*
X-1378857Y-10328438D01*
X-1378857Y-10328438D02*
X-1451428Y-10292152D01*
X-1451428Y-10292152D02*
X-1596571Y-10255866D01*
X-1596571Y-10255866D02*
X-1669142Y-10219581D01*
X-1669142Y-10219581D02*
X-1705428Y-10183295D01*
X-1705428Y-10183295D02*
X-1741714Y-10110724D01*
X-1741714Y-10110724D02*
X-1741714Y-10038152D01*
X-1741714Y-10038152D02*
X-1705428Y-9965581D01*
X-1705428Y-9965581D02*
X-1669142Y-9929295D01*
X-1669142Y-9929295D02*
X-1596571Y-9893009D01*
X-1596571Y-9893009D02*
X-1415142Y-9893009D01*
X-1415142Y-9893009D02*
X-1306285Y-9929295D01*
X-979714Y-10255866D02*
X-725714Y-10255866D01*
X-616857Y-10655009D02*
X-979714Y-10655009D01*
X-979714Y-10655009D02*
X-979714Y-9893009D01*
X-979714Y-9893009D02*
X-616857Y-9893009D01*
X290285Y-10655009D02*
X290285Y-9893009D01*
X290285Y-9893009D02*
X544285Y-10437295D01*
X544285Y-10437295D02*
X798285Y-9893009D01*
X798285Y-9893009D02*
X798285Y-10655009D01*
X1161142Y-10655009D02*
X1161142Y-9893009D01*
X1523999Y-10655009D02*
X1523999Y-9893009D01*
X1523999Y-9893009D02*
X1959428Y-10655009D01*
X1959428Y-10655009D02*
X1959428Y-9893009D01*
X2322285Y-10655009D02*
X2322285Y-9893009D01*
X2322285Y-9893009D02*
X2503714Y-9893009D01*
X2503714Y-9893009D02*
X2612571Y-9929295D01*
X2612571Y-9929295D02*
X2685142Y-10001866D01*
X2685142Y-10001866D02*
X2721428Y-10074438D01*
X2721428Y-10074438D02*
X2757714Y-10219581D01*
X2757714Y-10219581D02*
X2757714Y-10328438D01*
X2757714Y-10328438D02*
X2721428Y-10473581D01*
X2721428Y-10473581D02*
X2685142Y-10546152D01*
X2685142Y-10546152D02*
X2612571Y-10618724D01*
X2612571Y-10618724D02*
X2503714Y-10655009D01*
X2503714Y-10655009D02*
X2322285Y-10655009D01*
X3084285Y-10255866D02*
X3338285Y-10255866D01*
X3447142Y-10655009D02*
X3084285Y-10655009D01*
X3084285Y-10655009D02*
X3084285Y-9893009D01*
X3084285Y-9893009D02*
X3447142Y-9893009D01*
X4209143Y-10655009D02*
X3955143Y-10292152D01*
X3773714Y-10655009D02*
X3773714Y-9893009D01*
X3773714Y-9893009D02*
X4064000Y-9893009D01*
X4064000Y-9893009D02*
X4136571Y-9929295D01*
X4136571Y-9929295D02*
X4172857Y-9965581D01*
X4172857Y-9965581D02*
X4209143Y-10038152D01*
X4209143Y-10038152D02*
X4209143Y-10147009D01*
X4209143Y-10147009D02*
X4172857Y-10219581D01*
X4172857Y-10219581D02*
X4136571Y-10255866D01*
X4136571Y-10255866D02*
X4064000Y-10292152D01*
X4064000Y-10292152D02*
X3773714Y-10292152D01*
X12026609Y-6389913D02*
X11663752Y-6643913D01*
X12026609Y-6825342D02*
X11264609Y-6825342D01*
X11264609Y-6825342D02*
X11264609Y-6535056D01*
X11264609Y-6535056D02*
X11300895Y-6462485D01*
X11300895Y-6462485D02*
X11337181Y-6426199D01*
X11337181Y-6426199D02*
X11409752Y-6389913D01*
X11409752Y-6389913D02*
X11518609Y-6389913D01*
X11518609Y-6389913D02*
X11591181Y-6426199D01*
X11591181Y-6426199D02*
X11627466Y-6462485D01*
X11627466Y-6462485D02*
X11663752Y-6535056D01*
X11663752Y-6535056D02*
X11663752Y-6825342D01*
X11627466Y-6063342D02*
X11627466Y-5809342D01*
X12026609Y-5700485D02*
X12026609Y-6063342D01*
X12026609Y-6063342D02*
X11264609Y-6063342D01*
X11264609Y-6063342D02*
X11264609Y-5700485D01*
X11990324Y-5410199D02*
X12026609Y-5301342D01*
X12026609Y-5301342D02*
X12026609Y-5119913D01*
X12026609Y-5119913D02*
X11990324Y-5047342D01*
X11990324Y-5047342D02*
X11954038Y-5011056D01*
X11954038Y-5011056D02*
X11881466Y-4974770D01*
X11881466Y-4974770D02*
X11808895Y-4974770D01*
X11808895Y-4974770D02*
X11736324Y-5011056D01*
X11736324Y-5011056D02*
X11700038Y-5047342D01*
X11700038Y-5047342D02*
X11663752Y-5119913D01*
X11663752Y-5119913D02*
X11627466Y-5265056D01*
X11627466Y-5265056D02*
X11591181Y-5337627D01*
X11591181Y-5337627D02*
X11554895Y-5373913D01*
X11554895Y-5373913D02*
X11482324Y-5410199D01*
X11482324Y-5410199D02*
X11409752Y-5410199D01*
X11409752Y-5410199D02*
X11337181Y-5373913D01*
X11337181Y-5373913D02*
X11300895Y-5337627D01*
X11300895Y-5337627D02*
X11264609Y-5265056D01*
X11264609Y-5265056D02*
X11264609Y-5083627D01*
X11264609Y-5083627D02*
X11300895Y-4974770D01*
X11627466Y-4648199D02*
X11627466Y-4394199D01*
X12026609Y-4285342D02*
X12026609Y-4648199D01*
X12026609Y-4648199D02*
X11264609Y-4648199D01*
X11264609Y-4648199D02*
X11264609Y-4285342D01*
X11264609Y-4067627D02*
X11264609Y-3632199D01*
X12026609Y-3849913D02*
X11264609Y-3849913D01*
X-14677570Y-5371809D02*
X-14242142Y-5371809D01*
X-14459856Y-6133809D02*
X-14459856Y-5371809D01*
X-13988142Y-5734666D02*
X-13734142Y-5734666D01*
X-13625285Y-6133809D02*
X-13988142Y-6133809D01*
X-13988142Y-6133809D02*
X-13988142Y-5371809D01*
X-13988142Y-5371809D02*
X-13625285Y-5371809D01*
X-13334999Y-6097524D02*
X-13226142Y-6133809D01*
X-13226142Y-6133809D02*
X-13044713Y-6133809D01*
X-13044713Y-6133809D02*
X-12972142Y-6097524D01*
X-12972142Y-6097524D02*
X-12935856Y-6061238D01*
X-12935856Y-6061238D02*
X-12899570Y-5988666D01*
X-12899570Y-5988666D02*
X-12899570Y-5916095D01*
X-12899570Y-5916095D02*
X-12935856Y-5843524D01*
X-12935856Y-5843524D02*
X-12972142Y-5807238D01*
X-12972142Y-5807238D02*
X-13044713Y-5770952D01*
X-13044713Y-5770952D02*
X-13189856Y-5734666D01*
X-13189856Y-5734666D02*
X-13262427Y-5698381D01*
X-13262427Y-5698381D02*
X-13298713Y-5662095D01*
X-13298713Y-5662095D02*
X-13334999Y-5589524D01*
X-13334999Y-5589524D02*
X-13334999Y-5516952D01*
X-13334999Y-5516952D02*
X-13298713Y-5444381D01*
X-13298713Y-5444381D02*
X-13262427Y-5408095D01*
X-13262427Y-5408095D02*
X-13189856Y-5371809D01*
X-13189856Y-5371809D02*
X-13008427Y-5371809D01*
X-13008427Y-5371809D02*
X-12899570Y-5408095D01*
X-12681856Y-5371809D02*
X-12246428Y-5371809D01*
X-12464142Y-6133809D02*
X-12464142Y-5371809D01*
D11*
X-16510000Y29464000D02*
X-13970000Y29464000D01*
X-13970000Y-1117600D01*
X-16510000Y-1117600D01*
X-16510000Y29464000D01*
G36*
X-16510000Y29464000D02*
G01*
X-13970000Y29464000D01*
X-13970000Y-1117600D01*
X-16510000Y-1117600D01*
X-16510000Y29464000D01*
G37*
X13970000Y29464000D02*
X16510000Y29464000D01*
X16510000Y-1117600D01*
X13970000Y-1117600D01*
X13970000Y29464000D01*
G36*
X13970000Y29464000D02*
G01*
X16510000Y29464000D01*
X16510000Y-1117600D01*
X13970000Y-1117600D01*
X13970000Y29464000D01*
G37*
%TO.C,Q2*%
X-12660100Y14214600D02*
X-12660100Y16214600D01*
X-10403100Y14214600D02*
X-10403100Y16214600D01*
D12*
X-12481600Y13834600D02*
G75*
G02*
X-12681600Y13834600I-100000J0D01*
G01*
X-12681600Y13834600D02*
G75*
G02*
X-12481600Y13834600I100000J0D01*
G01*
D11*
%TO.C,Q1*%
X-10827200Y23507900D02*
X-8827200Y23507900D01*
X-10827200Y21250900D02*
X-8827200Y21250900D01*
D12*
X-11107200Y23429400D02*
G75*
G02*
X-11307200Y23429400I-100000J0D01*
G01*
X-11307200Y23429400D02*
G75*
G02*
X-11107200Y23429400I100000J0D01*
G01*
D13*
%TO.C,R9*%
X-12955000Y15901641D02*
X-12955000Y15594359D01*
X-13715000Y15901641D02*
X-13715000Y15594359D01*
%TO.C,R8*%
X-10669241Y24562800D02*
X-10361959Y24562800D01*
X-10669241Y23802800D02*
X-10361959Y23802800D01*
%TO.C,R7*%
X-7570200Y16157641D02*
X-7570200Y15850359D01*
X-8330200Y16157641D02*
X-8330200Y15850359D01*
%TO.C,R6*%
X-8050800Y21895559D02*
X-8050800Y22202841D01*
X-7290800Y21895559D02*
X-7290800Y22202841D01*
%TO.C,R5*%
X13816600Y-2157759D02*
X13816600Y-2465041D01*
X13056600Y-2157759D02*
X13056600Y-2465041D01*
%TO.C,R4*%
X15416800Y-5027959D02*
X15416800Y-5335241D01*
X14656800Y-5027959D02*
X14656800Y-5335241D01*
%TO.C,R3*%
X-12368800Y21895559D02*
X-12368800Y22202841D01*
X-11608800Y21895559D02*
X-11608800Y22202841D01*
%TO.C,R2*%
X-11049759Y17019000D02*
X-11357041Y17019000D01*
X-11049759Y17779000D02*
X-11357041Y17779000D01*
%TO.C,R1*%
X10105359Y10616200D02*
X10412641Y10616200D01*
X10105359Y9856200D02*
X10412641Y9856200D01*
%TO.C,C5*%
X8411036Y9901600D02*
X8195364Y9901600D01*
X8411036Y10621600D02*
X8195364Y10621600D01*
%TO.C,C3*%
X-13415600Y22271564D02*
X-13415600Y22487236D01*
X-12695600Y22271564D02*
X-12695600Y22487236D01*
%TO.C,C2*%
X-11616636Y20961400D02*
X-11400964Y20961400D01*
X-11616636Y20241400D02*
X-11400964Y20241400D01*
%TO.C,C1*%
X-12348800Y23846364D02*
X-12348800Y24062036D01*
X-11628800Y23846364D02*
X-11628800Y24062036D01*
%TO.C,D4*%
X-8764600Y14440000D02*
X-8764600Y16725000D01*
X-8764600Y16725000D02*
X-10234600Y16725000D01*
X-10234600Y16725000D02*
X-10234600Y14440000D01*
%TO.C,U1*%
X10661400Y13968700D02*
X10331400Y14208700D01*
X10661400Y14448700D01*
X10661400Y13968700D01*
G36*
X10661400Y13968700D02*
G01*
X10331400Y14208700D01*
X10661400Y14448700D01*
X10661400Y13968700D01*
G37*
X7261400Y12908700D02*
X7261400Y12108700D01*
X7261400Y12908700D02*
X7261400Y13708700D01*
X10381400Y12908700D02*
X10381400Y12108700D01*
X10381400Y12908700D02*
X10381400Y13708700D01*
%TO.C,D1*%
X-8228000Y25514200D02*
X-8228000Y23229200D01*
X-8228000Y23229200D02*
X-6758000Y23229200D01*
X-6758000Y23229200D02*
X-6758000Y25514200D01*
D11*
%TO.C,BZ2*%
X-11300000Y18796000D02*
X-10600000Y18796000D01*
X-10950000Y19146000D02*
X-10950000Y18446000D01*
X-6500000Y25296000D02*
X6500000Y25296000D01*
X-6500000Y20616000D02*
X-6500000Y25296000D01*
X-6500000Y16976000D02*
X-6500000Y12296000D01*
X-6500000Y12296000D02*
X6500000Y12296000D01*
X6500000Y25296000D02*
X6500000Y20616000D01*
X6500000Y12296000D02*
X6500000Y16976000D01*
X10600000Y18796000D02*
X11300000Y18796000D01*
%TO.C,SW1*%
D14*
X-12485000Y-11670000D02*
X-14375000Y-11670000D01*
X-14375000Y-10860000D01*
X-12485000Y-10860000D01*
X-12485000Y-11670000D01*
X-10775000Y-11670000D02*
X-16085000Y-11670000D01*
X-16085000Y-7390000D01*
X-10775000Y-7390000D01*
X-10775000Y-11670000D01*
D13*
%TO.C,RV1*%
X-8435800Y7853200D02*
X-13255800Y7853200D01*
X-8435800Y9133200D02*
X-8435800Y7853200D01*
X-8435800Y12873200D02*
X-8435800Y11593200D01*
X-13255800Y7853200D02*
X-13255800Y8333200D01*
X-13255800Y10093200D02*
X-13255800Y10633200D01*
X-13255800Y12393200D02*
X-13255800Y12873200D01*
X-13255800Y12873200D02*
X-8435800Y12873200D01*
%TO.C,D3*%
X-9131400Y26185800D02*
X-11416400Y26185800D01*
X-11416400Y26185800D02*
X-11416400Y24715800D01*
X-11416400Y24715800D02*
X-9131400Y24715800D01*
%TO.C,BT1*%
X-11890000Y2790000D02*
X-11890000Y-2810000D01*
X-11890000Y-2800000D02*
X-10680000Y-2800000D01*
X-10680000Y4250000D02*
X-3800000Y10630000D01*
X-10680000Y2800000D02*
X-11890000Y2800000D01*
X-10680000Y2800000D02*
X-10680000Y4250000D01*
X-10680000Y-2800000D02*
X-10680000Y-6350000D01*
X-3800000Y10630000D02*
X3800000Y10630000D01*
X10680000Y4250000D02*
X3800000Y10630000D01*
X10680000Y2800000D02*
X10680000Y4250000D01*
X10680000Y-2800000D02*
X10680000Y-6280000D01*
X11920000Y2770000D02*
X10680000Y2800000D01*
X11920000Y2770000D02*
X11920000Y-2830000D01*
X11920000Y-2800000D02*
X10680000Y-2800000D01*
X-5316452Y-8492753D02*
G75*
G02*
X-10680000Y-6300000I-2233548J2192753D01*
G01*
X-5306422Y-8467392D02*
G75*
G02*
X5169999Y-8330001I5306422J-5132609D01*
G01*
X10677058Y-6300000D02*
G75*
G02*
X5180001Y-8339999I-3127058J1D01*
G01*
%TO.C,BZ1*%
D15*
X-6000000Y12796000D02*
X6000000Y12796000D01*
X6000000Y24796000D01*
X-6000000Y24796000D01*
X-6000000Y12796000D01*
%TO.C,SW4*%
D14*
X14375000Y-11670000D02*
X12485000Y-11670000D01*
X12485000Y-10860000D01*
X14375000Y-10860000D01*
X14375000Y-11670000D01*
X16085000Y-11670000D02*
X10775000Y-11670000D01*
X10775000Y-7390000D01*
X16085000Y-7390000D01*
X16085000Y-11670000D01*
D13*
%TO.C,D2*%
X12451200Y-6841200D02*
X14371200Y-6841200D01*
X14371200Y-6841200D02*
X14371200Y-4156200D01*
X12451200Y-4156200D02*
X12451200Y-6841200D01*
%TD*%
M02*
